<?xml version="1.0" standalone="no"?>
<!DOCTYPE svg PUBLIC "-//W3C//DTD SVG 1.1//EN" "http://www.w3.org/Graphics/SVG/1.1/DTD/svg11.dtd" >
<svg xmlns="http://www.w3.org/2000/svg" xmlns:xlink="http://www.w3.org/1999/xlink" version="1.1">
<metadata>
Created by FontForge 20170104 at Wed Jun  6 18:06:22 2018
 By Joshua Finklea
Copyright (c) 2018 by Lucas Sharp. All rights reserved.
</metadata>
<defs>
<font id="Beatrice-Medium" horiz-adv-x="620" >
  <font-face 
    font-family="Beatrice Medium"
    font-weight="500"
    font-stretch="normal"
    units-per-em="1000"
    panose-1="0 0 0 0 0 0 0 0 0 0"
    ascent="800"
    descent="-200"
    x-height="560"
    cap-height="730"
    bbox="-201 -289 1163 1022"
    underline-thickness="50"
    underline-position="-100"
    unicode-range="U+000D-3009"
  />
<missing-glyph horiz-adv-x="736" 
d="M78 0v730h579v-730h-579zM171 645v-560h394v560h-394z" />
    <glyph glyph-name=".notdef" horiz-adv-x="736" 
d="M78 0v730h579v-730h-579zM171 645v-560h394v560h-394z" />
    <glyph glyph-name="NULL" horiz-adv-x="0" 
 />
    <glyph glyph-name="NULL" horiz-adv-x="0" 
 />
    <glyph glyph-name="nonmarkingreturn" unicode="&#xd;" horiz-adv-x="258" 
 />
    <glyph glyph-name="space" unicode=" " horiz-adv-x="258" 
 />
    <glyph glyph-name="A" unicode="A" horiz-adv-x="734" 
d="M13 0l284 730h140l284 -730h-128l-57 152h-338l-56 -152h-129zM340 539l-109 -296h271l-111 296l-25 79z" />
    <glyph glyph-name="B" unicode="B" horiz-adv-x="718" 
d="M78 0v730h337q130 0 188.5 -50t58.5 -134q0 -66 -40 -111t-114 -58q80 -10 127 -55t47 -124q0 -99 -70.5 -148.5t-201.5 -49.5h-332zM388 624h-188v-211h183q84 0 123 30.5t39 79.5q0 46 -35 73.5t-122 27.5zM396 325h-196v-218h197q97 0 131.5 33.5t34.5 82.5
q0 51 -40 76.5t-127 25.5z" />
    <glyph glyph-name="C" unicode="C" horiz-adv-x="778" 
d="M741 475l-123 -35q-18 84 -66.5 136t-146.5 52q-55 0 -98.5 -20.5t-72.5 -56t-44.5 -83.5t-15.5 -103t13 -103t41 -83.5t71 -56t103 -20.5q104 0 155 58.5t65 145.5l124 -23q-12 -64 -38.5 -118t-68.5 -92.5t-101 -60.5t-136 -22q-93 0 -160.5 30.5t-110 81.5
t-62.5 119.5t-20 143.5t24 143.5t69 119.5t112 81.5t152 30.5q142 0 224.5 -73t110.5 -192z" />
    <glyph glyph-name="D" unicode="D" horiz-adv-x="757" 
d="M78 0v730h243q187 0 287 -91.5t100 -264.5q0 -81 -24.5 -150t-72.5 -118.5t-119.5 -77.5t-164.5 -28h-249zM319 619h-119v-508h127q131 0 193.5 72t62.5 191q0 124 -65 184.5t-199 60.5z" />
    <glyph glyph-name="E" unicode="E" horiz-adv-x="666" 
d="M78 0v730h537v-110h-415v-204h324v-94h-324v-212h416v-110h-538z" />
    <glyph glyph-name="F" unicode="F" horiz-adv-x="637" 
d="M78 0v730h513v-110h-391v-235h337v-93h-337v-292h-122z" />
    <glyph glyph-name="G" unicode="G" horiz-adv-x="809" 
d="M174 356q0 -116 59.5 -187.5t166.5 -71.5q88 0 147.5 50t72.5 153h-240v91h362v-391h-120v100l2 84q-27 -96 -92 -145t-163 -49q-77 0 -137 29t-100.5 77.5t-61.5 113.5t-21 136q0 86 25.5 159t73.5 125t116.5 81t153.5 29q123 0 200 -50.5t126 -131.5l-111 -71
q-34 72 -85 106.5t-136 34.5q-107 0 -172.5 -72t-65.5 -200z" />
    <glyph glyph-name="H" unicode="H" horiz-adv-x="761" 
d="M78 0v730h122v-314h360v314h122v-730h-122v322h-360v-322h-122z" />
    <glyph glyph-name="I" unicode="I" horiz-adv-x="284" 
d="M81 0v730h122v-730h-122z" />
    <glyph glyph-name="J" unicode="J" horiz-adv-x="627" 
d="M295 -10q-122 0 -187.5 58t-82.5 158l117 35q12 -75 49.5 -110t102.5 -35q75 0 107.5 49.5t32.5 145.5v439h122v-452q0 -65 -17 -118t-50 -90.5t-82 -58.5t-112 -21z" />
    <glyph glyph-name="K" unicode="K" horiz-adv-x="711" 
d="M78 0v730h122v-425l346 425h145l-267 -318l284 -412h-143l-234 351l-131 -154v-197h-122z" />
    <glyph glyph-name="L" unicode="L" horiz-adv-x="613" 
d="M78 0v730h122v-618h377v-112h-499z" />
    <glyph glyph-name="M" unicode="M" horiz-adv-x="927" 
d="M688 729l160 1v-730h-118v521l6 110l-30 -109l-195 -522h-97l-193 522l-30 104l6 -105v-521h-119v730h166l206 -566l14 -52l15 51z" />
    <glyph glyph-name="N" unicode="N" horiz-adv-x="763" 
d="M196 544v-544h-118v730h145l317 -532l31 -67l-4 72v527h118v-730h-136l-328 553l-32 60z" />
    <glyph glyph-name="O" unicode="O" horiz-adv-x="803" 
d="M399 -10q-90 0 -156 30t-109 81t-64 119.5t-21 145.5q0 75 23.5 143t68 119t110.5 81.5t150 30.5q88 0 155 -30t110.5 -80.5t65.5 -119t22 -144.5t-22.5 -144.5t-66.5 -120t-111 -81.5t-155 -30zM400 102q58 0 101.5 20t71.5 55.5t42 84t14 104.5t-14 104.5t-42 83.5
t-71.5 55t-100.5 20q-54 0 -97 -20.5t-71.5 -56t-43.5 -83.5t-15 -103t13.5 -103.5t41 -84t70.5 -56t101 -20.5z" />
    <glyph glyph-name="P" unicode="P" horiz-adv-x="710" 
d="M373 222h-173v-222h-122v730h289q147 0 224 -66.5t78 -179.5q0 -62 -21.5 -110.5t-60 -82t-93.5 -51.5t-121 -18zM363 618h-163v-302h162q91 0 139 38t48 114q0 79 -48 114.5t-138 35.5z" />
    <glyph glyph-name="Q" unicode="Q" horiz-adv-x="803" 
d="M400 -10q-95 0 -162 30.5t-109 82t-61 120t-19 143.5t23.5 143t68 119t110.5 81.5t150 30.5q88 0 155.5 -30t112 -80.5t66 -119t19.5 -144.5q-2 -69 -25 -133t-63 -115l83 -78l-64 -65l-84 81q-41 -31 -92.5 -48.5t-108.5 -17.5zM401 101q35 0 65 8.5t55 23.5l-106 102
l64 63l106 -102q22 34 33 77.5t11 92.5q0 56 -14 104.5t-42 83.5t-71.5 55t-100.5 20q-54 0 -97 -20.5t-71.5 -56t-43.5 -83.5t-15 -103t12.5 -103.5t39.5 -84.5t70.5 -56.5t104.5 -20.5z" />
    <glyph glyph-name="R" unicode="R" horiz-adv-x="712" 
d="M330 276h-130v-276h-122v730h328q130 0 195.5 -57t65.5 -151q0 -80 -53 -133.5t-137 -69.5q25 -4 45.5 -10.5t36.5 -17.5q31 -20 50 -58.5t37 -101.5l37 -131h-130l-34 129q-12 45 -25 74t-33.5 45t-51.5 22t-79 6zM376 624h-176v-259h171q84 0 129.5 35.5t45.5 97.5
q0 60 -40 93t-130 33z" />
    <glyph glyph-name="S" unicode="S" horiz-adv-x="661" 
d="M16 139l102 85q46 -63 101 -92t133 -29q69 0 106 31t37 77q0 31 -17 50.5t-45 32t-64.5 20t-74.5 14.5q-47 8 -92.5 19.5t-80.5 33.5t-56.5 57.5t-21.5 89.5q0 43 17.5 82t51.5 68.5t84 46.5t115 17q101 0 175.5 -35.5t132.5 -113.5l-107 -80q-37 57 -86 86.5t-127 29.5
q-71 0 -106 -31t-35 -72q0 -30 15.5 -49t42.5 -31t63.5 -19.5t77.5 -14.5q45 -8 90.5 -20t81.5 -33.5t58.5 -57.5t22.5 -92q0 -96 -71 -158t-196 -62q-112 0 -194 39t-133 111z" />
    <glyph glyph-name="T" unicode="T" horiz-adv-x="660" 
d="M35 623v107h590v-107h-234v-623h-122v623h-234z" />
    <glyph glyph-name="U" unicode="U" horiz-adv-x="737" 
d="M545 730h121v-425q0 -79 -21.5 -138.5t-60.5 -98.5t-94.5 -58.5t-122.5 -19.5q-142 0 -219 76.5t-77 238.5v425h122v-416q0 -104 42.5 -157.5t131.5 -53.5q94 0 136 53.5t42 157.5v416z" />
    <glyph glyph-name="V" unicode="V" horiz-adv-x="728" 
d="M712 730l-295 -730h-124l-277 730h133l175 -470l37 -124l38 124l181 470h132z" />
    <glyph glyph-name="W" unicode="W" horiz-adv-x="1038" 
d="M491 530l-148 -530h-135l-179 730h134l114 -505l18 -88l17 88l142 505h116l137 -505l19 -94l19 94l132 505h132l-199 -730h-146l-147 530l-13 69z" />
    <glyph glyph-name="X" unicode="X" horiz-adv-x="690" 
d="M9 0l265 381l-244 349h136l162 -236l20 -33l19 33l159 236h136l-245 -349l264 -381h-135l-183 270l-20 32l-18 -32l-182 -270h-134z" />
    <glyph glyph-name="Y" unicode="Y" horiz-adv-x="654" 
d="M652 730l-267 -470v-260h-121v260l-261 470h136l164 -308l24 -56l26 56l165 308h134z" />
    <glyph glyph-name="Z" unicode="Z" horiz-adv-x="651" 
d="M40 101l375 452l62 69h-422v108h548v-102l-348 -423l-87 -98h439v-107h-567v101z" />
    <glyph glyph-name="Aacute" unicode="&#xc1;" horiz-adv-x="734" 
d="M13 0l284 730h140l284 -730h-128l-57 152h-338l-56 -152h-129zM340 539l-109 -296h271l-111 296l-25 79zM326 771l-39 54l208 156l50 -69z" />
    <glyph glyph-name="Abreve" unicode="&#x102;" horiz-adv-x="734" 
d="M13 0l284 730h140l284 -730h-128l-57 152h-338l-56 -152h-129zM340 539l-109 -296h271l-111 296l-25 79zM373 848q44 0 68 24t25 72l73 -16q-1 -64 -43 -108.5t-126 -44.5q-88 0 -131 44.5t-43 108.5l76 16q1 -49 28 -72.5t73 -23.5z" />
    <glyph glyph-name="Acircumflex" unicode="&#xc2;" horiz-adv-x="734" 
d="M13 0l284 730h140l284 -730h-128l-57 152h-338l-56 -152h-129zM340 539l-109 -296h271l-111 296l-25 79zM340 960h50l159 -150l-52 -47l-133 126l-135 -126l-47 47z" />
    <glyph glyph-name="Adieresis" unicode="&#xc4;" horiz-adv-x="734" 
d="M13 0l284 730h140l284 -730h-128l-57 152h-338l-56 -152h-129zM340 539l-109 -296h271l-111 296l-25 79zM188 848q0 32 18.5 52.5t53.5 20.5q34 0 53 -20.5t19 -52.5q0 -31 -19 -50.5t-53 -19.5q-35 0 -53.5 19.5t-18.5 50.5zM402 848q0 32 18.5 52.5t53.5 20.5
q33 0 52 -20.5t19 -52.5q0 -31 -19 -50.5t-52 -19.5q-35 0 -53.5 19.5t-18.5 50.5z" />
    <glyph glyph-name="Aumlaut" horiz-adv-x="734" 
d="M140 601q-32 0 -50 18.5t-18 50.5q0 31 18 50t50 19q33 0 51.5 -19t18.5 -50q0 -32 -18.5 -50.5t-51.5 -18.5zM593 601q-31 0 -49.5 18.5t-18.5 50.5q0 31 18.5 50t49.5 19q33 0 51.5 -19t18.5 -50q0 -32 -18.5 -50.5t-51.5 -18.5zM13 0l284 730h140l284 -730h-128
l-57 152h-338l-56 -152h-129zM340 539l-109 -296h271l-111 296l-25 79z" />
    <glyph glyph-name="Agrave" unicode="&#xc0;" horiz-adv-x="734" 
d="M13 0l284 730h140l284 -730h-128l-57 152h-338l-56 -152h-129zM340 539l-109 -296h271l-111 296l-25 79zM423 771l-219 141l51 69l207 -156z" />
    <glyph glyph-name="Amacron" unicode="&#x100;" horiz-adv-x="734" 
d="M13 0l284 730h140l284 -730h-128l-57 152h-338l-56 -152h-129zM340 539l-109 -296h271l-111 296l-25 79zM222 815v72h289v-72h-289z" />
    <glyph glyph-name="Anocross" horiz-adv-x="734" 
d="M13 0l284 730h140l284 -730h-128l-202 539l-25 79l-26 -79l-198 -539h-129z" />
    <glyph glyph-name="Aogonek" unicode="&#x104;" horiz-adv-x="734" 
d="M13 0l284 730h140l284 -730h-65q-48 -31 -73 -62.5t-25 -65.5q0 -23 16 -35t44 -12q10 0 19 1t19 3l-10 -72q-13 -4 -24.5 -5.5t-25.5 -1.5q-54 0 -85.5 24.5t-31.5 68.5q0 49 31 87.5t82 71.5l-56 150h-338l-56 -152h-129zM340 539l-109 -296h271l-111 296l-25 79z" />
    <glyph glyph-name="Aring" unicode="&#xc5;" horiz-adv-x="734" 
d="M13 0l284 730h140l284 -730h-128l-57 152h-338l-56 -152h-129zM340 539l-109 -296h271l-111 296l-25 79zM366 783q-52 0 -87 34t-35 85t34.5 85.5t87.5 34.5q51 0 86 -34.5t35 -85.5t-35 -85t-86 -34zM366 836q29 0 45.5 18t16.5 49q0 30 -17 47.5t-46 17.5
q-28 0 -45 -18t-17 -47q0 -31 17.5 -49t45.5 -18z" />
    <glyph glyph-name="Atilde" unicode="&#xc3;" horiz-adv-x="734" 
d="M13 0l284 730h140l284 -730h-128l-57 152h-338l-56 -152h-129zM340 539l-109 -296h271l-111 296l-25 79zM299 871q-16 0 -25 -11.5t-9 -40.5v-15.5t1 -13.5l-71 10q-1 4 -1 7v6q0 66 27.5 99.5t67.5 33.5q25 0 46 -12.5t38.5 -27.5t33.5 -27.5t32 -12.5q14 0 22.5 11
t8.5 41v14.5t-1 13.5l71 -9q1 -4 1 -7v-7q0 -66 -27 -99.5t-67 -33.5q-25 0 -45.5 12.5t-38 28t-33.5 28t-31 12.5z" />
    <glyph glyph-name="AE" unicode="&#xc6;" horiz-adv-x="964" 
d="M8 0l366 730h540v-110h-388l30 -204h267v-94h-254l31 -212h315v-110h-398l-23 153h-281l-72 -153h-133zM401 549l-145 -306h225l-44 306l-9 57z" />
    <glyph glyph-name="AEacute" unicode="&#x1fc;" horiz-adv-x="964" 
d="M8 0l366 730h540v-110h-388l30 -204h267v-94h-254l31 -212h315v-110h-398l-23 153h-281l-72 -153h-133zM401 549l-145 -306h225l-44 306l-9 57zM534 771l-39 54l208 156l50 -69z" />
    <glyph glyph-name="Cacute" unicode="&#x106;" horiz-adv-x="778" 
d="M741 475l-123 -35q-18 84 -66.5 136t-146.5 52q-55 0 -98.5 -20.5t-72.5 -56t-44.5 -83.5t-15.5 -103t13 -103t41 -83.5t71 -56t103 -20.5q104 0 155 58.5t65 145.5l124 -23q-12 -64 -38.5 -118t-68.5 -92.5t-101 -60.5t-136 -22q-93 0 -160.5 30.5t-110 81.5
t-62.5 119.5t-20 143.5t24 143.5t69 119.5t112 81.5t152 30.5q142 0 224.5 -73t110.5 -192zM369 771l-39 54l208 156l50 -69z" />
    <glyph glyph-name="Ccaron" unicode="&#x10c;" horiz-adv-x="778" 
d="M741 475l-123 -35q-18 84 -66.5 136t-146.5 52q-55 0 -98.5 -20.5t-72.5 -56t-44.5 -83.5t-15.5 -103t13 -103t41 -83.5t71 -56t103 -20.5q104 0 155 58.5t65 145.5l124 -23q-12 -64 -38.5 -118t-68.5 -92.5t-101 -60.5t-136 -22q-93 0 -160.5 30.5t-110 81.5
t-62.5 119.5t-20 143.5t24 143.5t69 119.5t112 81.5t152 30.5q142 0 224.5 -73t110.5 -192zM436 776h-50l-160 149l52 48l133 -127l136 126l46 -47z" />
    <glyph glyph-name="Ccedilla" unicode="&#xc7;" horiz-adv-x="778" 
d="M535 -143q0 -47 -35 -77t-99 -30q-37 0 -72 8.5t-60 22.5l30 62q19 -10 43.5 -18.5t54.5 -8.5q31 0 48 12.5t17 31.5q0 20 -16.5 30.5t-47.5 10.5q-20 0 -34 -2.5t-24 -5.5l-18 11l31 88q-80 8 -138 41t-94.5 83t-54 114.5t-17.5 134.5q0 75 24 143.5t69 119.5t112 81.5
t152 30.5q142 0 224.5 -73t110.5 -192l-123 -35q-18 84 -66.5 136t-146.5 52q-55 0 -98.5 -20.5t-72.5 -56t-44.5 -83.5t-15.5 -103t13 -103t41 -83.5t71 -56t103 -20.5q104 0 155 58.5t65 145.5l124 -23q-12 -62 -37.5 -115t-65.5 -91.5t-96.5 -61.5t-129.5 -25l-14 -40
q8 1 12.5 1h10.5q54 0 81.5 -27t27.5 -67z" />
    <glyph glyph-name="Ccircumflex" unicode="&#x108;" horiz-adv-x="778" 
d="M741 475l-123 -35q-18 84 -66.5 136t-146.5 52q-55 0 -98.5 -20.5t-72.5 -56t-44.5 -83.5t-15.5 -103t13 -103t41 -83.5t71 -56t103 -20.5q104 0 155 58.5t65 145.5l124 -23q-12 -64 -38.5 -118t-68.5 -92.5t-101 -60.5t-136 -22q-93 0 -160.5 30.5t-110 81.5
t-62.5 119.5t-20 143.5t24 143.5t69 119.5t112 81.5t152 30.5q142 0 224.5 -73t110.5 -192zM385 963h50l159 -150l-52 -47l-133 126l-135 -126l-47 47z" />
    <glyph glyph-name="Cdotaccent" unicode="&#x10a;" horiz-adv-x="778" 
d="M741 475l-123 -35q-18 84 -66.5 136t-146.5 52q-55 0 -98.5 -20.5t-72.5 -56t-44.5 -83.5t-15.5 -103t13 -103t41 -83.5t71 -56t103 -20.5q104 0 155 58.5t65 145.5l124 -23q-12 -64 -38.5 -118t-68.5 -92.5t-101 -60.5t-136 -22q-93 0 -160.5 30.5t-110 81.5
t-62.5 119.5t-20 143.5t24 143.5t69 119.5t112 81.5t152 30.5q142 0 224.5 -73t110.5 -192zM334 857q0 33 19 54t56 21q34 0 53.5 -21t19.5 -54q0 -32 -19.5 -52.5t-53.5 -20.5q-37 0 -56 20.5t-19 52.5z" />
    <glyph glyph-name="Dcaron" unicode="&#x10e;" horiz-adv-x="757" 
d="M78 0v730h243q187 0 287 -91.5t100 -264.5q0 -81 -24.5 -150t-72.5 -118.5t-119.5 -77.5t-164.5 -28h-249zM319 619h-119v-508h127q131 0 193.5 72t62.5 191q0 124 -65 184.5t-199 60.5zM398 774h-50l-160 149l52 48l133 -127l136 126l46 -47z" />
    <glyph glyph-name="Dcroat" unicode="&#x110;" horiz-adv-x="768" 
d="M89 0v321h-84v92h84v317h243q187 0 287 -91.5t100 -264.5q0 -81 -24.5 -150t-72.5 -118.5t-119.5 -77.5t-164.5 -28h-249zM330 619h-119v-213h185v-79h-185v-216h127q131 0 193.5 72t62.5 191q0 124 -65 184.5t-199 60.5z" />
    <glyph glyph-name="Eth" unicode="&#xd0;" horiz-adv-x="768" 
d="M89 0v321h-84v92h84v317h243q187 0 287 -91.5t100 -264.5q0 -81 -24.5 -150t-72.5 -118.5t-119.5 -77.5t-164.5 -28h-249zM330 619h-119v-213h185v-79h-185v-216h127q131 0 193.5 72t62.5 191q0 124 -65 184.5t-199 60.5z" />
    <glyph glyph-name="Eacute" unicode="&#xc9;" horiz-adv-x="666" 
d="M78 0v730h537v-110h-415v-204h324v-94h-324v-212h416v-110h-538zM313 771l-39 54l208 156l50 -69z" />
    <glyph glyph-name="Ebreve" unicode="&#x114;" horiz-adv-x="666" 
d="M78 0v730h537v-110h-415v-204h324v-94h-324v-212h416v-110h-538zM365 848q44 0 68 24t25 72l73 -16q-1 -64 -43 -108.5t-126 -44.5q-88 0 -131 44.5t-43 108.5l76 16q1 -49 28 -72.5t73 -23.5z" />
    <glyph glyph-name="Ecaron" unicode="&#x11a;" horiz-adv-x="666" 
d="M78 0v730h537v-110h-415v-204h324v-94h-324v-212h416v-110h-538zM384 776h-50l-160 149l52 48l133 -127l136 126l46 -47z" />
    <glyph glyph-name="Ecircumflex" unicode="&#xca;" horiz-adv-x="666" 
d="M78 0v730h537v-110h-415v-204h324v-94h-324v-212h416v-110h-538zM329 963h50l159 -150l-52 -47l-133 126l-135 -126l-47 47z" />
    <glyph glyph-name="Edieresis" unicode="&#xcb;" horiz-adv-x="666" 
d="M78 0v730h537v-110h-415v-204h324v-94h-324v-212h416v-110h-538zM176 848q0 32 18.5 52.5t53.5 20.5q34 0 53 -20.5t19 -52.5q0 -31 -19 -50.5t-53 -19.5q-35 0 -53.5 19.5t-18.5 50.5zM390 848q0 32 18.5 52.5t53.5 20.5q33 0 52 -20.5t19 -52.5q0 -31 -19 -50.5
t-52 -19.5q-35 0 -53.5 19.5t-18.5 50.5z" />
    <glyph glyph-name="Edotaccent" unicode="&#x116;" horiz-adv-x="666" 
d="M78 0v730h537v-110h-415v-204h324v-94h-324v-212h416v-110h-538zM281 857q0 33 19 54t56 21q34 0 53.5 -21t19.5 -54q0 -32 -19.5 -52.5t-53.5 -20.5q-37 0 -56 20.5t-19 52.5z" />
    <glyph glyph-name="Egrave" unicode="&#xc8;" horiz-adv-x="666" 
d="M78 0v730h537v-110h-415v-204h324v-94h-324v-212h416v-110h-538zM410 771l-219 141l51 69l207 -156z" />
    <glyph glyph-name="Emacron" unicode="&#x112;" horiz-adv-x="666" 
d="M78 0v730h537v-110h-415v-204h324v-94h-324v-212h416v-110h-538zM211 815v72h289v-72h-289z" />
    <glyph glyph-name="Eogonek" unicode="&#x118;" horiz-adv-x="666" 
d="M78 0v730h537v-110h-415v-204h324v-94h-324v-212h416v-110q-48 -31 -73 -62.5t-25 -65.5q0 -23 16 -35t44 -12q10 0 19 1t19 3l-10 -72q-13 -4 -24.5 -5.5t-25.5 -1.5q-54 0 -85.5 24.5t-31.5 68.5q0 47 29.5 85t80.5 72h-471z" />
    <glyph glyph-name="Gbreve" unicode="&#x11e;" horiz-adv-x="809" 
d="M174 356q0 -116 59.5 -187.5t166.5 -71.5q88 0 147.5 50t72.5 153h-240v91h362v-391h-120v100l2 84q-27 -96 -92 -145t-163 -49q-77 0 -137 29t-100.5 77.5t-61.5 113.5t-21 136q0 86 25.5 159t73.5 125t116.5 81t153.5 29q123 0 200 -50.5t126 -131.5l-111 -71
q-34 72 -85 106.5t-136 34.5q-107 0 -172.5 -72t-65.5 -200zM424 848q44 0 68 24t25 72l73 -16q-1 -64 -43 -108.5t-126 -44.5q-88 0 -131 44.5t-43 108.5l76 16q1 -49 28 -72.5t73 -23.5z" />
    <glyph glyph-name="Gcircumflex" unicode="&#x11c;" horiz-adv-x="809" 
d="M174 356q0 -116 59.5 -187.5t166.5 -71.5q88 0 147.5 50t72.5 153h-240v91h362v-391h-120v100l2 84q-27 -96 -92 -145t-163 -49q-77 0 -137 29t-100.5 77.5t-61.5 113.5t-21 136q0 86 25.5 159t73.5 125t116.5 81t153.5 29q123 0 200 -50.5t126 -131.5l-111 -71
q-34 72 -85 106.5t-136 34.5q-107 0 -172.5 -72t-65.5 -200zM393 963h50l159 -150l-52 -47l-133 126l-135 -126l-47 47z" />
    <glyph glyph-name="Gcommaaccent" unicode="&#x122;" horiz-adv-x="809" 
d="M174 356q0 -116 59.5 -187.5t166.5 -71.5q88 0 147.5 50t72.5 153h-240v91h362v-391h-120v100l2 84q-27 -96 -92 -145t-163 -49q-77 0 -137 29t-100.5 77.5t-61.5 113.5t-21 136q0 86 25.5 159t73.5 125t116.5 81t153.5 29q123 0 200 -50.5t126 -131.5l-111 -71
q-34 72 -85 106.5t-136 34.5q-107 0 -172.5 -72t-65.5 -200zM487 -140q0 -57 -36.5 -99.5t-99.5 -49.5l-22 62q43 3 67 14t31 36q-5 -1 -10 -1.5t-9 -0.5q-33 0 -51 17t-18 46q0 31 20 50.5t49 19.5q35 0 57 -23.5t22 -70.5z" />
    <glyph glyph-name="Gdotaccent" unicode="&#x120;" horiz-adv-x="809" 
d="M174 356q0 -116 59.5 -187.5t166.5 -71.5q88 0 147.5 50t72.5 153h-240v91h362v-391h-120v100l2 84q-27 -96 -92 -145t-163 -49q-77 0 -137 29t-100.5 77.5t-61.5 113.5t-21 136q0 86 25.5 159t73.5 125t116.5 81t153.5 29q123 0 200 -50.5t126 -131.5l-111 -71
q-34 72 -85 106.5t-136 34.5q-107 0 -172.5 -72t-65.5 -200zM343 857q0 33 19 54t56 21q34 0 53.5 -21t19.5 -54q0 -32 -19.5 -52.5t-53.5 -20.5q-37 0 -56 20.5t-19 52.5z" />
    <glyph glyph-name="Hbar" unicode="&#x126;" horiz-adv-x="782" 
d="M89 0v497h-84v92h84v141h122v-149h360v149h122v-141h84v-92h-84v-497h-122v281h-360v-281h-122zM211 375h360v128h-360v-128z" />
    <glyph glyph-name="Hcircumflex" unicode="&#x124;" horiz-adv-x="761" 
d="M78 0v730h122v-314h360v314h122v-730h-122v322h-360v-322h-122zM357 952h50l159 -150l-52 -47l-133 126l-135 -126l-47 47z" />
    <glyph glyph-name="Iacute" unicode="&#xcd;" horiz-adv-x="284" 
d="M81 0v730h122v-730h-122zM103 771l-39 54l208 156l50 -69z" />
    <glyph glyph-name="Ibreve" unicode="&#x12c;" horiz-adv-x="284" 
d="M81 0v730h122v-730h-122zM149 848q44 0 68 24t25 72l73 -16q-1 -64 -43 -108.5t-126 -44.5q-88 0 -131 44.5t-43 108.5l76 16q1 -49 28 -72.5t73 -23.5z" />
    <glyph glyph-name="Icircumflex" unicode="&#xce;" horiz-adv-x="284" 
d="M81 0v730h122v-730h-122zM117 963h50l159 -150l-52 -47l-133 126l-135 -126l-47 47z" />
    <glyph glyph-name="Idieresis" unicode="&#xcf;" horiz-adv-x="284" 
d="M81 0v730h122v-730h-122zM-36 848q0 32 18.5 52.5t53.5 20.5q34 0 53 -20.5t19 -52.5q0 -31 -19 -50.5t-53 -19.5q-35 0 -53.5 19.5t-18.5 50.5zM178 848q0 32 18.5 52.5t53.5 20.5q33 0 52 -20.5t19 -52.5q0 -31 -19 -50.5t-52 -19.5q-35 0 -53.5 19.5t-18.5 50.5z" />
    <glyph glyph-name="Idotaccent" unicode="&#x130;" horiz-adv-x="284" 
d="M81 0v730h122v-730h-122zM68 857q0 33 19 54t56 21q34 0 53.5 -21t19.5 -54q0 -32 -19.5 -52.5t-53.5 -20.5q-37 0 -56 20.5t-19 52.5z" />
    <glyph glyph-name="Igrave" unicode="&#xcc;" horiz-adv-x="284" 
d="M81 0v730h122v-730h-122zM199 771l-219 141l51 69l207 -156z" />
    <glyph glyph-name="Imacron" unicode="&#x12a;" horiz-adv-x="284" 
d="M81 0v730h122v-730h-122zM-2 815v72h289v-72h-289z" />
    <glyph glyph-name="Iogonek" unicode="&#x12e;" horiz-adv-x="284" 
d="M81 0v730h122v-730q-48 -31 -73 -62.5t-25 -65.5q0 -23 16 -35t44 -12q10 0 19 1t19 3l-10 -72q-13 -4 -24.5 -5.5t-25.5 -1.5q-54 0 -85.5 24.5t-31.5 68.5q0 47 29.5 85t80.5 72h-55z" />
    <glyph glyph-name="Itilde" unicode="&#x128;" horiz-adv-x="284" 
d="M81 0v730h122v-730h-122zM79 871q-16 0 -25 -11.5t-9 -40.5v-15.5t1 -13.5l-71 10q-1 4 -1 7v6q0 66 27.5 99.5t67.5 33.5q25 0 46 -12.5t38.5 -27.5t33.5 -27.5t32 -12.5q14 0 22.5 11t8.5 41v14.5t-1 13.5l71 -9q1 -4 1 -7v-7q0 -66 -27 -99.5t-67 -33.5
q-25 0 -45.5 12.5t-38 28t-33.5 28t-31 12.5z" />
    <glyph glyph-name="Jcircumflex" unicode="&#x134;" horiz-adv-x="627" 
d="M295 -10q-122 0 -187.5 58t-82.5 158l117 35q12 -75 49.5 -110t102.5 -35q75 0 107.5 49.5t32.5 145.5v439h122v-452q0 -65 -17 -118t-50 -90.5t-82 -58.5t-112 -21zM472 963h50l159 -150l-52 -47l-133 126l-135 -126l-47 47z" />
    <glyph glyph-name="Kcommaaccent" unicode="&#x136;" horiz-adv-x="711" 
d="M78 0v730h122v-425l346 425h145l-267 -318l284 -412h-143l-234 351l-131 -154v-197h-122zM451 -127q0 -57 -36.5 -99.5t-99.5 -49.5l-22 62q43 3 67 14t31 36q-5 -1 -10 -1.5t-9 -0.5q-33 0 -51 17t-18 46q0 31 20 50.5t49 19.5q35 0 57 -23.5t22 -70.5z" />
    <glyph glyph-name="Lacute" unicode="&#x139;" horiz-adv-x="613" 
d="M78 0v730h122v-618h377v-112h-499zM100 771l-39 54l208 156l50 -69z" />
    <glyph glyph-name="Lcaron" unicode="&#x13d;" horiz-adv-x="613" 
d="M78 0v730h122v-618h377v-112h-499zM429 740q6 -19 8.5 -39t2.5 -39q0 -49 -12 -92t-34 -86l-61 21q13 31 19.5 60t6.5 59q0 26 -5 48.5t-13 50.5z" />
    <glyph glyph-name="Lcommaaccent" unicode="&#x13b;" horiz-adv-x="613" 
d="M78 0v730h122v-618h377v-112h-499zM426 -140q0 -57 -36.5 -99.5t-99.5 -49.5l-22 62q43 3 67 14t31 36q-5 -1 -10 -1.5t-9 -0.5q-33 0 -51 17t-18 46q0 31 20 50.5t49 19.5q35 0 57 -23.5t22 -70.5z" />
    <glyph glyph-name="Ldot" unicode="&#x13f;" horiz-adv-x="613" 
d="M78 0v730h122v-618h377v-112h-499zM335 427q0 35 20.5 57.5t59.5 22.5q37 0 57.5 -22.5t20.5 -57.5q0 -34 -20.5 -56t-57.5 -22q-39 0 -59.5 22t-20.5 56z" />
    <glyph glyph-name="Lslash" unicode="&#x141;" horiz-adv-x="624" 
d="M89 0v309l-84 -42v88l84 42v333h122v-294l172 87v-89l-172 -85v-237h377v-112h-499z" />
    <glyph glyph-name="Nacute" unicode="&#x143;" horiz-adv-x="763" 
d="M196 544v-544h-118v730h145l317 -532l31 -67l-4 72v527h118v-730h-136l-328 553l-32 60zM346 759l-39 54l208 156l50 -69z" />
    <glyph glyph-name="Ncaron" unicode="&#x147;" horiz-adv-x="763" 
d="M196 544v-544h-118v730h145l317 -532l31 -67l-4 72v527h118v-730h-136l-328 553l-32 60zM413 764h-50l-160 149l52 48l133 -127l136 126l46 -47z" />
    <glyph glyph-name="Ncommaaccent" unicode="&#x145;" horiz-adv-x="763" 
d="M196 544v-544h-118v730h145l317 -532l31 -67l-4 72v527h118v-730h-136l-328 553l-32 60zM460 -131q0 -57 -36.5 -99.5t-99.5 -49.5l-22 62q43 3 67 14t31 36q-5 -1 -10 -1.5t-9 -0.5q-33 0 -51 17t-18 46q0 31 20 50.5t49 19.5q35 0 57 -23.5t22 -70.5z" />
    <glyph glyph-name="Ntilde" unicode="&#xd1;" horiz-adv-x="763" 
d="M196 544v-544h-118v730h145l317 -532l31 -67l-4 72v527h118v-730h-136l-328 553l-32 60zM323 859q-16 0 -25 -11.5t-9 -40.5v-15.5t1 -13.5l-71 10q-1 4 -1 7v6q0 66 27.5 99.5t67.5 33.5q25 0 46 -12.5t38.5 -27.5t33.5 -27.5t32 -12.5q14 0 22.5 11t8.5 41v14.5
t-1 13.5l71 -9q1 -4 1 -7v-7q0 -66 -27 -99.5t-67 -33.5q-25 0 -45.5 12.5t-38 28t-33.5 28t-31 12.5z" />
    <glyph glyph-name="Eng" unicode="&#x14a;" horiz-adv-x="763" 
d="M685 -1q0 -104 -49.5 -159.5t-178.5 -55.5h-51v111h52q57 0 82.5 20t25.5 63v12l-345 566l-32 60l7 -69v-547h-118v730h145l314 -509l35 -78l-5 87v500h118v-731z" />
    <glyph glyph-name="Oacute" unicode="&#xd3;" horiz-adv-x="803" 
d="M399 -10q-90 0 -156 30t-109 81t-64 119.5t-21 145.5q0 75 23.5 143t68 119t110.5 81.5t150 30.5q88 0 155 -30t110.5 -80.5t65.5 -119t22 -144.5t-22.5 -144.5t-66.5 -120t-111 -81.5t-155 -30zM400 102q58 0 101.5 20t71.5 55.5t42 84t14 104.5t-14 104.5t-42 83.5
t-71.5 55t-100.5 20q-54 0 -97 -20.5t-71.5 -56t-43.5 -83.5t-15 -103t13.5 -103.5t41 -84t70.5 -56t101 -20.5zM362 771l-39 54l208 156l50 -69z" />
    <glyph glyph-name="Obreve" unicode="&#x14e;" horiz-adv-x="803" 
d="M399 -10q-90 0 -156 30t-109 81t-64 119.5t-21 145.5q0 75 23.5 143t68 119t110.5 81.5t150 30.5q88 0 155 -30t110.5 -80.5t65.5 -119t22 -144.5t-22.5 -144.5t-66.5 -120t-111 -81.5t-155 -30zM400 102q58 0 101.5 20t71.5 55.5t42 84t14 104.5t-14 104.5t-42 83.5
t-71.5 55t-100.5 20q-54 0 -97 -20.5t-71.5 -56t-43.5 -83.5t-15 -103t13.5 -103.5t41 -84t70.5 -56t101 -20.5zM409 848q44 0 68 24t25 72l73 -16q-1 -64 -43 -108.5t-126 -44.5q-88 0 -131 44.5t-43 108.5l76 16q1 -49 28 -72.5t73 -23.5z" />
    <glyph glyph-name="Ocircumflex" unicode="&#xd4;" horiz-adv-x="803" 
d="M399 -10q-90 0 -156 30t-109 81t-64 119.5t-21 145.5q0 75 23.5 143t68 119t110.5 81.5t150 30.5q88 0 155 -30t110.5 -80.5t65.5 -119t22 -144.5t-22.5 -144.5t-66.5 -120t-111 -81.5t-155 -30zM400 102q58 0 101.5 20t71.5 55.5t42 84t14 104.5t-14 104.5t-42 83.5
t-71.5 55t-100.5 20q-54 0 -97 -20.5t-71.5 -56t-43.5 -83.5t-15 -103t13.5 -103.5t41 -84t70.5 -56t101 -20.5zM378 963h50l159 -150l-52 -47l-133 126l-135 -126l-47 47z" />
    <glyph glyph-name="Odieresis" unicode="&#xd6;" horiz-adv-x="803" 
d="M399 -10q-90 0 -156 30t-109 81t-64 119.5t-21 145.5q0 75 23.5 143t68 119t110.5 81.5t150 30.5q88 0 155 -30t110.5 -80.5t65.5 -119t22 -144.5t-22.5 -144.5t-66.5 -120t-111 -81.5t-155 -30zM400 102q58 0 101.5 20t71.5 55.5t42 84t14 104.5t-14 104.5t-42 83.5
t-71.5 55t-100.5 20q-54 0 -97 -20.5t-71.5 -56t-43.5 -83.5t-15 -103t13.5 -103.5t41 -84t70.5 -56t101 -20.5zM223 848q0 32 18.5 52.5t53.5 20.5q34 0 53 -20.5t19 -52.5q0 -31 -19 -50.5t-53 -19.5q-35 0 -53.5 19.5t-18.5 50.5zM437 848q0 32 18.5 52.5t53.5 20.5
q33 0 52 -20.5t19 -52.5q0 -31 -19 -50.5t-52 -19.5q-35 0 -53.5 19.5t-18.5 50.5z" />
    <glyph glyph-name="Oumlaut" horiz-adv-x="825" 
d="M408 -10q-90 0 -156 30t-109 81t-64 119.5t-21 145.5q0 75 23.5 143t68 119t110.5 81.5t150 30.5q88 0 155 -30t110.5 -80.5t65.5 -119t22 -144.5t-22.5 -144.5t-66.5 -120t-111 -81.5t-155 -30zM42 599q-31 0 -49.5 18.5t-18.5 50.5t18.5 51t49.5 19q33 0 51.5 -19
t18.5 -51t-18.5 -50.5t-51.5 -18.5zM781 599q-31 0 -49.5 18.5t-18.5 50.5t18.5 51t49.5 19q33 0 51.5 -19t18.5 -51t-18.5 -50.5t-51.5 -18.5zM409 102q58 0 101.5 20t71.5 55.5t42 84t14 104.5t-14 104.5t-42 83.5t-71.5 55t-100.5 20q-54 0 -97 -20.5t-71.5 -56
t-43.5 -83.5t-15 -103t13.5 -103.5t41 -84t70.5 -56t101 -20.5z" />
    <glyph glyph-name="Ograve" unicode="&#xd2;" horiz-adv-x="803" 
d="M399 -10q-90 0 -156 30t-109 81t-64 119.5t-21 145.5q0 75 23.5 143t68 119t110.5 81.5t150 30.5q88 0 155 -30t110.5 -80.5t65.5 -119t22 -144.5t-22.5 -144.5t-66.5 -120t-111 -81.5t-155 -30zM400 102q58 0 101.5 20t71.5 55.5t42 84t14 104.5t-14 104.5t-42 83.5
t-71.5 55t-100.5 20q-54 0 -97 -20.5t-71.5 -56t-43.5 -83.5t-15 -103t13.5 -103.5t41 -84t70.5 -56t101 -20.5zM458 771l-219 141l51 69l207 -156z" />
    <glyph glyph-name="Ohungarumlaut" unicode="&#x150;" horiz-adv-x="803" 
d="M399 -10q-90 0 -156 30t-109 81t-64 119.5t-21 145.5q0 75 23.5 143t68 119t110.5 81.5t150 30.5q88 0 155 -30t110.5 -80.5t65.5 -119t22 -144.5t-22.5 -144.5t-66.5 -120t-111 -81.5t-155 -30zM400 102q58 0 101.5 20t71.5 55.5t42 84t14 104.5t-14 104.5t-42 83.5
t-71.5 55t-100.5 20q-54 0 -97 -20.5t-71.5 -56t-43.5 -83.5t-15 -103t13.5 -103.5t41 -84t70.5 -56t101 -20.5zM339 777l-54 27l97 200l75 -38zM486 771l-53 30l104 190l75 -37z" />
    <glyph glyph-name="Omacron" unicode="&#x14c;" horiz-adv-x="803" 
d="M399 -10q-90 0 -156 30t-109 81t-64 119.5t-21 145.5q0 75 23.5 143t68 119t110.5 81.5t150 30.5q88 0 155 -30t110.5 -80.5t65.5 -119t22 -144.5t-22.5 -144.5t-66.5 -120t-111 -81.5t-155 -30zM400 102q58 0 101.5 20t71.5 55.5t42 84t14 104.5t-14 104.5t-42 83.5
t-71.5 55t-100.5 20q-54 0 -97 -20.5t-71.5 -56t-43.5 -83.5t-15 -103t13.5 -103.5t41 -84t70.5 -56t101 -20.5zM258 815v72h289v-72h-289z" />
    <glyph glyph-name="Oslash" unicode="&#xd8;" horiz-adv-x="803" 
d="M65 -10l-58 64l97 88q-28 47 -41.5 104t-13.5 120q0 75 23.5 143t68 119t110.5 81.5t150 30.5q81 0 143.5 -25t105.5 -68l96 88l58 -63l-103 -93q26 -45 39.5 -99.5t13.5 -113.5q0 -76 -22.5 -144.5t-66.5 -120t-111 -81.5t-155 -30q-78 0 -138.5 23t-103.5 63zM173 366
q0 -43 7.5 -81.5t23.5 -69.5l359 351q-28 30 -68.5 46.5t-93.5 16.5q-54 0 -97 -20.5t-72 -56t-44 -83.5t-15 -103zM400 102q58 0 101.5 20t72 55.5t42.5 84t14 104.5q0 39 -7 74.5t-20 64.5l-358 -348q28 -26 66.5 -40.5t88.5 -14.5z" />
    <glyph glyph-name="Oslashacute" unicode="&#x1fe;" horiz-adv-x="803" 
d="M65 -10l-58 64l97 88q-28 47 -41.5 104t-13.5 120q0 75 23.5 143t68 119t110.5 81.5t150 30.5q81 0 143.5 -25t105.5 -68l96 88l58 -63l-103 -93q26 -45 39.5 -99.5t13.5 -113.5q0 -76 -22.5 -144.5t-66.5 -120t-111 -81.5t-155 -30q-78 0 -138.5 23t-103.5 63zM173 366
q0 -43 7.5 -81.5t23.5 -69.5l359 351q-28 30 -68.5 46.5t-93.5 16.5q-54 0 -97 -20.5t-72 -56t-44 -83.5t-15 -103zM400 102q58 0 101.5 20t72 55.5t42.5 84t14 104.5q0 39 -7 74.5t-20 64.5l-358 -348q28 -26 66.5 -40.5t88.5 -14.5zM362 771l-39 54l208 156l50 -69z" />
    <glyph glyph-name="Otilde" unicode="&#xd5;" horiz-adv-x="803" 
d="M399 -10q-90 0 -156 30t-109 81t-64 119.5t-21 145.5q0 75 23.5 143t68 119t110.5 81.5t150 30.5q88 0 155 -30t110.5 -80.5t65.5 -119t22 -144.5t-22.5 -144.5t-66.5 -120t-111 -81.5t-155 -30zM400 102q58 0 101.5 20t71.5 55.5t42 84t14 104.5t-14 104.5t-42 83.5
t-71.5 55t-100.5 20q-54 0 -97 -20.5t-71.5 -56t-43.5 -83.5t-15 -103t13.5 -103.5t41 -84t70.5 -56t101 -20.5zM336 871q-16 0 -25 -11.5t-9 -40.5v-15.5t1 -13.5l-71 10q-1 4 -1 7v6q0 66 27.5 99.5t67.5 33.5q25 0 46 -12.5t38.5 -27.5t33.5 -27.5t32 -12.5q14 0 22.5 11
t8.5 41v14.5t-1 13.5l71 -9q1 -4 1 -7v-7q0 -66 -27 -99.5t-67 -33.5q-25 0 -45.5 12.5t-38 28t-33.5 28t-31 12.5z" />
    <glyph glyph-name="OE" unicode="&#x152;" horiz-adv-x="1184" 
d="M373 -10q-76 0 -136 28.5t-101.5 78t-63.5 118t-22 146.5q0 81 23.5 150.5t66 120t103 79.5t133.5 29q96 0 156 -48t93 -118v156h507v-110h-411v-204h320v-94h-320v-212h412v-110h-508v161q-16 -35 -39.5 -66.5t-54.5 -54.5t-70.5 -36.5t-87.5 -13.5zM401 102
q56 0 99 20.5t71.5 56t43.5 84t15 103.5t-14 103t-42 83.5t-71 56t-101 20.5q-54 0 -96.5 -21t-71.5 -56.5t-44 -83.5t-15 -102t12 -102.5t39 -84t70 -56.5t105 -21z" />
    <glyph glyph-name="Racute" unicode="&#x154;" horiz-adv-x="712" 
d="M330 276h-130v-276h-122v730h328q130 0 195.5 -57t65.5 -151q0 -80 -53 -133.5t-137 -69.5q25 -4 45.5 -10.5t36.5 -17.5q31 -20 50 -58.5t37 -101.5l37 -131h-130l-34 129q-12 45 -25 74t-33.5 45t-51.5 22t-79 6zM376 624h-176v-259h171q84 0 129.5 35.5t45.5 97.5
q0 60 -40 93t-130 33zM315 771l-39 54l208 156l50 -69z" />
    <glyph glyph-name="Rcaron" unicode="&#x158;" horiz-adv-x="712" 
d="M330 276h-130v-276h-122v730h328q130 0 195.5 -57t65.5 -151q0 -80 -53 -133.5t-137 -69.5q25 -4 45.5 -10.5t36.5 -17.5q31 -20 50 -58.5t37 -101.5l37 -131h-130l-34 129q-12 45 -25 74t-33.5 45t-51.5 22t-79 6zM376 624h-176v-259h171q84 0 129.5 35.5t45.5 97.5
q0 60 -40 93t-130 33zM385 776h-50l-160 149l52 48l133 -127l136 126l46 -47z" />
    <glyph glyph-name="Rcommaaccent" unicode="&#x156;" horiz-adv-x="712" 
d="M330 276h-130v-276h-122v730h328q130 0 195.5 -57t65.5 -151q0 -80 -53 -133.5t-137 -69.5q25 -4 45.5 -10.5t36.5 -17.5q31 -20 50 -58.5t37 -101.5l37 -131h-130l-34 129q-12 45 -25 74t-33.5 45t-51.5 22t-79 6zM376 624h-176v-259h171q84 0 129.5 35.5t45.5 97.5
q0 60 -40 93t-130 33zM454 -126q0 -57 -36.5 -99.5t-99.5 -49.5l-22 62q43 3 67 14t31 36q-5 -1 -10 -1.5t-9 -0.5q-33 0 -51 17t-18 46q0 31 20 50.5t49 19.5q35 0 57 -23.5t22 -70.5z" />
    <glyph glyph-name="Sacute" unicode="&#x15a;" horiz-adv-x="661" 
d="M16 139l102 85q46 -63 101 -92t133 -29q69 0 106 31t37 77q0 31 -17 50.5t-45 32t-64.5 20t-74.5 14.5q-47 8 -92.5 19.5t-80.5 33.5t-56.5 57.5t-21.5 89.5q0 43 17.5 82t51.5 68.5t84 46.5t115 17q101 0 175.5 -35.5t132.5 -113.5l-107 -80q-37 57 -86 86.5t-127 29.5
q-71 0 -106 -31t-35 -72q0 -30 15.5 -49t42.5 -31t63.5 -19.5t77.5 -14.5q45 -8 90.5 -20t81.5 -33.5t58.5 -57.5t22.5 -92q0 -96 -71 -158t-196 -62q-112 0 -194 39t-133 111zM285 771l-39 54l208 156l50 -69z" />
    <glyph glyph-name="Scaron" unicode="&#x160;" horiz-adv-x="661" 
d="M16 139l102 85q46 -63 101 -92t133 -29q69 0 106 31t37 77q0 31 -17 50.5t-45 32t-64.5 20t-74.5 14.5q-47 8 -92.5 19.5t-80.5 33.5t-56.5 57.5t-21.5 89.5q0 43 17.5 82t51.5 68.5t84 46.5t115 17q101 0 175.5 -35.5t132.5 -113.5l-107 -80q-37 57 -86 86.5t-127 29.5
q-71 0 -106 -31t-35 -72q0 -30 15.5 -49t42.5 -31t63.5 -19.5t77.5 -14.5q45 -8 90.5 -20t81.5 -33.5t58.5 -57.5t22.5 -92q0 -96 -71 -158t-196 -62q-112 0 -194 39t-133 111zM355 776h-50l-160 149l52 48l133 -127l136 126l46 -47z" />
    <glyph glyph-name="Scedilla" unicode="&#x15e;" horiz-adv-x="661" 
d="M16 139l102 85q46 -63 101 -92t133 -29q69 0 106 31t37 77q0 31 -17 50.5t-45 32t-64.5 20t-74.5 14.5q-47 8 -92.5 19.5t-80.5 33.5t-56.5 57.5t-21.5 89.5q0 43 17.5 82t51.5 68.5t84 46.5t115 17q101 0 175.5 -35.5t132.5 -113.5l-107 -80q-37 57 -86 86.5t-127 29.5
q-71 0 -106 -31t-35 -72q0 -30 15.5 -49t42.5 -31t63.5 -19.5t77.5 -14.5q45 -8 90.5 -20t81.5 -33.5t58.5 -57.5t22.5 -92q0 -96 -71 -158t-196 -62h-12l-12 -35q8 1 12.5 1h10.5q54 0 81.5 -27t27.5 -67q0 -47 -35 -77t-99 -30q-37 0 -72 8.5t-60 22.5l30 62
q19 -10 43.5 -18.5t54.5 -8.5q31 0 48 12.5t17 31.5q0 20 -16.5 30.5t-47.5 10.5q-20 0 -34 -2.5t-24 -5.5l-18 11l30 86q-84 11 -146.5 48.5t-105.5 96.5z" />
    <glyph glyph-name="Scircumflex" unicode="&#x15c;" horiz-adv-x="661" 
d="M16 139l102 85q46 -63 101 -92t133 -29q69 0 106 31t37 77q0 31 -17 50.5t-45 32t-64.5 20t-74.5 14.5q-47 8 -92.5 19.5t-80.5 33.5t-56.5 57.5t-21.5 89.5q0 43 17.5 82t51.5 68.5t84 46.5t115 17q101 0 175.5 -35.5t132.5 -113.5l-107 -80q-37 57 -86 86.5t-127 29.5
q-71 0 -106 -31t-35 -72q0 -30 15.5 -49t42.5 -31t63.5 -19.5t77.5 -14.5q45 -8 90.5 -20t81.5 -33.5t58.5 -57.5t22.5 -92q0 -96 -71 -158t-196 -62q-112 0 -194 39t-133 111zM301 963h50l159 -150l-52 -47l-133 126l-135 -126l-47 47z" />
    <glyph glyph-name="Scommaaccent" unicode="&#x218;" horiz-adv-x="661" 
d="M16 139l102 85q46 -63 101 -92t133 -29q69 0 106 31t37 77q0 31 -17 50.5t-45 32t-64.5 20t-74.5 14.5q-47 8 -92.5 19.5t-80.5 33.5t-56.5 57.5t-21.5 89.5q0 43 17.5 82t51.5 68.5t84 46.5t115 17q101 0 175.5 -35.5t132.5 -113.5l-107 -80q-37 57 -86 86.5t-127 29.5
q-71 0 -106 -31t-35 -72q0 -30 15.5 -49t42.5 -31t63.5 -19.5t77.5 -14.5q45 -8 90.5 -20t81.5 -33.5t58.5 -57.5t22.5 -92q0 -96 -71 -158t-196 -62q-112 0 -194 39t-133 111zM398 -140q0 -57 -36.5 -99.5t-99.5 -49.5l-22 62q43 3 67 14t31 36q-5 -1 -10 -1.5t-9 -0.5
q-33 0 -51 17t-18 46q0 31 20 50.5t49 19.5q35 0 57 -23.5t22 -70.5z" />
    <glyph glyph-name="uni1E9E" unicode="&#x1e9e;" horiz-adv-x="754" 
d="M73 437q0 71 22.5 127.5t63.5 95.5t98 59.5t126 20.5q104 0 178.5 -39t122.5 -102l-213 -199q68 -6 114.5 -25t75 -47.5t41 -64.5t12.5 -74q0 -41 -14 -78t-43 -64t-72.5 -42.5t-102.5 -15.5q-66 0 -117.5 14t-83.5 34l65 110q24 -16 57 -27t76 -11q58 0 92.5 27t34.5 80
q0 23 -9.5 43t-34.5 35t-69.5 24.5t-114.5 11.5l-26 68l180 171q-30 28 -68 42t-84 14q-38 0 -72 -11t-59 -35.5t-39.5 -65t-14.5 -98.5v-415h-122v437z" />
    <glyph glyph-name="Tbar" unicode="&#x166;" horiz-adv-x="660" 
d="M108 306v78h161v239h-234v107h590v-107h-234v-239h161v-78h-161v-306h-122v306h-161z" />
    <glyph glyph-name="Tcaron" unicode="&#x164;" horiz-adv-x="660" 
d="M35 623v107h590v-107h-234v-623h-122v623h-234zM357 776h-50l-160 149l52 48l133 -127l136 126l46 -47z" />
    <glyph glyph-name="Tcommaaccent" unicode="&#x21a;" horiz-adv-x="660" 
d="M35 623v107h590v-107h-234v-623h-122v623h-234zM412 -140q0 -57 -36.5 -99.5t-99.5 -49.5l-22 62q43 3 67 14t31 36q-5 -1 -10 -1.5t-9 -0.5q-33 0 -51 17t-18 46q0 31 20 50.5t49 19.5q35 0 57 -23.5t22 -70.5z" />
    <glyph glyph-name="Uacute" unicode="&#xda;" horiz-adv-x="737" 
d="M545 730h121v-425q0 -79 -21.5 -138.5t-60.5 -98.5t-94.5 -58.5t-122.5 -19.5q-142 0 -219 76.5t-77 238.5v425h122v-416q0 -104 42.5 -157.5t131.5 -53.5q94 0 136 53.5t42 157.5v416zM329 764l-39 54l208 156l50 -69z" />
    <glyph glyph-name="Ubreve" unicode="&#x16c;" horiz-adv-x="737" 
d="M545 730h121v-425q0 -79 -21.5 -138.5t-60.5 -98.5t-94.5 -58.5t-122.5 -19.5q-142 0 -219 76.5t-77 238.5v425h122v-416q0 -104 42.5 -157.5t131.5 -53.5q94 0 136 53.5t42 157.5v416zM375 841q44 0 68 24t25 72l73 -16q-1 -64 -43 -108.5t-126 -44.5q-88 0 -131 44.5
t-43 108.5l76 16q1 -49 28 -72.5t73 -23.5z" />
    <glyph glyph-name="Ucircumflex" unicode="&#xdb;" horiz-adv-x="737" 
d="M545 730h121v-425q0 -79 -21.5 -138.5t-60.5 -98.5t-94.5 -58.5t-122.5 -19.5q-142 0 -219 76.5t-77 238.5v425h122v-416q0 -104 42.5 -157.5t131.5 -53.5q94 0 136 53.5t42 157.5v416zM344 956h50l159 -150l-52 -47l-133 126l-135 -126l-47 47z" />
    <glyph glyph-name="Udieresis" unicode="&#xdc;" horiz-adv-x="737" 
d="M190 841q0 32 18.5 52.5t53.5 20.5q34 0 53 -20.5t19 -52.5q0 -31 -19 -50.5t-53 -19.5q-35 0 -53.5 19.5t-18.5 50.5zM404 841q0 32 18.5 52.5t53.5 20.5q33 0 52 -20.5t19 -52.5q0 -31 -19 -50.5t-52 -19.5q-35 0 -53.5 19.5t-18.5 50.5zM545 730h121v-425
q0 -79 -21.5 -138.5t-60.5 -98.5t-94.5 -58.5t-122.5 -19.5q-142 0 -219 76.5t-77 238.5v425h122v-416q0 -104 42.5 -157.5t131.5 -53.5q94 0 136 53.5t42 157.5v416z" />
    <glyph glyph-name="Uumlaut" horiz-adv-x="737" 
d="M350 659q0 -36 -14 -53.5t-44 -17.5q-28 0 -42 17.5t-14 53.5t14 54t42 18q30 0 44 -18t14 -54zM503 659q0 -36 -14 -53.5t-44 -17.5q-28 0 -42 17.5t-14 53.5t14 54t42 18q30 0 44 -18t14 -54zM545 730h121v-425q0 -79 -21.5 -138.5t-60.5 -98.5t-94.5 -58.5
t-122.5 -19.5q-142 0 -219 76.5t-77 238.5v425h122v-416q0 -104 42.5 -157.5t131.5 -53.5q94 0 136 53.5t42 157.5v416z" />
    <glyph glyph-name="Ugrave" unicode="&#xd9;" horiz-adv-x="737" 
d="M545 730h121v-425q0 -79 -21.5 -138.5t-60.5 -98.5t-94.5 -58.5t-122.5 -19.5q-142 0 -219 76.5t-77 238.5v425h122v-416q0 -104 42.5 -157.5t131.5 -53.5q94 0 136 53.5t42 157.5v416zM430 764l-219 141l51 69l207 -156z" />
    <glyph glyph-name="Uhungarumlaut" unicode="&#x170;" horiz-adv-x="737" 
d="M545 730h121v-425q0 -79 -21.5 -138.5t-60.5 -98.5t-94.5 -58.5t-122.5 -19.5q-142 0 -219 76.5t-77 238.5v425h122v-416q0 -104 42.5 -157.5t131.5 -53.5q94 0 136 53.5t42 157.5v416zM305 770l-54 27l97 200l75 -38zM452 764l-53 30l104 190l75 -37z" />
    <glyph glyph-name="Umacron" unicode="&#x16a;" horiz-adv-x="737" 
d="M545 730h121v-425q0 -79 -21.5 -138.5t-60.5 -98.5t-94.5 -58.5t-122.5 -19.5q-142 0 -219 76.5t-77 238.5v425h122v-416q0 -104 42.5 -157.5t131.5 -53.5q94 0 136 53.5t42 157.5v416zM224 808v72h289v-72h-289z" />
    <glyph glyph-name="Uogonek" unicode="&#x172;" horiz-adv-x="737" 
d="M465 -231q-13 -4 -24.5 -5.5t-25.5 -1.5q-54 0 -85.5 24.5t-31.5 68.5q0 42 23.5 76t65.5 59h-20q-142 0 -219 76.5t-77 238.5v425h122v-416q0 -104 42.5 -157.5t131.5 -53.5q94 0 136 53.5t42 157.5v416h121v-425q0 -93 -29.5 -158.5t-81.5 -102.5q-30 -22 -60.5 -34.5
t-55.5 -30.5q-27 -18 -44.5 -40.5t-17.5 -54.5q0 -23 16 -35t44 -12q10 0 19 1t19 3z" />
    <glyph glyph-name="Uring" unicode="&#x16e;" horiz-adv-x="737" 
d="M545 730h121v-425q0 -79 -21.5 -138.5t-60.5 -98.5t-94.5 -58.5t-122.5 -19.5q-142 0 -219 76.5t-77 238.5v425h122v-416q0 -104 42.5 -157.5t131.5 -53.5q94 0 136 53.5t42 157.5v416zM369 761q-52 0 -87 34t-35 85t34.5 85.5t87.5 34.5q51 0 86 -34.5t35 -85.5t-35 -85
t-86 -34zM369 814q29 0 45.5 18t16.5 49q0 30 -17 47.5t-46 17.5q-28 0 -45 -18t-17 -47q0 -31 17.5 -49t45.5 -18z" />
    <glyph glyph-name="Utilde" unicode="&#x168;" horiz-adv-x="737" 
d="M545 730h121v-425q0 -79 -21.5 -138.5t-60.5 -98.5t-94.5 -58.5t-122.5 -19.5q-142 0 -219 76.5t-77 238.5v425h122v-416q0 -104 42.5 -157.5t131.5 -53.5q94 0 136 53.5t42 157.5v416zM310 864q-16 0 -25 -11.5t-9 -40.5v-15.5t1 -13.5l-71 10q-1 4 -1 7v6
q0 66 27.5 99.5t67.5 33.5q25 0 46 -12.5t38.5 -27.5t33.5 -27.5t32 -12.5q14 0 22.5 11t8.5 41v14.5t-1 13.5l71 -9q1 -4 1 -7v-7q0 -66 -27 -99.5t-67 -33.5q-25 0 -45.5 12.5t-38 28t-33.5 28t-31 12.5z" />
    <glyph glyph-name="Wacute" unicode="&#x1e82;" horiz-adv-x="1038" 
d="M491 530l-148 -530h-135l-179 730h134l114 -505l18 -88l17 88l142 505h116l137 -505l19 -94l19 94l132 505h132l-199 -730h-146l-147 530l-13 69zM478 771l-39 54l208 156l50 -69z" />
    <glyph glyph-name="Wcircumflex" unicode="&#x174;" horiz-adv-x="1038" 
d="M491 530l-148 -530h-135l-179 730h134l114 -505l18 -88l17 88l142 505h116l137 -505l19 -94l19 94l132 505h132l-199 -730h-146l-147 530l-13 69zM485 963h50l159 -150l-52 -47l-133 126l-135 -126l-47 47z" />
    <glyph glyph-name="Wdieresis" unicode="&#x1e84;" horiz-adv-x="1038" 
d="M491 530l-148 -530h-135l-179 730h134l114 -505l18 -88l17 88l142 505h116l137 -505l19 -94l19 94l132 505h132l-199 -730h-146l-147 530l-13 69zM333 848q0 32 18.5 52.5t53.5 20.5q34 0 53 -20.5t19 -52.5q0 -31 -19 -50.5t-53 -19.5q-35 0 -53.5 19.5t-18.5 50.5z
M547 848q0 32 18.5 52.5t53.5 20.5q33 0 52 -20.5t19 -52.5q0 -31 -19 -50.5t-52 -19.5q-35 0 -53.5 19.5t-18.5 50.5z" />
    <glyph glyph-name="Wgrave" unicode="&#x1e80;" horiz-adv-x="1038" 
d="M491 530l-148 -530h-135l-179 730h134l114 -505l18 -88l17 88l142 505h116l137 -505l19 -94l19 94l132 505h132l-199 -730h-146l-147 530l-13 69zM566 771l-219 141l51 69l207 -156z" />
    <glyph glyph-name="Yacute" unicode="&#xdd;" horiz-adv-x="654" 
d="M652 730l-267 -470v-260h-121v260l-261 470h136l164 -308l24 -56l26 56l165 308h134zM287 756l-39 54l208 156l50 -69z" />
    <glyph glyph-name="Ycircumflex" unicode="&#x176;" horiz-adv-x="654" 
d="M652 730l-267 -470v-260h-121v260l-261 470h136l164 -308l24 -56l26 56l165 308h134zM308 948h50l159 -150l-52 -47l-133 126l-135 -126l-47 47z" />
    <glyph glyph-name="Ydieresis" unicode="&#x178;" horiz-adv-x="654" 
d="M652 730l-267 -470v-260h-121v260l-261 470h136l164 -308l24 -56l26 56l165 308h134zM155 833q0 32 18.5 52.5t53.5 20.5q34 0 53 -20.5t19 -52.5q0 -31 -19 -50.5t-53 -19.5q-35 0 -53.5 19.5t-18.5 50.5zM369 833q0 32 18.5 52.5t53.5 20.5q33 0 52 -20.5t19 -52.5
q0 -31 -19 -50.5t-52 -19.5q-35 0 -53.5 19.5t-18.5 50.5z" />
    <glyph glyph-name="Ygrave" unicode="&#x1ef2;" horiz-adv-x="654" 
d="M652 730l-267 -470v-260h-121v260l-261 470h136l164 -308l24 -56l26 56l165 308h134zM384 756l-219 141l51 69l207 -156z" />
    <glyph glyph-name="IJ" unicode="&#x132;" horiz-adv-x="651" 
d="M460 730h122v-466q0 -124 -61 -199t-180 -75q-102 0 -170 43t-106 114l111 71q25 -60 65 -91t93 -31q57 0 91.5 42t34.5 130v462zM191 297h-122v433h122v-433z" />
    <glyph glyph-name="IJacute" horiz-adv-x="651" 
d="M460 730h122v-466q0 -124 -61 -199t-180 -75q-102 0 -170 43t-106 114l111 71q25 -60 65 -91t93 -31q57 0 91.5 42t34.5 130v462zM191 297h-122v433h122v-433zM91 771l-39 54l208 156l50 -69zM481 771l-39 54l208 156l50 -69z" />
    <glyph glyph-name="Zacute" unicode="&#x179;" horiz-adv-x="651" 
d="M40 101l375 452l62 69h-422v108h548v-102l-348 -423l-87 -98h439v-107h-567v101zM286 771l-39 54l208 156l50 -69z" />
    <glyph glyph-name="Zcaron" unicode="&#x17d;" horiz-adv-x="651" 
d="M40 101l375 452l62 69h-422v108h548v-102l-348 -423l-87 -98h439v-107h-567v101zM353 776h-50l-160 149l52 48l133 -127l136 126l46 -47z" />
    <glyph glyph-name="Zdotaccent" unicode="&#x17b;" horiz-adv-x="651" 
d="M40 101l375 452l62 69h-422v108h548v-102l-348 -423l-87 -98h439v-107h-567v101zM255 857q0 33 19 54t56 21q34 0 53.5 -21t19.5 -54q0 -32 -19.5 -52.5t-53.5 -20.5q-37 0 -56 20.5t-19 52.5z" />
    <glyph glyph-name="Thorn" unicode="&#xde;" horiz-adv-x="685" 
d="M79 730h122v-137h162q139 0 212.5 -58t73.5 -165q0 -105 -73.5 -166t-212.5 -61h-162v-143h-122v730zM365 499h-166v-261h166q86 0 123 36.5t37 95.5q0 60 -37 94.5t-123 34.5z" />
    <glyph glyph-name="a" unicode="a" horiz-adv-x="656" 
d="M217 -10q-84 0 -130 38t-46 102q0 48 19.5 78t51.5 50q30 19 73 31.5t115 27.5q75 16 104.5 32.5t29.5 47.5t-26 54.5t-89 23.5q-61 0 -99 -30t-57 -84l-109 35q35 87 106 131t164 44q104 0 165 -51t61 -149v-212q0 -43 14 -58.5t42 -15.5q11 0 21 2t19 6v-81
q-14 -8 -36 -14.5t-48 -6.5q-67 0 -97 34t-30 110q-26 -68 -84.5 -106.5t-133.5 -38.5zM263 81q37 0 69 15t55.5 40t37 58.5t13.5 68.5v40q-13 -17 -42.5 -29t-84.5 -24q-75 -16 -111.5 -36.5t-36.5 -63.5q0 -33 25.5 -51t74.5 -18z" />
    <glyph glyph-name="a.alt" 
d="M217 -10q-84 0 -130 38t-46 102q0 48 19.5 78t52.5 50q29 19 72 31.5t115 27.5q75 16 104 32.5t29 47.5t-26 54.5t-89 23.5q-60 0 -98 -30t-57 -84l-109 35q35 87 106 131t164 44q105 0 165.5 -51t60.5 -149v-371h-115v130q-27 -66 -85.5 -103t-132.5 -37zM263 81
q37 0 68.5 15t55 39.5t37 57t14.5 67.5v43q-13 -17 -42.5 -29t-84.5 -24q-75 -16 -111.5 -36.5t-36.5 -63.5q0 -33 25.5 -51t74.5 -18z" />
    <glyph glyph-name="b" unicode="b" horiz-adv-x="682" 
d="M637 284q0 -70 -19.5 -124.5t-53 -91.5t-78.5 -56t-95 -19q-69 0 -118 33.5t-76 90.5v-117h-120v796h121v-355q29 63 82.5 94.5t119.5 31.5q48 0 91 -17t75.5 -51.5t51.5 -88.5t19 -126zM354 93q80 0 120 51.5t40 136.5q0 88 -41.5 138.5t-120.5 50.5q-41 0 -72 -14.5
t-51.5 -40t-30.5 -60.5t-10 -75q0 -81 39.5 -134t126.5 -53z" />
    <glyph glyph-name="c" unicode="c" horiz-adv-x="632" 
d="M597 363l-124 -27q-10 59 -43.5 96.5t-101.5 37.5q-80 0 -120 -54t-40 -136q0 -83 38 -135t122 -52q67 0 100.5 36t46.5 98l123 -26q-21 -91 -88 -151t-182 -60q-69 0 -122.5 22t-89 60.5t-53.5 92t-18 115.5t19.5 115t56.5 92t90 61.5t120 22.5q122 0 183 -59t83 -149z
" />
    <glyph glyph-name="d" unicode="d" horiz-adv-x="682" 
d="M45 277q0 72 21.5 126.5t56.5 90.5t80.5 54.5t93.5 18.5q69 0 115.5 -30t72.5 -89v348h121v-796h-121v121q-28 -61 -79 -94.5t-119 -33.5q-50 0 -94 18t-77 53t-52 88.5t-19 124.5zM330 93q84 0 124 53.5t40 134.5t-39 135t-124 54q-78 0 -120 -52.5t-42 -138.5
q0 -87 40.5 -136.5t120.5 -49.5z" />
    <glyph glyph-name="e" unicode="e" horiz-adv-x="641" 
d="M586 124q-35 -57 -96 -95.5t-154 -38.5q-72 0 -127 22t-91 60t-54.5 91t-18.5 114q0 59 20 113t56.5 94t90 63.5t120.5 23.5q68 0 118.5 -23t83.5 -61t49.5 -89.5t16.5 -108.5v-42h-437q7 -72 50 -114t121 -42q56 0 91 23t60 66zM331 471q-71 0 -114 -39.5t-53 -108.5
h317q-4 64 -39.5 106t-110.5 42z" />
    <glyph glyph-name="f" unicode="f" horiz-adv-x="443" 
d="M139 0v460h-121v100h121v47q0 107 48 148t138 41h90v-96h-87q-43 0 -58.5 -19.5t-15.5 -67.5v-53h162v-100h-162v-460h-115z" />
    <glyph glyph-name="g" unicode="g" horiz-adv-x="682" 
d="M288 -4q-50 0 -94 17.5t-77 53t-52.5 88.5t-19.5 123q0 72 21.5 126t56 90.5t80 54.5t93.5 18q70 0 117.5 -31t72.5 -91v115h121v-497q0 -154 -78 -230t-213 -76q-93 0 -158.5 33.5t-103.5 95.5l110 63q27 -43 63.5 -64.5t96.5 -21.5q75 0 118 46t43 145v68
q-28 -60 -78.5 -93t-118.5 -33zM332 96q84 0 123 53t39 132q0 81 -39 135t-124 54q-78 0 -120 -52.5t-42 -136.5q0 -87 41.5 -136t121.5 -49z" />
    <glyph glyph-name="g.alt" horiz-adv-x="631" 
d="M38 353q0 96 75 157t209 61q66 0 94.5 31.5t33.5 100.5l142 -37q-10 -45 -46 -69.5t-105 -35.5l-38 -6q84 -16 136 -67.5t52 -132.5q0 -44 -17.5 -82t-52.5 -66t-89 -44t-127 -16q-72 0 -107 -7t-35 -29q0 -18 24.5 -26t75.5 -8h210q83 0 123 -35.5t40 -86.5
q0 -84 -84 -134.5t-248 -50.5q-63 0 -117.5 7.5t-93.5 23.5t-61 41t-22 59q0 39 37 66t103 37q-55 7 -77.5 26.5t-22.5 45.5q0 31 30 55t112 31q-81 22 -117.5 74t-36.5 117zM315 235q78 0 117 34t39 86q0 57 -40 89.5t-116 32.5q-77 0 -117 -36t-40 -87q0 -54 39.5 -86.5
t117.5 -32.5zM328 -127q87 0 139.5 20.5t52.5 57.5q0 27 -25 36t-67 9h-159q-70 0 -106 -13.5t-36 -42.5q0 -34 54 -50.5t147 -16.5z" />
    <glyph glyph-name="g.alt2" horiz-adv-x="631" 
d="M38 353q0 96 75 157t209 61q72 0 125.5 16.5t98.5 62.5l82 -60q-21 -24 -54.5 -35t-76.5 -12q-14 0 -29 1.5t-30 2.5q69 -22 111 -71t42 -121q0 -44 -17.5 -82t-52.5 -66t-89 -44t-127 -16q-72 0 -107 -7t-35 -29q0 -18 24.5 -26t75.5 -8h210q83 0 123 -35.5t40 -86.5
q0 -84 -84 -134.5t-248 -50.5q-63 0 -117.5 7.5t-93.5 23.5t-61 41t-22 59q0 39 37 66t103 37q-55 7 -77.5 26.5t-22.5 45.5q0 31 30.5 55t114.5 32q-82 21 -119.5 72.5t-37.5 117.5zM315 235q78 0 117 34t39 86q0 57 -40 89.5t-116 32.5q-77 0 -117 -36t-40 -87
q0 -54 39.5 -86.5t117.5 -32.5zM328 -127q87 0 139.5 20.5t52.5 57.5q0 27 -25 36t-67 9h-159q-70 0 -106 -13.5t-36 -42.5q0 -34 54 -50.5t147 -16.5z" />
    <glyph glyph-name="h" unicode="h" horiz-adv-x="672" 
d="M77 0v796h120v-370q28 72 80 108.5t121 36.5q97 0 150 -63.5t53 -165.5v-342h-121v311q0 72 -30.5 115.5t-103.5 43.5q-68 0 -108 -51t-40 -143v-276h-121z" />
    <glyph glyph-name="i" unicode="i" horiz-adv-x="275" 
d="M61 723q0 35 20.5 57.5t58.5 22.5q37 0 58 -22.5t21 -57.5q0 -34 -21 -56t-58 -22q-38 0 -58.5 22t-20.5 56zM198 560v-560h-122v560h122z" />
    <glyph glyph-name="j" unicode="j" horiz-adv-x="275" 
d="M61 723q0 35 20.5 57.5t58.5 22.5q37 0 58 -22.5t21 -57.5q0 -34 -21 -56t-58 -22q-38 0 -58.5 22t-20.5 56zM-36 -216v110h16q54 0 75.5 23t21.5 81v562h122v-550q0 -58 -9.5 -101t-33.5 -70.5t-66 -41t-105 -13.5h-21z" />
    <glyph glyph-name="k" unicode="k" horiz-adv-x="615" 
d="M198 796v-552l262 316h141l-212 -249l225 -311h-144l-180 261l-92 -106v-155h-121v796h121z" />
    <glyph glyph-name="l" unicode="l" horiz-adv-x="274" 
d="M198 796v-796h-121v796h121z" />
    <glyph glyph-name="m" unicode="m" horiz-adv-x="1020" 
d="M196 276v-276h-121v560h121v-131q26 71 74 106.5t114 35.5q71 0 116.5 -37.5t61.5 -102.5q28 69 79 104.5t117 35.5q93 0 142.5 -63.5t49.5 -164.5v-343h-121v312q0 72 -25.5 115t-94.5 43q-66 0 -101 -50t-35 -142v-278h-121v313q0 72 -25.5 114.5t-94.5 42.5
q-66 0 -101 -51t-35 -143z" />
    <glyph glyph-name="n" unicode="n" horiz-adv-x="670" 
d="M75 0v560h121v-133q28 72 79 108t120 36q97 0 151 -63.5t54 -165.5v-342h-122v311q0 72 -30.5 115.5t-104.5 43.5q-67 0 -107 -51t-40 -143v-276h-121z" />
    <glyph glyph-name="o" unicode="o" horiz-adv-x="663" 
d="M332 -10q-69 0 -123 22t-90 60.5t-55 92t-19 115.5t19.5 115t56.5 92t90.5 61.5t120.5 22.5q68 0 121.5 -22.5t90 -61.5t55.5 -92.5t19 -114.5q0 -60 -19.5 -113.5t-56.5 -92.5t-90 -61.5t-120 -22.5zM332 93q84 0 123 52.5t39 134.5q0 84 -39 137t-123 53
q-82 0 -122.5 -54t-40.5 -136q0 -83 38.5 -135t124.5 -52z" />
    <glyph glyph-name="p" unicode="p" horiz-adv-x="682" 
d="M637 284q0 -70 -19.5 -124.5t-53 -91.5t-78.5 -56t-96 -19q-69 0 -118 33.5t-76 90.5v-333h-121v776h121v-122q29 65 83 97t121 32q48 0 91 -17t75.5 -51.5t51.5 -88.5t19 -126zM353 93q80 0 120 51.5t40 136.5q0 88 -41.5 138.5t-120.5 50.5q-41 0 -72 -14.5t-51 -40
t-30 -60.5t-10 -75q0 -81 39 -134t126 -53z" />
    <glyph glyph-name="q" unicode="q" horiz-adv-x="680" 
d="M45 277q0 72 21.5 126.5t56 90.5t80 54.5t93.5 18.5q69 0 116 -30.5t73 -90.5v114h120v-776h-121v333q-28 -60 -79 -92t-119 -32q-50 0 -94 18t-76.5 53t-51.5 88.5t-19 124.5zM330 93q84 0 124 53.5t40 134.5t-39.5 135t-124.5 54q-78 0 -120 -52.5t-42 -138.5
q0 -87 41 -136.5t121 -49.5z" />
    <glyph glyph-name="r" unicode="r" horiz-adv-x="464" 
d="M351 568q31 0 54.5 -6t42.5 -16l-34 -111q-20 13 -43.5 19t-51.5 6q-52 0 -87.5 -44t-35.5 -132v-284h-121v560h121v-135q19 73 56.5 108t98.5 35z" />
    <glyph glyph-name="s" unicode="s" horiz-adv-x="562" 
d="M21 100l88 83q34 -46 79 -69.5t107 -23.5q59 0 85.5 24t26.5 54q0 22 -15 34.5t-41 20.5t-60.5 13.5t-72.5 11.5q-76 12 -126 43.5t-50 106.5q0 73 59 124t163 51q85 0 148 -27.5t113 -87.5l-93 -79q-32 46 -74.5 69t-100.5 23t-83.5 -22.5t-25.5 -51.5q0 -38 44.5 -51.5
t115.5 -23.5q41 -6 78.5 -15t66 -26t45.5 -44t17 -69q0 -77 -59.5 -128.5t-163.5 -51.5q-95 0 -162.5 30.5t-108.5 81.5z" />
    <glyph glyph-name="t" unicode="t" horiz-adv-x="458" 
d="M418 110v-98q-22 -10 -46.5 -16t-55.5 -6q-90 0 -130 47.5t-40 140.5v282h-128v100h129v143l113 68v-211h158v-100h-158v-268q0 -54 21.5 -76t62.5 -22q22 0 38.5 4t35.5 12z" />
    <glyph glyph-name="u" unicode="u" horiz-adv-x="657" 
d="M582 560v-560h-121v133q-28 -72 -78.5 -108t-114.5 -36q-101 0 -151 63t-50 165v343h121v-310q0 -72 29 -115.5t101 -43.5q65 0 103.5 52.5t38.5 142.5v274h122z" />
    <glyph glyph-name="v" unicode="v" horiz-adv-x="601" 
d="M361 0h-127l-226 560h126l139 -366l27 -85l27 85l144 366h122z" />
    <glyph glyph-name="w" unicode="w" horiz-adv-x="881" 
d="M425 389l-114 -389h-150l-142 560h125l96 -412l12 -73l16 73l122 412h98l119 -411l14 -76l13 75l105 412h123l-156 -560h-145l-109 390l-14 60z" />
    <glyph glyph-name="x" unicode="x" horiz-adv-x="587" 
d="M4 0l219 288l-206 272h137l142 -193l142 193h134l-207 -272l218 -288h-134l-155 209l-154 -209h-136z" />
    <glyph glyph-name="y" unicode="y" horiz-adv-x="601" 
d="M596 560l-330 -776h-126l99 225l-234 551h125l149 -360l23 -74l25 74l146 360h123z" />
    <glyph glyph-name="z" unicode="z" horiz-adv-x="566" 
d="M519 459l-354 -354h359v-105h-483v102l353 353h-347v105h472v-101z" />
    <glyph glyph-name="aacute" unicode="&#xe1;" horiz-adv-x="656" 
d="M217 -10q-84 0 -130 38t-46 102q0 48 19.5 78t51.5 50q30 19 73 31.5t115 27.5q75 16 104.5 32.5t29.5 47.5t-26 54.5t-89 23.5q-61 0 -99 -30t-57 -84l-109 35q35 87 106 131t164 44q104 0 165 -51t61 -149v-212q0 -43 14 -58.5t42 -15.5q11 0 21 2t19 6v-81
q-14 -8 -36 -14.5t-48 -6.5q-67 0 -97 34t-30 110q-26 -68 -84.5 -106.5t-133.5 -38.5zM263 81q37 0 69 15t55.5 40t37 58.5t13.5 68.5v40q-13 -17 -42.5 -29t-84.5 -24q-75 -16 -111.5 -36.5t-36.5 -63.5q0 -33 25.5 -51t74.5 -18zM291 612l-46 45l165 181l60 -56z" />
    <glyph glyph-name="abreve" unicode="&#x103;" horiz-adv-x="656" 
d="M217 -10q-84 0 -130 38t-46 102q0 48 19.5 78t51.5 50q30 19 73 31.5t115 27.5q75 16 104.5 32.5t29.5 47.5t-26 54.5t-89 23.5q-61 0 -99 -30t-57 -84l-109 35q35 87 106 131t164 44q104 0 165 -51t61 -149v-212q0 -43 14 -58.5t42 -15.5q11 0 21 2t19 6v-81
q-14 -8 -36 -14.5t-48 -6.5q-67 0 -97 34t-30 110q-26 -68 -84.5 -106.5t-133.5 -38.5zM263 81q37 0 69 15t55.5 40t37 58.5t13.5 68.5v40q-13 -17 -42.5 -29t-84.5 -24q-75 -16 -111.5 -36.5t-36.5 -63.5q0 -33 25.5 -51t74.5 -18zM321 703q44 0 68 26t25 80l73 -16
q-1 -68 -43 -115t-126 -47q-88 0 -131 47t-43 115l76 16q1 -55 28 -80.5t73 -25.5z" />
    <glyph glyph-name="acircumflex" unicode="&#xe2;" horiz-adv-x="656" 
d="M217 -10q-84 0 -130 38t-46 102q0 48 19.5 78t51.5 50q30 19 73 31.5t115 27.5q75 16 104.5 32.5t29.5 47.5t-26 54.5t-89 23.5q-61 0 -99 -30t-57 -84l-109 35q35 87 106 131t164 44q104 0 165 -51t61 -149v-212q0 -43 14 -58.5t42 -15.5q11 0 21 2t19 6v-81
q-14 -8 -36 -14.5t-48 -6.5q-67 0 -97 34t-30 110q-26 -68 -84.5 -106.5t-133.5 -38.5zM263 81q37 0 69 15t55.5 40t37 58.5t13.5 68.5v40q-13 -17 -42.5 -29t-84.5 -24q-75 -16 -111.5 -36.5t-36.5 -63.5q0 -33 25.5 -51t74.5 -18zM417 609l-104 123l-108 -123l-54 47
l138 151h50l137 -151z" />
    <glyph glyph-name="adieresis" unicode="&#xe4;" horiz-adv-x="656" 
d="M217 -10q-84 0 -130 38t-46 102q0 48 19.5 78t51.5 50q30 19 73 31.5t115 27.5q75 16 104.5 32.5t29.5 47.5t-26 54.5t-89 23.5q-61 0 -99 -30t-57 -84l-109 35q35 87 106 131t164 44q104 0 165 -51t61 -149v-212q0 -43 14 -58.5t42 -15.5q11 0 21 2t19 6v-81
q-14 -8 -36 -14.5t-48 -6.5q-67 0 -97 34t-30 110q-26 -68 -84.5 -106.5t-133.5 -38.5zM263 81q37 0 69 15t55.5 40t37 58.5t13.5 68.5v40q-13 -17 -42.5 -29t-84.5 -24q-75 -16 -111.5 -36.5t-36.5 -63.5q0 -33 25.5 -51t74.5 -18zM128 700q0 34 20 56t57 22q35 0 55 -22
t20 -56q0 -33 -20 -54t-55 -21q-37 0 -57 21t-20 54zM346 700q0 34 19.5 56t56.5 22q35 0 55.5 -22t20.5 -56q0 -33 -20.5 -54t-55.5 -21q-37 0 -56.5 21t-19.5 54z" />
    <glyph glyph-name="agrave" unicode="&#xe0;" horiz-adv-x="656" 
d="M217 -10q-84 0 -130 38t-46 102q0 48 19.5 78t51.5 50q30 19 73 31.5t115 27.5q75 16 104.5 32.5t29.5 47.5t-26 54.5t-89 23.5q-61 0 -99 -30t-57 -84l-109 35q35 87 106 131t164 44q104 0 165 -51t61 -149v-212q0 -43 14 -58.5t42 -15.5q11 0 21 2t19 6v-81
q-14 -8 -36 -14.5t-48 -6.5q-67 0 -97 34t-30 110q-26 -68 -84.5 -106.5t-133.5 -38.5zM263 81q37 0 69 15t55.5 40t37 58.5t13.5 68.5v40q-13 -17 -42.5 -29t-84.5 -24q-75 -16 -111.5 -36.5t-36.5 -63.5q0 -33 25.5 -51t74.5 -18zM339 612l-178 170l59 56l166 -181z" />
    <glyph glyph-name="amacron" unicode="&#x101;" horiz-adv-x="656" 
d="M217 -10q-84 0 -130 38t-46 102q0 48 19.5 78t51.5 50q30 19 73 31.5t115 27.5q75 16 104.5 32.5t29.5 47.5t-26 54.5t-89 23.5q-61 0 -99 -30t-57 -84l-109 35q35 87 106 131t164 44q104 0 165 -51t61 -149v-212q0 -43 14 -58.5t42 -15.5q11 0 21 2t19 6v-81
q-14 -8 -36 -14.5t-48 -6.5q-67 0 -97 34t-30 110q-26 -68 -84.5 -106.5t-133.5 -38.5zM263 81q37 0 69 15t55.5 40t37 58.5t13.5 68.5v40q-13 -17 -42.5 -29t-84.5 -24q-75 -16 -111.5 -36.5t-36.5 -63.5q0 -33 25.5 -51t74.5 -18zM168 650v72h289v-72h-289z" />
    <glyph glyph-name="aogonek" unicode="&#x105;" horiz-adv-x="656" 
d="M608 -243q-13 -4 -24.5 -5.5t-25.5 -1.5q-54 0 -85.5 24.5t-31.5 68.5t26.5 80.5t72.5 68.5q-55 5 -80 39t-25 104q-26 -68 -84.5 -106.5t-133.5 -38.5q-84 0 -130 38t-46 102q0 48 19.5 78t51.5 50q30 19 73 31.5t115 27.5q75 16 104.5 32.5t29.5 47.5t-26 54.5
t-89 23.5q-61 0 -99 -30t-57 -84l-109 35q35 87 106 131t164 44q104 0 165 -51t61 -149v-212q0 -43 14 -58.5t42 -15.5q11 0 21 2t19 6v-80q-35 -19 -53.5 -32t-29.5 -24q-22 -20 -32.5 -41.5t-10.5 -43.5q0 -23 16 -35t44 -12q10 0 19 1t19 3zM263 81q37 0 69 15t55.5 40
t37 58.5t13.5 68.5v40q-13 -17 -42.5 -29t-84.5 -24q-75 -16 -111.5 -36.5t-36.5 -63.5q0 -33 25.5 -51t74.5 -18z" />
    <glyph glyph-name="aring" unicode="&#xe5;" horiz-adv-x="656" 
d="M217 -10q-84 0 -130 38t-46 102q0 48 19.5 78t51.5 50q30 19 73 31.5t115 27.5q75 16 104.5 32.5t29.5 47.5t-26 54.5t-89 23.5q-61 0 -99 -30t-57 -84l-109 35q35 87 106 131t164 44q104 0 165 -51t61 -149v-212q0 -43 14 -58.5t42 -15.5q11 0 21 2t19 6v-81
q-14 -8 -36 -14.5t-48 -6.5q-67 0 -97 34t-30 110q-26 -68 -84.5 -106.5t-133.5 -38.5zM263 81q37 0 69 15t55.5 40t37 58.5t13.5 68.5v40q-13 -17 -42.5 -29t-84.5 -24q-75 -16 -111.5 -36.5t-36.5 -63.5q0 -33 25.5 -51t74.5 -18zM319 616q-55 0 -91 36t-36 90t36 90.5
t91 36.5q54 0 90.5 -36.5t36.5 -90.5t-36.5 -90t-90.5 -36zM319 673q30 0 48 18.5t18 50.5q0 33 -18 51.5t-49 18.5q-30 0 -47.5 -19t-17.5 -51t18.5 -50.5t47.5 -18.5z" />
    <glyph glyph-name="atilde" unicode="&#xe3;" horiz-adv-x="656" 
d="M217 -10q-84 0 -130 38t-46 102q0 48 19.5 78t51.5 50q30 19 73 31.5t115 27.5q75 16 104.5 32.5t29.5 47.5t-26 54.5t-89 23.5q-61 0 -99 -30t-57 -84l-109 35q35 87 106 131t164 44q104 0 165 -51t61 -149v-212q0 -43 14 -58.5t42 -15.5q11 0 21 2t19 6v-81
q-14 -8 -36 -14.5t-48 -6.5q-67 0 -97 34t-30 110q-26 -68 -84.5 -106.5t-133.5 -38.5zM263 81q37 0 69 15t55.5 40t37 58.5t13.5 68.5v40q-13 -17 -42.5 -29t-84.5 -24q-75 -16 -111.5 -36.5t-36.5 -63.5q0 -33 25.5 -51t74.5 -18zM248 709q-15 0 -24 -12.5t-9 -39.5v-13.5
t1 -12.5l-71 10q-1 5 -1 7.5v5.5q0 64 27.5 98.5t67.5 34.5q25 0 45.5 -12.5t38.5 -27t33.5 -27t31.5 -12.5q15 0 23.5 12.5t8.5 45.5v11.5t-1 9.5l71 -10q1 -4 1 -9v-8q0 -64 -27 -96.5t-67 -32.5q-25 0 -46 12t-38.5 27t-33.5 27t-31 12z" />
    <glyph glyph-name="aacute.alt" 
d="M217 -10q-84 0 -130 38t-46 102q0 48 19.5 78t52.5 50q29 19 72 31.5t115 27.5q75 16 104 32.5t29 47.5t-26 54.5t-89 23.5q-60 0 -98 -30t-57 -84l-109 35q35 87 106 131t164 44q105 0 165.5 -51t60.5 -149v-371h-115v130q-27 -66 -85.5 -103t-132.5 -37zM263 81
q37 0 68.5 15t55 39.5t37 57t14.5 67.5v43q-13 -17 -42.5 -29t-84.5 -24q-75 -16 -111.5 -36.5t-36.5 -63.5q0 -33 25.5 -51t74.5 -18zM291 612l-46 45l165 181l60 -56z" />
    <glyph glyph-name="atilde.alt" 
d="M217 -10q-84 0 -130 38t-46 102q0 48 19.5 78t52.5 50q29 19 72 31.5t115 27.5q75 16 104 32.5t29 47.5t-26 54.5t-89 23.5q-60 0 -98 -30t-57 -84l-109 35q35 87 106 131t164 44q105 0 165.5 -51t60.5 -149v-371h-115v130q-27 -66 -85.5 -103t-132.5 -37zM263 81
q37 0 68.5 15t55 39.5t37 57t14.5 67.5v43q-13 -17 -42.5 -29t-84.5 -24q-75 -16 -111.5 -36.5t-36.5 -63.5q0 -33 25.5 -51t74.5 -18zM250 709q-15 0 -24 -12.5t-9 -39.5v-13.5t1 -12.5l-71 10q-1 5 -1 7.5v5.5q0 64 27.5 98.5t67.5 34.5q25 0 45.5 -12.5t38.5 -27
t33.5 -27t31.5 -12.5q15 0 23.5 12.5t8.5 45.5v11.5t-1 9.5l71 -10q1 -4 1 -9v-8q0 -64 -27 -96.5t-67 -32.5q-25 0 -46 12t-38.5 27t-33.5 27t-31 12z" />
    <glyph glyph-name="acircumflex.alt" 
d="M217 -10q-84 0 -130 38t-46 102q0 48 19.5 78t52.5 50q29 19 72 31.5t115 27.5q75 16 104 32.5t29 47.5t-26 54.5t-89 23.5q-60 0 -98 -30t-57 -84l-109 35q35 87 106 131t164 44q105 0 165.5 -51t60.5 -149v-371h-115v130q-27 -66 -85.5 -103t-132.5 -37zM263 81
q37 0 68.5 15t55 39.5t37 57t14.5 67.5v43q-13 -17 -42.5 -29t-84.5 -24q-75 -16 -111.5 -36.5t-36.5 -63.5q0 -33 25.5 -51t74.5 -18zM417 609l-104 123l-108 -123l-54 47l138 151h50l137 -151z" />
    <glyph glyph-name="abreve.alt" 
d="M217 -10q-84 0 -130 38t-46 102q0 48 19.5 78t52.5 50q29 19 72 31.5t115 27.5q75 16 104 32.5t29 47.5t-26 54.5t-89 23.5q-60 0 -98 -30t-57 -84l-109 35q35 87 106 131t164 44q105 0 165.5 -51t60.5 -149v-371h-115v130q-27 -66 -85.5 -103t-132.5 -37zM263 81
q37 0 68.5 15t55 39.5t37 57t14.5 67.5v43q-13 -17 -42.5 -29t-84.5 -24q-75 -16 -111.5 -36.5t-36.5 -63.5q0 -33 25.5 -51t74.5 -18zM321 703q44 0 68 26t25 80l73 -16q-1 -68 -43 -115t-126 -47q-88 0 -131 47t-43 115l76 16q1 -55 28 -80.5t73 -25.5z" />
    <glyph glyph-name="adieresis.alt" 
d="M217 -10q-84 0 -130 38t-46 102q0 48 19.5 78t52.5 50q29 19 72 31.5t115 27.5q75 16 104 32.5t29 47.5t-26 54.5t-89 23.5q-60 0 -98 -30t-57 -84l-109 35q35 87 106 131t164 44q105 0 165.5 -51t60.5 -149v-371h-115v130q-27 -66 -85.5 -103t-132.5 -37zM263 81
q37 0 68.5 15t55 39.5t37 57t14.5 67.5v43q-13 -17 -42.5 -29t-84.5 -24q-75 -16 -111.5 -36.5t-36.5 -63.5q0 -33 25.5 -51t74.5 -18zM128 700q0 34 20 56t57 22q35 0 55 -22t20 -56q0 -33 -20 -54t-55 -21q-37 0 -57 21t-20 54zM346 700q0 34 19.5 56t56.5 22
q35 0 55.5 -22t20.5 -56q0 -33 -20.5 -54t-55.5 -21q-37 0 -56.5 21t-19.5 54z" />
    <glyph glyph-name="agrave.alt" 
d="M217 -10q-84 0 -130 38t-46 102q0 48 19.5 78t52.5 50q29 19 72 31.5t115 27.5q75 16 104 32.5t29 47.5t-26 54.5t-89 23.5q-60 0 -98 -30t-57 -84l-109 35q35 87 106 131t164 44q105 0 165.5 -51t60.5 -149v-371h-115v130q-27 -66 -85.5 -103t-132.5 -37zM263 81
q37 0 68.5 15t55 39.5t37 57t14.5 67.5v43q-13 -17 -42.5 -29t-84.5 -24q-75 -16 -111.5 -36.5t-36.5 -63.5q0 -33 25.5 -51t74.5 -18zM339 612l-178 170l59 56l166 -181z" />
    <glyph glyph-name="aring.alt" 
d="M217 -10q-84 0 -130 38t-46 102q0 48 19.5 78t52.5 50q29 19 72 31.5t115 27.5q75 16 104 32.5t29 47.5t-26 54.5t-89 23.5q-60 0 -98 -30t-57 -84l-109 35q35 87 106 131t164 44q105 0 165.5 -51t60.5 -149v-371h-115v130q-27 -66 -85.5 -103t-132.5 -37zM263 81
q37 0 68.5 15t55 39.5t37 57t14.5 67.5v43q-13 -17 -42.5 -29t-84.5 -24q-75 -16 -111.5 -36.5t-36.5 -63.5q0 -33 25.5 -51t74.5 -18zM314 616q-55 0 -91 36t-36 90t36 90.5t91 36.5q54 0 90.5 -36.5t36.5 -90.5t-36.5 -90t-90.5 -36zM314 673q30 0 48 18.5t18 50.5
q0 33 -18 51.5t-49 18.5q-30 0 -47.5 -19t-17.5 -51t18.5 -50.5t47.5 -18.5z" />
    <glyph glyph-name="aogonek.alt" 
d="M217 -10q-84 0 -130 38t-46 102q0 48 19.5 78t52.5 50q29 19 72 31.5t115 27.5q75 16 104 32.5t29 47.5t-26 54.5t-89 23.5q-60 0 -98 -30t-57 -84l-109 35q35 87 106 131t164 44q105 0 165.5 -51t60.5 -149v-371q-48 -31 -73 -62.5t-25 -65.5q0 -23 16 -35t44 -12
q10 0 19 1t19 3l-10 -72q-13 -4 -24.5 -5.5t-25.5 -1.5q-54 0 -85.5 24.5t-31.5 68.5q0 47 29.5 85t81.5 72h-49v130q-27 -66 -85.5 -103t-132.5 -37zM263 81q37 0 68.5 15t55 39.5t37 57t14.5 67.5v43q-13 -17 -42.5 -29t-84.5 -24q-75 -16 -111.5 -36.5t-36.5 -63.5
q0 -33 25.5 -51t74.5 -18z" />
    <glyph glyph-name="amacron.alt" 
d="M217 -10q-84 0 -130 38t-46 102q0 48 19.5 78t52.5 50q29 19 72 31.5t115 27.5q75 16 104 32.5t29 47.5t-26 54.5t-89 23.5q-60 0 -98 -30t-57 -84l-109 35q35 87 106 131t164 44q105 0 165.5 -51t60.5 -149v-371h-115v130q-27 -66 -85.5 -103t-132.5 -37zM263 81
q37 0 68.5 15t55 39.5t37 57t14.5 67.5v43q-13 -17 -42.5 -29t-84.5 -24q-75 -16 -111.5 -36.5t-36.5 -63.5q0 -33 25.5 -51t74.5 -18zM168 650v72h289v-72h-289z" />
    <glyph glyph-name="ae" unicode="&#xe6;" horiz-adv-x="996" 
d="M709 -10q-106 0 -165.5 47t-80.5 121q-28 -80 -94 -124.5t-143 -44.5q-91 0 -138 39t-47 103q0 47 19.5 77t51.5 50q29 18 73 31t116 28q73 16 101 32.5t28 47.5t-26 54.5t-86 23.5t-97.5 -30t-56.5 -84l-110 35q35 87 102.5 131t150.5 44q75 0 122.5 -32.5t66.5 -86.5
q27 51 79.5 85t133.5 34q61 0 107 -22.5t76.5 -61t46 -89.5t15.5 -108v-43h-432q7 -72 51 -113t120 -41q51 0 86 20.5t61 66.5l101 -57q-37 -60 -95.5 -96.5t-136.5 -36.5zM690 471q-72 1 -114 -39t-52 -109h312q-4 64 -38.5 106.5t-107.5 41.5zM261 81q38 0 70 15t55 40
t35.5 58t12.5 68v40q-12 -16 -40 -28t-82 -24q-75 -16 -111.5 -35.5t-36.5 -63.5q0 -34 24 -52t73 -18z" />
    <glyph glyph-name="aeacute" unicode="&#x1fd;" horiz-adv-x="994" 
d="M709 -10q-106 0 -165.5 47t-80.5 121q-28 -80 -94 -124.5t-143 -44.5q-91 0 -138 39t-47 103q0 47 19.5 77t51.5 50q29 18 73 31t116 28q73 16 101 32.5t28 47.5t-26 54.5t-86 23.5t-97.5 -30t-56.5 -84l-110 35q35 87 102.5 131t150.5 44q75 0 122.5 -32.5t66.5 -86.5
q27 51 79.5 85t133.5 34q61 0 107 -22.5t76.5 -61t46 -89.5t15.5 -108v-43h-432q7 -72 51 -113t120 -41q51 0 86 20.5t61 66.5l101 -57q-37 -60 -95.5 -96.5t-136.5 -36.5zM690 471q-72 1 -114 -39t-52 -109h312q-4 64 -38.5 106.5t-107.5 41.5zM261 81q38 0 70 15t55 40
t35.5 58t12.5 68v40q-12 -16 -40 -28t-82 -24q-75 -16 -111.5 -35.5t-36.5 -63.5q0 -34 24 -52t73 -18zM490 609l-46 45l165 181l60 -56z" />
    <glyph glyph-name="cacute" unicode="&#x107;" horiz-adv-x="632" 
d="M597 363l-124 -27q-10 59 -43.5 96.5t-101.5 37.5q-80 0 -120 -54t-40 -136q0 -83 38 -135t122 -52q67 0 100.5 36t46.5 98l123 -26q-21 -91 -88 -151t-182 -60q-69 0 -122.5 22t-89 60.5t-53.5 92t-18 115.5t19.5 115t56.5 92t90 61.5t120 22.5q122 0 183 -59t83 -149z
M306 612l-46 45l165 181l60 -56z" />
    <glyph glyph-name="ccaron" unicode="&#x10d;" horiz-adv-x="632" 
d="M597 363l-124 -27q-10 59 -43.5 96.5t-101.5 37.5q-80 0 -120 -54t-40 -136q0 -83 38 -135t122 -52q67 0 100.5 36t46.5 98l123 -26q-21 -91 -88 -151t-182 -60q-69 0 -122.5 22t-89 60.5t-53.5 92t-18 115.5t19.5 115t56.5 92t90 61.5t120 22.5q122 0 183 -59t83 -149z
M222 825l103 -124l108 124l55 -47l-139 -152h-50l-137 152z" />
    <glyph glyph-name="ccedilla" unicode="&#xe7;" horiz-adv-x="632" 
d="M449 -139q0 -47 -35 -77t-99 -30q-37 0 -72 8.5t-60 22.5l30 62q19 -10 43.5 -18.5t54.5 -8.5q31 0 48 12.5t17 31.5q0 20 -16.5 30.5t-47.5 10.5q-20 0 -34 -2.5t-24 -5.5l-18 11l30 87q-54 9 -95.5 34.5t-69.5 62.5t-42 85t-14 103q0 62 19.5 115t56.5 92t90 61.5
t120 22.5q122 0 183 -59t83 -149l-124 -27q-10 59 -43.5 96.5t-101.5 37.5q-80 0 -120 -54t-40 -136q0 -83 38 -135t122 -52q67 0 100.5 36t46.5 98l123 -26q-21 -91 -88 -151t-181 -60l-12 -36q8 1 12.5 1h10.5q54 0 81.5 -27t27.5 -67z" />
    <glyph glyph-name="ccircumflex" unicode="&#x109;" horiz-adv-x="632" 
d="M597 363l-124 -27q-10 59 -43.5 96.5t-101.5 37.5q-80 0 -120 -54t-40 -136q0 -83 38 -135t122 -52q67 0 100.5 36t46.5 98l123 -26q-21 -91 -88 -151t-182 -60q-69 0 -122.5 22t-89 60.5t-53.5 92t-18 115.5t19.5 115t56.5 92t90 61.5t120 22.5q122 0 183 -59t83 -149z
M432 609l-104 123l-108 -123l-54 47l138 151h50l137 -151z" />
    <glyph glyph-name="cdotaccent" unicode="&#x10b;" horiz-adv-x="632" 
d="M597 363l-124 -27q-10 59 -43.5 96.5t-101.5 37.5q-80 0 -120 -54t-40 -136q0 -83 38 -135t122 -52q67 0 100.5 36t46.5 98l123 -26q-21 -91 -88 -151t-182 -60q-69 0 -122.5 22t-89 60.5t-53.5 92t-18 115.5t19.5 115t56.5 92t90 61.5t120 22.5q122 0 183 -59t83 -149z
M251 723q0 35 20.5 57.5t59.5 22.5q37 0 57.5 -22.5t20.5 -57.5q0 -34 -20.5 -56t-57.5 -22q-39 0 -59.5 22t-20.5 56z" />
    <glyph glyph-name="dcaron" unicode="&#x10f;" horiz-adv-x="726" 
d="M45 277q0 72 21.5 126.5t56.5 90.5t80.5 54.5t93.5 18.5q69 0 115.5 -30t72.5 -89v348h121v-796h-121v121q-28 -61 -79 -94.5t-119 -33.5q-50 0 -94 18t-77 53t-52 88.5t-19 124.5zM330 93q84 0 124 53.5t40 134.5t-39 135t-124 54q-78 0 -120 -52.5t-42 -138.5
q0 -87 40.5 -136.5t120.5 -49.5zM763 807q6 -19 8.5 -39t2.5 -39q0 -49 -12 -92t-34 -86l-61 21q13 31 19.5 60t6.5 59q0 26 -5 48.5t-13 50.5z" />
    <glyph glyph-name="dcroat" unicode="&#x111;" horiz-adv-x="690" 
d="M45 277q0 72 21.5 126.5t56.5 90.5t80.5 54.5t93.5 18.5q69 0 115.5 -30t72.5 -89v181h-134v71h134v96h121v-96h93v-71h-93v-629h-121v121q-28 -61 -79 -94.5t-119 -33.5q-50 0 -94 18t-77 53t-52 88.5t-19 124.5zM330 93q84 0 124 53.5t40 134.5t-39 135t-124 54
q-78 0 -120 -52.5t-42 -138.5q0 -87 40.5 -136.5t120.5 -49.5z" />
    <glyph glyph-name="eth" unicode="&#xf0;" horiz-adv-x="672" 
d="M620 327q0 -72 -20 -134t-58 -107.5t-95.5 -71.5t-131.5 -26q-66 0 -118 20t-86.5 53.5t-52.5 79.5t-18 97q0 58 20 104t54 78t78 48.5t92 16.5q75 0 130 -33t89 -86q-9 77 -41.5 134.5t-83.5 97.5l-101 -80l-45 49l87 70q-31 18 -67.5 32.5t-76.5 25.5l55 109
q53 -17 101.5 -41t90.5 -54l79 62l45 -49l-71 -57q67 -63 106 -148.5t39 -189.5zM158 245q0 -64 42.5 -105.5t121.5 -42.5q73 1 117 41.5t59 107.5q-4 27 -19 54.5t-38.5 49.5t-56 36t-71.5 14q-69 0 -112 -41t-43 -114z" />
    <glyph glyph-name="eacute" unicode="&#xe9;" horiz-adv-x="641" 
d="M586 124q-35 -57 -96 -95.5t-154 -38.5q-72 0 -127 22t-91 60t-54.5 91t-18.5 114q0 59 20 113t56.5 94t90 63.5t120.5 23.5q68 0 118.5 -23t83.5 -61t49.5 -89.5t16.5 -108.5v-42h-437q7 -72 50 -114t121 -42q56 0 91 23t60 66zM331 471q-71 0 -114 -39.5t-53 -108.5
h317q-4 64 -39.5 106t-110.5 42zM315 612l-46 45l165 181l60 -56z" />
    <glyph glyph-name="ebreve" unicode="&#x115;" horiz-adv-x="641" 
d="M586 124q-35 -57 -96 -95.5t-154 -38.5q-72 0 -127 22t-91 60t-54.5 91t-18.5 114q0 59 20 113t56.5 94t90 63.5t120.5 23.5q68 0 118.5 -23t83.5 -61t49.5 -89.5t16.5 -108.5v-42h-437q7 -72 50 -114t121 -42q56 0 91 23t60 66zM331 471q-71 0 -114 -39.5t-53 -108.5
h317q-4 64 -39.5 106t-110.5 42zM345 703q44 0 68 26t25 80l73 -16q-1 -68 -43 -115t-126 -47q-88 0 -131 47t-43 115l76 16q1 -55 28 -80.5t73 -25.5z" />
    <glyph glyph-name="ecaron" unicode="&#x11b;" horiz-adv-x="641" 
d="M586 124q-35 -57 -96 -95.5t-154 -38.5q-72 0 -127 22t-91 60t-54.5 91t-18.5 114q0 59 20 113t56.5 94t90 63.5t120.5 23.5q68 0 118.5 -23t83.5 -61t49.5 -89.5t16.5 -108.5v-42h-437q7 -72 50 -114t121 -42q56 0 91 23t60 66zM331 471q-71 0 -114 -39.5t-53 -108.5
h317q-4 64 -39.5 106t-110.5 42zM230 825l103 -124l108 124l55 -47l-139 -152h-50l-137 152z" />
    <glyph glyph-name="ecircumflex" unicode="&#xea;" horiz-adv-x="641" 
d="M586 124q-35 -57 -96 -95.5t-154 -38.5q-72 0 -127 22t-91 60t-54.5 91t-18.5 114q0 59 20 113t56.5 94t90 63.5t120.5 23.5q68 0 118.5 -23t83.5 -61t49.5 -89.5t16.5 -108.5v-42h-437q7 -72 50 -114t121 -42q56 0 91 23t60 66zM331 471q-71 0 -114 -39.5t-53 -108.5
h317q-4 64 -39.5 106t-110.5 42zM441 609l-104 123l-108 -123l-54 47l138 151h50l137 -151z" />
    <glyph glyph-name="edieresis" unicode="&#xeb;" horiz-adv-x="641" 
d="M586 124q-35 -57 -96 -95.5t-154 -38.5q-72 0 -127 22t-91 60t-54.5 91t-18.5 114q0 59 20 113t56.5 94t90 63.5t120.5 23.5q68 0 118.5 -23t83.5 -61t49.5 -89.5t16.5 -108.5v-42h-437q7 -72 50 -114t121 -42q56 0 91 23t60 66zM331 471q-71 0 -114 -39.5t-53 -108.5
h317q-4 64 -39.5 106t-110.5 42zM152 700q0 34 20 56t57 22q35 0 55 -22t20 -56q0 -33 -20 -54t-55 -21q-37 0 -57 21t-20 54zM370 700q0 34 19.5 56t56.5 22q35 0 55.5 -22t20.5 -56q0 -33 -20.5 -54t-55.5 -21q-37 0 -56.5 21t-19.5 54z" />
    <glyph glyph-name="edotaccent" unicode="&#x117;" horiz-adv-x="641" 
d="M586 124q-35 -57 -96 -95.5t-154 -38.5q-72 0 -127 22t-91 60t-54.5 91t-18.5 114q0 59 20 113t56.5 94t90 63.5t120.5 23.5q68 0 118.5 -23t83.5 -61t49.5 -89.5t16.5 -108.5v-42h-437q7 -72 50 -114t121 -42q56 0 91 23t60 66zM331 471q-71 0 -114 -39.5t-53 -108.5
h317q-4 64 -39.5 106t-110.5 42zM259 723q0 35 20.5 57.5t59.5 22.5q37 0 57.5 -22.5t20.5 -57.5q0 -34 -20.5 -56t-57.5 -22q-39 0 -59.5 22t-20.5 56z" />
    <glyph glyph-name="egrave" unicode="&#xe8;" horiz-adv-x="641" 
d="M586 124q-35 -57 -96 -95.5t-154 -38.5q-72 0 -127 22t-91 60t-54.5 91t-18.5 114q0 59 20 113t56.5 94t90 63.5t120.5 23.5q68 0 118.5 -23t83.5 -61t49.5 -89.5t16.5 -108.5v-42h-437q7 -72 50 -114t121 -42q56 0 91 23t60 66zM331 471q-71 0 -114 -39.5t-53 -108.5
h317q-4 64 -39.5 106t-110.5 42zM363 612l-178 170l59 56l166 -181z" />
    <glyph glyph-name="emacron" unicode="&#x113;" horiz-adv-x="641" 
d="M586 124q-35 -57 -96 -95.5t-154 -38.5q-72 0 -127 22t-91 60t-54.5 91t-18.5 114q0 59 20 113t56.5 94t90 63.5t120.5 23.5q68 0 118.5 -23t83.5 -61t49.5 -89.5t16.5 -108.5v-42h-437q7 -72 50 -114t121 -42q56 0 91 23t60 66zM331 471q-71 0 -114 -39.5t-53 -108.5
h317q-4 64 -39.5 106t-110.5 42zM192 650v72h289v-72h-289z" />
    <glyph glyph-name="eogonek" unicode="&#x119;" horiz-adv-x="641" 
d="M526 -209q-13 -4 -24.5 -5.5t-25.5 -1.5q-54 0 -85.5 24.5t-31.5 68.5q0 34 16 63.5t44 59.5q-19 -4 -40 -7t-43 -3q-72 0 -127 22t-91 60t-54.5 91t-18.5 114q0 59 20 113t56.5 94t90 63.5t120.5 23.5q68 0 118.5 -23t83.5 -61t49.5 -89.5t16.5 -108.5v-42h-437
q7 -72 50 -114t121 -42q56 0 91 23t60 66l101 -56q-19 -32 -46 -59.5t-46 -49.5q-29 -34 -42.5 -59t-13.5 -50q0 -23 16 -35t44 -12q10 0 19 1t19 3zM331 471q-71 0 -114 -39.5t-53 -108.5h317q-4 64 -39.5 106t-110.5 42z" />
    <glyph glyph-name="gbreve" unicode="&#x11f;" horiz-adv-x="682" 
d="M288 -4q-50 0 -94 17.5t-77 53t-52.5 88.5t-19.5 123q0 72 21.5 126t56 90.5t80 54.5t93.5 18q70 0 117.5 -31t72.5 -91v115h121v-497q0 -154 -78 -230t-213 -76q-93 0 -158.5 33.5t-103.5 95.5l110 63q27 -43 63.5 -64.5t96.5 -21.5q75 0 118 46t43 145v68
q-28 -60 -78.5 -93t-118.5 -33zM332 96q84 0 123 53t39 132q0 81 -39 135t-124 54q-78 0 -120 -52.5t-42 -136.5q0 -87 41.5 -136t121.5 -49zM358 703q44 0 68 26t25 80l73 -16q-1 -68 -43 -115t-126 -47q-88 0 -131 47t-43 115l76 16q1 -55 28 -80.5t73 -25.5z" />
    <glyph glyph-name="gcircumflex" unicode="&#x11d;" horiz-adv-x="682" 
d="M288 -4q-50 0 -94 17.5t-77 53t-52.5 88.5t-19.5 123q0 72 21.5 126t56 90.5t80 54.5t93.5 18q70 0 117.5 -31t72.5 -91v115h121v-497q0 -154 -78 -230t-213 -76q-93 0 -158.5 33.5t-103.5 95.5l110 63q27 -43 63.5 -64.5t96.5 -21.5q75 0 118 46t43 145v68
q-28 -60 -78.5 -93t-118.5 -33zM332 96q84 0 123 53t39 132q0 81 -39 135t-124 54q-78 0 -120 -52.5t-42 -136.5q0 -87 41.5 -136t121.5 -49zM455 609l-104 123l-108 -123l-54 47l138 151h50l137 -151z" />
    <glyph glyph-name="gcommaaccent" unicode="&#x123;" horiz-adv-x="682" 
d="M288 -4q-50 0 -94 17.5t-77 53t-52.5 88.5t-19.5 123q0 72 21.5 126t56 90.5t80 54.5t93.5 18q70 0 117.5 -31t72.5 -91v115h121v-497q0 -154 -78 -230t-213 -76q-93 0 -158.5 33.5t-103.5 95.5l110 63q27 -43 63.5 -64.5t96.5 -21.5q75 0 118 46t43 145v68
q-28 -60 -78.5 -93t-118.5 -33zM332 96q84 0 123 53t39 132q0 81 -39 135t-124 54q-78 0 -120 -52.5t-42 -136.5q0 -87 41.5 -136t121.5 -49zM420 696q0 -31 -20 -50.5t-50 -19.5q-34 0 -56 23.5t-22 70.5q0 57 37.5 99.5t102.5 49.5l22 -62q-46 -3 -70.5 -14t-31.5 -36
q3 1 8.5 1.5t10.5 0.5q33 0 51 -17t18 -46z" />
    <glyph glyph-name="gdotaccent" unicode="&#x121;" horiz-adv-x="682" 
d="M288 -4q-50 0 -94 17.5t-77 53t-52.5 88.5t-19.5 123q0 72 21.5 126t56 90.5t80 54.5t93.5 18q70 0 117.5 -31t72.5 -91v115h121v-497q0 -154 -78 -230t-213 -76q-93 0 -158.5 33.5t-103.5 95.5l110 63q27 -43 63.5 -64.5t96.5 -21.5q75 0 118 46t43 145v68
q-28 -60 -78.5 -93t-118.5 -33zM332 96q84 0 123 53t39 132q0 81 -39 135t-124 54q-78 0 -120 -52.5t-42 -136.5q0 -87 41.5 -136t121.5 -49zM271 723q0 35 20.5 57.5t59.5 22.5q37 0 57.5 -22.5t20.5 -57.5q0 -34 -20.5 -56t-57.5 -22q-39 0 -59.5 22t-20.5 56z" />
    <glyph glyph-name="gbreve.alt" horiz-adv-x="631" 
d="M38 353q0 96 75 157t209 61q72 0 125.5 16.5t98.5 62.5l82 -60q-21 -24 -54.5 -35t-76.5 -12q-14 0 -29 1.5t-30 2.5q69 -22 111 -71t42 -121q0 -44 -17.5 -82t-52.5 -66t-89 -44t-127 -16q-72 0 -107 -7t-35 -29q0 -18 24.5 -26t75.5 -8h210q83 0 123 -35.5t40 -86.5
q0 -84 -84 -134.5t-248 -50.5q-63 0 -117.5 7.5t-93.5 23.5t-61 41t-22 59q0 39 37 66t103 37q-55 7 -77.5 26.5t-22.5 45.5q0 31 30.5 55t114.5 32q-82 21 -119.5 72.5t-37.5 117.5zM315 235q78 0 117 34t39 86q0 57 -40 89.5t-116 32.5q-77 0 -117 -36t-40 -87
q0 -54 39.5 -86.5t117.5 -32.5zM328 -127q87 0 139.5 20.5t52.5 57.5q0 27 -25 36t-67 9h-159q-70 0 -106 -13.5t-36 -42.5q0 -34 54 -50.5t147 -16.5zM330 703q44 0 68 26t25 80l73 -16q-1 -68 -43 -115t-126 -47q-88 0 -131 47t-43 115l76 16q1 -55 28 -80.5t73 -25.5z
" />
    <glyph glyph-name="gcircumflex.alt" horiz-adv-x="631" 
d="M38 353q0 96 75 157t209 61q72 0 125.5 16.5t98.5 62.5l82 -60q-21 -24 -54.5 -35t-76.5 -12q-14 0 -29 1.5t-30 2.5q69 -22 111 -71t42 -121q0 -44 -17.5 -82t-52.5 -66t-89 -44t-127 -16q-72 0 -107 -7t-35 -29q0 -18 24.5 -26t75.5 -8h210q83 0 123 -35.5t40 -86.5
q0 -84 -84 -134.5t-248 -50.5q-63 0 -117.5 7.5t-93.5 23.5t-61 41t-22 59q0 39 37 66t103 37q-55 7 -77.5 26.5t-22.5 45.5q0 31 30.5 55t114.5 32q-82 21 -119.5 72.5t-37.5 117.5zM315 235q78 0 117 34t39 86q0 57 -40 89.5t-116 32.5q-77 0 -117 -36t-40 -87
q0 -54 39.5 -86.5t117.5 -32.5zM328 -127q87 0 139.5 20.5t52.5 57.5q0 27 -25 36t-67 9h-159q-70 0 -106 -13.5t-36 -42.5q0 -34 54 -50.5t147 -16.5zM426 609l-104 123l-108 -123l-54 47l138 151h50l137 -151z" />
    <glyph glyph-name="gcommaaccent.alt" horiz-adv-x="631" 
d="M38 353q0 96 75 157t209 61q72 0 125.5 16.5t98.5 62.5l82 -60q-21 -24 -54.5 -35t-76.5 -12q-14 0 -29 1.5t-30 2.5q69 -22 111 -71t42 -121q0 -44 -17.5 -82t-52.5 -66t-89 -44t-127 -16q-72 0 -107 -7t-35 -29q0 -18 24.5 -26t75.5 -8h210q83 0 123 -35.5t40 -86.5
q0 -84 -84 -134.5t-248 -50.5q-63 0 -117.5 7.5t-93.5 23.5t-61 41t-22 59q0 39 37 66t103 37q-55 7 -77.5 26.5t-22.5 45.5q0 31 30.5 55t114.5 32q-82 21 -119.5 72.5t-37.5 117.5zM315 235q78 0 117 34t39 86q0 57 -40 89.5t-116 32.5q-77 0 -117 -36t-40 -87
q0 -54 39.5 -86.5t117.5 -32.5zM328 -127q87 0 139.5 20.5t52.5 57.5q0 27 -25 36t-67 9h-159q-70 0 -106 -13.5t-36 -42.5q0 -34 54 -50.5t147 -16.5zM392 696q0 -31 -20 -50.5t-50 -19.5q-34 0 -56 23.5t-22 70.5q0 57 37.5 99.5t102.5 49.5l22 -62q-46 -3 -70.5 -14
t-31.5 -36q3 1 8.5 1.5t10.5 0.5q33 0 51 -17t18 -46z" />
    <glyph glyph-name="gdotaccent.alt" horiz-adv-x="631" 
d="M38 353q0 96 75 157t209 61q72 0 125.5 16.5t98.5 62.5l82 -60q-21 -24 -54.5 -35t-76.5 -12q-14 0 -29 1.5t-30 2.5q69 -22 111 -71t42 -121q0 -44 -17.5 -82t-52.5 -66t-89 -44t-127 -16q-72 0 -107 -7t-35 -29q0 -18 24.5 -26t75.5 -8h210q83 0 123 -35.5t40 -86.5
q0 -84 -84 -134.5t-248 -50.5q-63 0 -117.5 7.5t-93.5 23.5t-61 41t-22 59q0 39 37 66t103 37q-55 7 -77.5 26.5t-22.5 45.5q0 31 30.5 55t114.5 32q-82 21 -119.5 72.5t-37.5 117.5zM315 235q78 0 117 34t39 86q0 57 -40 89.5t-116 32.5q-77 0 -117 -36t-40 -87
q0 -54 39.5 -86.5t117.5 -32.5zM328 -127q87 0 139.5 20.5t52.5 57.5q0 27 -25 36t-67 9h-159q-70 0 -106 -13.5t-36 -42.5q0 -34 54 -50.5t147 -16.5zM244 723q0 35 20.5 57.5t59.5 22.5q37 0 57.5 -22.5t20.5 -57.5q0 -34 -20.5 -56t-57.5 -22q-39 0 -59.5 22t-20.5 56z
" />
    <glyph glyph-name="germandbls" unicode="&#xdf;" horiz-adv-x="660" 
d="M77 0v511q0 76 22 132t58.5 91t85.5 52t102 17q106 0 173 -56t67 -157q0 -66 -33.5 -108t-84.5 -64q69 -20 111.5 -69.5t42.5 -131.5q0 -99 -66.5 -158t-196.5 -59h-70v116h46q96 0 137 35.5t41 92.5q0 65 -44.5 94.5t-119.5 29.5h-51v86h33q70 0 107.5 31t37.5 85
q0 51 -33 87t-99 36q-67 0 -105.5 -45.5t-38.5 -151.5v-496h-122z" />
    <glyph glyph-name="hbar" unicode="&#x127;" horiz-adv-x="680" 
d="M85 0v629h-94v71h94v96h120v-96h135v-71h-135v-203q28 72 80 108.5t121 36.5q97 0 150 -63.5t53 -165.5v-342h-121v311q0 72 -30.5 115.5t-103.5 43.5q-68 0 -108 -51t-40 -143v-276h-121z" />
    <glyph glyph-name="hcircumflex" unicode="&#x125;" horiz-adv-x="672" 
d="M77 0v796h120v-370q28 72 80 108.5t121 36.5q97 0 150 -63.5t53 -165.5v-342h-121v311q0 72 -30.5 115.5t-103.5 43.5q-68 0 -108 -51t-40 -143v-276h-121zM115 994h50l159 -150l-52 -47l-133 126l-135 -126l-47 47z" />
    <glyph glyph-name="iacute" unicode="&#xed;" horiz-adv-x="275" 
d="M198 560v-560h-122v560h122zM113 612l-46 45l165 181l60 -56z" />
    <glyph glyph-name="ibreve" unicode="&#x12d;" horiz-adv-x="275" 
d="M198 560v-560h-122v560h122zM143 703q44 0 68 26t25 80l73 -16q-1 -68 -43 -115t-126 -47q-88 0 -131 47t-43 115l76 16q1 -55 28 -80.5t73 -25.5z" />
    <glyph glyph-name="icircumflex" unicode="&#xee;" horiz-adv-x="275" 
d="M198 560v-560h-122v560h122zM240 609l-104 123l-108 -123l-54 47l138 151h50l137 -151z" />
    <glyph glyph-name="idieresis" unicode="&#xef;" horiz-adv-x="275" 
d="M198 560v-560h-122v560h122zM-48 700q0 34 20 56t57 22q35 0 55 -22t20 -56q0 -33 -20 -54t-55 -21q-37 0 -57 21t-20 54zM170 700q0 34 19.5 56t56.5 22q35 0 55.5 -22t20.5 -56q0 -33 -20.5 -54t-55.5 -21q-37 0 -56.5 21t-19.5 54z" />
    <glyph glyph-name="idotaccent" horiz-adv-x="275" 
d="M61 723q0 35 20.5 57.5t58.5 22.5q37 0 58 -22.5t21 -57.5q0 -34 -21 -56t-58 -22q-38 0 -58.5 22t-20.5 56zM198 560v-560h-122v560h122z" />
    <glyph glyph-name="igrave" unicode="&#xec;" horiz-adv-x="275" 
d="M198 560v-560h-122v560h122zM162 612l-178 170l59 56l166 -181z" />
    <glyph glyph-name="imacron" unicode="&#x12b;" horiz-adv-x="275" 
d="M198 560v-560h-122v560h122zM-10 650v72h289v-72h-289z" />
    <glyph glyph-name="iogonek" unicode="&#x12f;" horiz-adv-x="275" 
d="M61 723q0 35 20.5 57.5t58.5 22.5q37 0 58 -22.5t21 -57.5q0 -34 -21 -56t-58 -22q-38 0 -58.5 22t-20.5 56zM138 -250q-54 0 -85.5 24.5t-31.5 68.5q0 47 29.5 85t80.5 72h-55v560h122v-560q-48 -31 -73 -62.5t-25 -65.5q0 -23 16 -35t44 -12q10 0 19 1t19 3l-10 -72
q-13 -4 -24.5 -5.5t-25.5 -1.5z" />
    <glyph glyph-name="itilde" unicode="&#x129;" horiz-adv-x="275" 
d="M198 560v-560h-122v560h122zM76 709q-15 0 -24 -12.5t-9 -39.5v-13.5t1 -12.5l-71 10q-1 5 -1 7.5v5.5q0 64 27.5 98.5t67.5 34.5q25 0 45.5 -12.5t38.5 -27t33.5 -27t31.5 -12.5q15 0 23.5 12.5t8.5 45.5v11.5t-1 9.5l71 -10q1 -4 1 -9v-8q0 -64 -27 -96.5t-67 -32.5
q-25 0 -46 12t-38.5 27t-33.5 27t-31 12z" />
    <glyph glyph-name="dotlessi" unicode="&#x131;" horiz-adv-x="275" 
d="M198 560v-560h-122v560h122z" />
    <glyph glyph-name="jcircumflex" unicode="&#x135;" horiz-adv-x="270" 
d="M-36 -216v110h16q54 0 75.5 23t21.5 81v562h122v-550q0 -58 -9.5 -101t-33.5 -70.5t-66 -41t-105 -13.5h-21zM236 609l-104 123l-108 -123l-54 47l138 151h50l137 -151z" />
    <glyph glyph-name="dotlessj" unicode="&#x237;" horiz-adv-x="275" 
d="M-36 -216v110h16q54 0 75.5 23t21.5 81v562h122v-550q0 -58 -9.5 -101t-33.5 -70.5t-66 -41t-105 -13.5h-21z" />
    <glyph glyph-name="kcommaaccent" unicode="&#x137;" horiz-adv-x="615" 
d="M198 796v-552l262 316h141l-212 -249l225 -311h-144l-180 261l-92 -106v-155h-121v796h121zM405 -136q0 -57 -36.5 -99.5t-99.5 -49.5l-22 62q43 3 67 14t31 36q-5 -1 -10 -1.5t-9 -0.5q-33 0 -51 17t-18 46q0 31 20 50.5t49 19.5q35 0 57 -23.5t22 -70.5z" />
    <glyph glyph-name="kgreenlandic" unicode="&#x138;" horiz-adv-x="619" 
d="M196 560v-322l267 322h142l-213 -249l226 -311h-145l-179 261l-98 -112v-149h-121v560h121z" />
    <glyph glyph-name="lacute" unicode="&#x13a;" horiz-adv-x="274" 
d="M198 796v-796h-121v796h121zM97 812l-39 54l208 156l50 -69z" />
    <glyph glyph-name="lcaron" unicode="&#x13e;" horiz-adv-x="318" 
d="M198 796v-796h-121v796h121zM355 807q6 -19 8.5 -39t2.5 -39q0 -49 -12 -92t-34 -86l-61 21q13 31 19.5 60t6.5 59q0 26 -5 48.5t-13 50.5z" />
    <glyph glyph-name="lcommaaccent" unicode="&#x13c;" horiz-adv-x="274" 
d="M198 796v-796h-121v796h121zM218 -140q0 -57 -36.5 -99.5t-99.5 -49.5l-22 62q43 3 67 14t31 36q-5 -1 -10 -1.5t-9 -0.5q-33 0 -51 17t-18 46q0 31 20 50.5t49 19.5q35 0 57 -23.5t22 -70.5z" />
    <glyph glyph-name="ldot" unicode="&#x140;" horiz-adv-x="371" 
d="M198 796v-796h-121v796h121zM245 386q0 35 20.5 57.5t59.5 22.5q37 0 57.5 -22.5t20.5 -57.5q0 -34 -20.5 -56t-57.5 -22q-39 0 -59.5 22t-20.5 56z" />
    <glyph glyph-name="lslash" unicode="&#x142;" horiz-adv-x="303" 
d="M213 796v-340l90 47v-85l-90 -47v-371h-121v330l-92 -47v85l92 46v382h121z" />
    <glyph glyph-name="nacute" unicode="&#x144;" horiz-adv-x="670" 
d="M75 0v560h121v-133q28 72 79 108t120 36q97 0 151 -63.5t54 -165.5v-342h-122v311q0 72 -30.5 115.5t-104.5 43.5q-67 0 -107 -51t-40 -143v-276h-121zM322 612l-46 45l165 181l60 -56z" />
    <glyph glyph-name="ncaron" unicode="&#x148;" horiz-adv-x="670" 
d="M75 0v560h121v-133q28 72 79 108t120 36q97 0 151 -63.5t54 -165.5v-342h-122v311q0 72 -30.5 115.5t-104.5 43.5q-67 0 -107 -51t-40 -143v-276h-121zM238 825l103 -124l108 124l55 -47l-139 -152h-50l-137 152z" />
    <glyph glyph-name="ncommaaccent" unicode="&#x146;" horiz-adv-x="670" 
d="M75 0v560h121v-133q28 72 79 108t120 36q97 0 151 -63.5t54 -165.5v-342h-122v311q0 72 -30.5 115.5t-104.5 43.5q-67 0 -107 -51t-40 -143v-276h-121zM418 -130q0 -57 -36.5 -99.5t-99.5 -49.5l-22 62q43 3 67 14t31 36q-5 -1 -10 -1.5t-9 -0.5q-33 0 -51 17t-18 46
q0 31 20 50.5t49 19.5q35 0 57 -23.5t22 -70.5z" />
    <glyph glyph-name="ntilde" unicode="&#xf1;" horiz-adv-x="670" 
d="M75 0v560h121v-133q28 72 79 108t120 36q97 0 151 -63.5t54 -165.5v-342h-122v311q0 72 -30.5 115.5t-104.5 43.5q-67 0 -107 -51t-40 -143v-276h-121zM272 709q-15 0 -24 -12.5t-9 -39.5v-13.5t1 -12.5l-71 10q-1 5 -1 7.5v5.5q0 64 27.5 98.5t67.5 34.5
q25 0 45.5 -12.5t38.5 -27t33.5 -27t31.5 -12.5q15 0 23.5 12.5t8.5 45.5v11.5t-1 9.5l71 -10q1 -4 1 -9v-8q0 -64 -27 -96.5t-67 -32.5q-25 0 -46 12t-38.5 27t-33.5 27t-31 12z" />
    <glyph glyph-name="eng" unicode="&#x14b;" horiz-adv-x="670" 
d="M600 9q0 -57 -9.5 -100t-34 -70.5t-66.5 -41t-106 -13.5h-40v110h36q56 0 77 22.5t21 79.5v315q0 72 -30.5 115.5t-103.5 43.5q-69 0 -108.5 -51t-39.5 -143v-276h-121v560h121v-133q28 72 79.5 108t120.5 36q97 0 150.5 -63.5t53.5 -165.5v-333z" />
    <glyph glyph-name="oacute" unicode="&#xf3;" horiz-adv-x="663" 
d="M332 -10q-69 0 -123 22t-90 60.5t-55 92t-19 115.5t19.5 115t56.5 92t90.5 61.5t120.5 22.5q68 0 121.5 -22.5t90 -61.5t55.5 -92.5t19 -114.5q0 -60 -19.5 -113.5t-56.5 -92.5t-90 -61.5t-120 -22.5zM332 93q84 0 123 52.5t39 134.5q0 84 -39 137t-123 53
q-82 0 -122.5 -54t-40.5 -136q0 -83 38.5 -135t124.5 -52zM308 612l-46 45l165 181l60 -56z" />
    <glyph glyph-name="obreve" unicode="&#x14f;" horiz-adv-x="663" 
d="M332 -10q-69 0 -123 22t-90 60.5t-55 92t-19 115.5t19.5 115t56.5 92t90.5 61.5t120.5 22.5q68 0 121.5 -22.5t90 -61.5t55.5 -92.5t19 -114.5q0 -60 -19.5 -113.5t-56.5 -92.5t-90 -61.5t-120 -22.5zM332 93q84 0 123 52.5t39 134.5q0 84 -39 137t-123 53
q-82 0 -122.5 -54t-40.5 -136q0 -83 38.5 -135t124.5 -52zM339 703q44 0 68 26t25 80l73 -16q-1 -68 -43 -115t-126 -47q-88 0 -131 47t-43 115l76 16q1 -55 28 -80.5t73 -25.5z" />
    <glyph glyph-name="ocircumflex" unicode="&#xf4;" horiz-adv-x="663" 
d="M332 -10q-69 0 -123 22t-90 60.5t-55 92t-19 115.5t19.5 115t56.5 92t90.5 61.5t120.5 22.5q68 0 121.5 -22.5t90 -61.5t55.5 -92.5t19 -114.5q0 -60 -19.5 -113.5t-56.5 -92.5t-90 -61.5t-120 -22.5zM332 93q84 0 123 52.5t39 134.5q0 84 -39 137t-123 53
q-82 0 -122.5 -54t-40.5 -136q0 -83 38.5 -135t124.5 -52zM435 609l-104 123l-108 -123l-54 47l138 151h50l137 -151z" />
    <glyph glyph-name="odieresis" unicode="&#xf6;" horiz-adv-x="663" 
d="M332 -10q-69 0 -123 22t-90 60.5t-55 92t-19 115.5t19.5 115t56.5 92t90.5 61.5t120.5 22.5q68 0 121.5 -22.5t90 -61.5t55.5 -92.5t19 -114.5q0 -60 -19.5 -113.5t-56.5 -92.5t-90 -61.5t-120 -22.5zM332 93q84 0 123 52.5t39 134.5q0 84 -39 137t-123 53
q-82 0 -122.5 -54t-40.5 -136q0 -83 38.5 -135t124.5 -52zM145 700q0 34 20 56t57 22q35 0 55 -22t20 -56q0 -33 -20 -54t-55 -21q-37 0 -57 21t-20 54zM363 700q0 34 19.5 56t56.5 22q35 0 55.5 -22t20.5 -56q0 -33 -20.5 -54t-55.5 -21q-37 0 -56.5 21t-19.5 54z" />
    <glyph glyph-name="oe" unicode="&#x153;" horiz-adv-x="1048" 
d="M998 124q-33 -59 -88.5 -96.5t-142.5 -37.5q-84 0 -144 44t-88 118q-28 -69 -85.5 -115.5t-143.5 -46.5q-61 0 -109.5 22t-82 60.5t-51.5 92t-18 115.5q0 61 19 114.5t53.5 92.5t84.5 61.5t112 22.5q84 0 142 -47t83 -115q31 71 91 116.5t140 45.5q61 0 107 -22.5
t75.5 -61.5t44.5 -91.5t15 -111.5v-37h-433q7 -70 49.5 -113t120.5 -43q57 0 91 23t56 66zM747 471q-72 0 -114 -41t-52 -107h312q-4 66 -38.5 107t-107.5 41zM331 93q87 0 125 54t38 133q0 81 -38 135.5t-124 54.5q-83 0 -123 -54t-40 -136q0 -83 38 -135t124 -52z" />
    <glyph glyph-name="ograve" unicode="&#xf2;" horiz-adv-x="663" 
d="M332 -10q-69 0 -123 22t-90 60.5t-55 92t-19 115.5t19.5 115t56.5 92t90.5 61.5t120.5 22.5q68 0 121.5 -22.5t90 -61.5t55.5 -92.5t19 -114.5q0 -60 -19.5 -113.5t-56.5 -92.5t-90 -61.5t-120 -22.5zM332 93q84 0 123 52.5t39 134.5q0 84 -39 137t-123 53
q-82 0 -122.5 -54t-40.5 -136q0 -83 38.5 -135t124.5 -52zM357 612l-178 170l59 56l166 -181z" />
    <glyph glyph-name="ohungarumlaut" unicode="&#x151;" horiz-adv-x="663" 
d="M332 -10q-69 0 -123 22t-90 60.5t-55 92t-19 115.5t19.5 115t56.5 92t90.5 61.5t120.5 22.5q68 0 121.5 -22.5t90 -61.5t55.5 -92.5t19 -114.5q0 -60 -19.5 -113.5t-56.5 -92.5t-90 -61.5t-120 -22.5zM332 93q84 0 123 52.5t39 134.5q0 84 -39 137t-123 53
q-82 0 -122.5 -54t-40.5 -136q0 -83 38.5 -135t124.5 -52zM284 618l-66 22l73 225l82 -28zM438 618l-66 22l73 225l82 -28z" />
    <glyph glyph-name="omacron" unicode="&#x14d;" horiz-adv-x="663" 
d="M332 -10q-69 0 -123 22t-90 60.5t-55 92t-19 115.5t19.5 115t56.5 92t90.5 61.5t120.5 22.5q68 0 121.5 -22.5t90 -61.5t55.5 -92.5t19 -114.5q0 -60 -19.5 -113.5t-56.5 -92.5t-90 -61.5t-120 -22.5zM332 93q84 0 123 52.5t39 134.5q0 84 -39 137t-123 53
q-82 0 -122.5 -54t-40.5 -136q0 -83 38.5 -135t124.5 -52zM185 650v72h289v-72h-289z" />
    <glyph glyph-name="oslash" unicode="&#xf8;" horiz-adv-x="663" 
d="M59 -8l-54 64l78 67q-19 34 -28.5 73.5t-9.5 83.5q0 62 19.5 115t56.5 92t90.5 61.5t120.5 22.5q60 0 109 -18.5t85 -50.5l77 66l53 -63l-78 -67q19 -34 29.5 -74.5t10.5 -83.5q0 -60 -19.5 -113.5t-56.5 -92.5t-90 -61.5t-120 -22.5q-61 0 -110.5 18t-85.5 49zM167 280
q0 -25 3 -46.5t9 -40.5l265 241q-19 18 -47 28t-65 10q-83 0 -124 -54.5t-41 -137.5zM332 91q85 0 124.5 53t39.5 136q0 24 -3 45.5t-9 40.5l-264 -240q19 -17 47 -26t65 -9z" />
    <glyph glyph-name="oslashacute" unicode="&#x1ff;" horiz-adv-x="663" 
d="M59 -8l-54 64l78 67q-19 34 -28.5 73.5t-9.5 83.5q0 62 19.5 115t56.5 92t90.5 61.5t120.5 22.5q60 0 109 -18.5t85 -50.5l77 66l53 -63l-78 -67q19 -34 29.5 -74.5t10.5 -83.5q0 -60 -19.5 -113.5t-56.5 -92.5t-90 -61.5t-120 -22.5q-61 0 -110.5 18t-85.5 49zM167 280
q0 -25 3 -46.5t9 -40.5l265 241q-19 18 -47 28t-65 10q-83 0 -124 -54.5t-41 -137.5zM332 91q85 0 124.5 53t39.5 136q0 24 -3 45.5t-9 40.5l-264 -240q19 -17 47 -26t65 -9zM308 612l-46 45l165 181l60 -56z" />
    <glyph glyph-name="otilde" unicode="&#xf5;" horiz-adv-x="663" 
d="M332 -10q-69 0 -123 22t-90 60.5t-55 92t-19 115.5t19.5 115t56.5 92t90.5 61.5t120.5 22.5q68 0 121.5 -22.5t90 -61.5t55.5 -92.5t19 -114.5q0 -60 -19.5 -113.5t-56.5 -92.5t-90 -61.5t-120 -22.5zM332 93q84 0 123 52.5t39 134.5q0 84 -39 137t-123 53
q-82 0 -122.5 -54t-40.5 -136q0 -83 38.5 -135t124.5 -52zM270 709q-15 0 -24 -12.5t-9 -39.5v-13.5t1 -12.5l-71 10q-1 5 -1 7.5v5.5q0 64 27.5 98.5t67.5 34.5q25 0 45.5 -12.5t38.5 -27t33.5 -27t31.5 -12.5q15 0 23.5 12.5t8.5 45.5v11.5t-1 9.5l71 -10q1 -4 1 -9v-8
q0 -64 -27 -96.5t-67 -32.5q-25 0 -46 12t-38.5 27t-33.5 27t-31 12z" />
    <glyph glyph-name="racute" unicode="&#x155;" horiz-adv-x="464" 
d="M351 568q31 0 54.5 -6t42.5 -16l-34 -111q-20 13 -43.5 19t-51.5 6q-52 0 -87.5 -44t-35.5 -132v-284h-121v560h121v-135q19 73 56.5 108t98.5 35zM235 612l-46 45l165 181l60 -56z" />
    <glyph glyph-name="rcaron" unicode="&#x159;" horiz-adv-x="464" 
d="M351 568q31 0 54.5 -6t42.5 -16l-34 -111q-20 13 -43.5 19t-51.5 6q-52 0 -87.5 -44t-35.5 -132v-284h-121v560h121v-135q19 73 56.5 108t98.5 35zM151 825l103 -124l108 124l55 -47l-139 -152h-50l-137 152z" />
    <glyph glyph-name="rcommaaccent" unicode="&#x157;" horiz-adv-x="464" 
d="M351 568q31 0 54.5 -6t42.5 -16l-34 -111q-20 13 -43.5 19t-51.5 6q-52 0 -87.5 -44t-35.5 -132v-284h-121v560h121v-135q19 73 56.5 108t98.5 35zM216 -140q0 -57 -36.5 -99.5t-99.5 -49.5l-22 62q43 3 67 14t31 36q-5 -1 -10 -1.5t-9 -0.5q-33 0 -51 17t-18 46
q0 31 20 50.5t49 19.5q35 0 57 -23.5t22 -70.5z" />
    <glyph glyph-name="sacute" unicode="&#x15b;" horiz-adv-x="562" 
d="M21 100l88 83q34 -46 79 -69.5t107 -23.5q59 0 85.5 24t26.5 54q0 22 -15 34.5t-41 20.5t-60.5 13.5t-72.5 11.5q-76 12 -126 43.5t-50 106.5q0 73 59 124t163 51q85 0 148 -27.5t113 -87.5l-93 -79q-32 46 -74.5 69t-100.5 23t-83.5 -22.5t-25.5 -51.5q0 -38 44.5 -51.5
t115.5 -23.5q41 -6 78.5 -15t66 -26t45.5 -44t17 -69q0 -77 -59.5 -128.5t-163.5 -51.5q-95 0 -162.5 30.5t-108.5 81.5zM257 612l-46 45l165 181l60 -56z" />
    <glyph glyph-name="scaron" unicode="&#x161;" horiz-adv-x="562" 
d="M21 100l88 83q34 -46 79 -69.5t107 -23.5q59 0 85.5 24t26.5 54q0 22 -15 34.5t-41 20.5t-60.5 13.5t-72.5 11.5q-76 12 -126 43.5t-50 106.5q0 73 59 124t163 51q85 0 148 -27.5t113 -87.5l-93 -79q-32 46 -74.5 69t-100.5 23t-83.5 -22.5t-25.5 -51.5q0 -38 44.5 -51.5
t115.5 -23.5q41 -6 78.5 -15t66 -26t45.5 -44t17 -69q0 -77 -59.5 -128.5t-163.5 -51.5q-95 0 -162.5 30.5t-108.5 81.5zM176 825l103 -124l108 124l55 -47l-139 -152h-50l-137 152z" />
    <glyph glyph-name="scedilla" unicode="&#x15f;" horiz-adv-x="562" 
d="M21 100l88 83q34 -46 79 -69.5t107 -23.5q59 0 85.5 24t26.5 54q0 22 -15 34.5t-41 20.5t-60.5 13.5t-72.5 11.5q-76 12 -126 43.5t-50 106.5q0 73 59 124t163 51q85 0 148 -27.5t113 -87.5l-93 -79q-32 46 -74.5 69t-100.5 23t-83.5 -22.5t-25.5 -51.5q0 -38 44.5 -51.5
t115.5 -23.5q41 -6 78.5 -15t66 -26t45.5 -44t17 -69q0 -77 -60 -128.5t-168 -51.5l-11 -34q8 1 12.5 1h10.5q54 0 81.5 -27t27.5 -67q0 -47 -35 -77t-99 -30q-37 0 -72 8.5t-60 22.5l30 62q19 -10 43.5 -18.5t54.5 -8.5q31 0 48 12.5t17 31.5q0 20 -16.5 30.5t-47.5 10.5
q-20 0 -34 -2.5t-24 -5.5l-18 11l29 85q-68 9 -118.5 37t-84.5 70z" />
    <glyph glyph-name="scircumflex" unicode="&#x15d;" horiz-adv-x="562" 
d="M21 100l88 83q34 -46 79 -69.5t107 -23.5q59 0 85.5 24t26.5 54q0 22 -15 34.5t-41 20.5t-60.5 13.5t-72.5 11.5q-76 12 -126 43.5t-50 106.5q0 73 59 124t163 51q85 0 148 -27.5t113 -87.5l-93 -79q-32 46 -74.5 69t-100.5 23t-83.5 -22.5t-25.5 -51.5q0 -38 44.5 -51.5
t115.5 -23.5q41 -6 78.5 -15t66 -26t45.5 -44t17 -69q0 -77 -59.5 -128.5t-163.5 -51.5q-95 0 -162.5 30.5t-108.5 81.5zM384 609l-104 123l-108 -123l-54 47l138 151h50l137 -151z" />
    <glyph glyph-name="scommaaccent" unicode="&#x219;" horiz-adv-x="562" 
d="M21 100l88 83q34 -46 79 -69.5t107 -23.5q59 0 85.5 24t26.5 54q0 22 -15 34.5t-41 20.5t-60.5 13.5t-72.5 11.5q-76 12 -126 43.5t-50 106.5q0 73 59 124t163 51q85 0 148 -27.5t113 -87.5l-93 -79q-32 46 -74.5 69t-100.5 23t-83.5 -22.5t-25.5 -51.5q0 -38 44.5 -51.5
t115.5 -23.5q41 -6 78.5 -15t66 -26t45.5 -44t17 -69q0 -77 -59.5 -128.5t-163.5 -51.5q-95 0 -162.5 30.5t-108.5 81.5zM352 -140q0 -57 -36.5 -99.5t-99.5 -49.5l-22 62q43 3 67 14t31 36q-5 -1 -10 -1.5t-9 -0.5q-33 0 -51 17t-18 46q0 31 20 50.5t49 19.5q35 0 57 -23.5
t22 -70.5z" />
    <glyph glyph-name="tbar" unicode="&#x167;" horiz-adv-x="456" 
d="M34 330h112v130h-128v100h129v143l113 68v-211h158v-100h-158v-130h143v-71h-143v-67q0 -54 21.5 -76t62.5 -22q22 0 38.5 4t35.5 12v-98q-22 -10 -46.5 -16t-55.5 -6q-90 0 -130 47.5t-40 140.5v81h-112v71z" />
    <glyph glyph-name="tcaron" unicode="&#x165;" horiz-adv-x="458" 
d="M418 110v-98q-22 -10 -46.5 -16t-55.5 -6q-90 0 -130 47.5t-40 140.5v282h-128v100h129v143l113 68v-211h158v-100h-158v-268q0 -54 21.5 -76t62.5 -22q22 0 38.5 4t35.5 12zM424 879q6 -19 8.5 -39t2.5 -39q0 -49 -12 -92t-34 -86l-61 21q13 31 19.5 60t6.5 59
q0 26 -5 48.5t-13 50.5z" />
    <glyph glyph-name="tcommaaccent" unicode="&#x21b;" horiz-adv-x="458" 
d="M418 110v-98q-22 -10 -46.5 -16t-55.5 -6q-90 0 -130 47.5t-40 140.5v282h-128v100h129v143l113 68v-211h158v-100h-158v-268q0 -54 21.5 -76t62.5 -22q22 0 38.5 4t35.5 12zM361 -140q0 -57 -36.5 -99.5t-99.5 -49.5l-22 62q43 3 67 14t31 36q-5 -1 -10 -1.5t-9 -0.5
q-33 0 -51 17t-18 46q0 31 20 50.5t49 19.5q35 0 57 -23.5t22 -70.5z" />
    <glyph glyph-name="uacute" unicode="&#xfa;" horiz-adv-x="657" 
d="M582 560v-560h-121v133q-28 -72 -78.5 -108t-114.5 -36q-101 0 -151 63t-50 165v343h121v-310q0 -72 29 -115.5t101 -43.5q65 0 103.5 52.5t38.5 142.5v274h122zM304 598l-46 45l165 181l60 -56z" />
    <glyph glyph-name="ubreve" unicode="&#x16d;" horiz-adv-x="657" 
d="M582 560v-560h-121v133q-28 -72 -78.5 -108t-114.5 -36q-101 0 -151 63t-50 165v343h121v-310q0 -72 29 -115.5t101 -43.5q65 0 103.5 52.5t38.5 142.5v274h122zM335 689q44 0 68 26t25 80l73 -16q-1 -68 -43 -115t-126 -47q-88 0 -131 47t-43 115l76 16q1 -55 28 -80.5
t73 -25.5z" />
    <glyph glyph-name="ucircumflex" unicode="&#xfb;" horiz-adv-x="657" 
d="M582 560v-560h-121v133q-28 -72 -78.5 -108t-114.5 -36q-101 0 -151 63t-50 165v343h121v-310q0 -72 29 -115.5t101 -43.5q65 0 103.5 52.5t38.5 142.5v274h122zM431 595l-104 123l-108 -123l-54 47l138 151h50l137 -151z" />
    <glyph glyph-name="udieresis" unicode="&#xfc;" horiz-adv-x="657" 
d="M582 560v-560h-121v133q-28 -72 -78.5 -108t-114.5 -36q-101 0 -151 63t-50 165v343h121v-310q0 -72 29 -115.5t101 -43.5q65 0 103.5 52.5t38.5 142.5v274h122zM142 686q0 34 20 56t57 22q35 0 55 -22t20 -56q0 -33 -20 -54t-55 -21q-37 0 -57 21t-20 54zM360 686
q0 34 19.5 56t56.5 22q35 0 55.5 -22t20.5 -56q0 -33 -20.5 -54t-55.5 -21q-37 0 -56.5 21t-19.5 54z" />
    <glyph glyph-name="ugrave" unicode="&#xf9;" horiz-adv-x="657" 
d="M582 560v-560h-121v133q-28 -72 -78.5 -108t-114.5 -36q-101 0 -151 63t-50 165v343h121v-310q0 -72 29 -115.5t101 -43.5q65 0 103.5 52.5t38.5 142.5v274h122zM353 598l-178 170l59 56l166 -181z" />
    <glyph glyph-name="uhungarumlaut" unicode="&#x171;" horiz-adv-x="657" 
d="M582 560v-560h-121v133q-28 -72 -78.5 -108t-114.5 -36q-101 0 -151 63t-50 165v343h121v-310q0 -72 29 -115.5t101 -43.5q65 0 103.5 52.5t38.5 142.5v274h122zM271 604l-66 22l73 225l82 -28zM425 604l-66 22l73 225l82 -28z" />
    <glyph glyph-name="umacron" unicode="&#x16b;" horiz-adv-x="657" 
d="M582 560v-560h-121v133q-28 -72 -78.5 -108t-114.5 -36q-101 0 -151 63t-50 165v343h121v-310q0 -72 29 -115.5t101 -43.5q65 0 103.5 52.5t38.5 142.5v274h122zM182 636v72h289v-72h-289z" />
    <glyph glyph-name="uogonek" unicode="&#x173;" horiz-adv-x="657" 
d="M522 -250q-54 0 -85.5 24.5t-31.5 68.5q0 47 29.5 85t81.5 72h-55v133q-28 -72 -78.5 -108t-114.5 -36q-101 0 -151 63t-50 165v343h121v-310q0 -72 29 -115.5t101 -43.5q65 0 103.5 52.5t38.5 142.5v274h122v-560q-48 -31 -73 -62.5t-25 -65.5q0 -23 16 -35t44 -12
q10 0 19 1t19 3l-10 -72q-13 -4 -24.5 -5.5t-25.5 -1.5z" />
    <glyph glyph-name="uring" unicode="&#x16f;" horiz-adv-x="657" 
d="M582 560v-560h-121v133q-28 -72 -78.5 -108t-114.5 -36q-101 0 -151 63t-50 165v343h121v-310q0 -72 29 -115.5t101 -43.5q65 0 103.5 52.5t38.5 142.5v274h122zM327 603q-55 0 -91 36t-36 90t36 90.5t91 36.5q54 0 90.5 -36.5t36.5 -90.5t-36.5 -90t-90.5 -36zM327 660
q30 0 48 18.5t18 50.5q0 33 -18 51.5t-49 18.5q-30 0 -47.5 -19t-17.5 -51t18.5 -50.5t47.5 -18.5z" />
    <glyph glyph-name="utilde" unicode="&#x169;" horiz-adv-x="657" 
d="M582 560v-560h-121v133q-28 -72 -78.5 -108t-114.5 -36q-101 0 -151 63t-50 165v343h121v-310q0 -72 29 -115.5t101 -43.5q65 0 103.5 52.5t38.5 142.5v274h122zM268 695q-15 0 -24 -12.5t-9 -39.5v-13.5t1 -12.5l-71 10q-1 5 -1 7.5v5.5q0 64 27.5 98.5t67.5 34.5
q25 0 45.5 -12.5t38.5 -27t33.5 -27t31.5 -12.5q15 0 23.5 12.5t8.5 45.5v11.5t-1 9.5l71 -10q1 -4 1 -9v-8q0 -64 -27 -96.5t-67 -32.5q-25 0 -46 12t-38.5 27t-33.5 27t-31 12z" />
    <glyph glyph-name="wacute" unicode="&#x1e83;" horiz-adv-x="881" 
d="M425 389l-114 -389h-150l-142 560h125l96 -412l12 -73l16 73l122 412h98l119 -411l14 -76l13 75l105 412h123l-156 -560h-145l-109 390l-14 60zM416 612l-46 45l165 181l60 -56z" />
    <glyph glyph-name="wcircumflex" unicode="&#x175;" horiz-adv-x="881" 
d="M425 389l-114 -389h-150l-142 560h125l96 -412l12 -73l16 73l122 412h98l119 -411l14 -76l13 75l105 412h123l-156 -560h-145l-109 390l-14 60zM542 609l-104 123l-108 -123l-54 47l138 151h50l137 -151z" />
    <glyph glyph-name="wdieresis" unicode="&#x1e85;" horiz-adv-x="881" 
d="M425 389l-114 -389h-150l-142 560h125l96 -412l12 -73l16 73l122 412h98l119 -411l14 -76l13 75l105 412h123l-156 -560h-145l-109 390l-14 60zM254 700q0 34 20 56t57 22q35 0 55 -22t20 -56q0 -33 -20 -54t-55 -21q-37 0 -57 21t-20 54zM472 700q0 34 19.5 56t56.5 22
q35 0 55.5 -22t20.5 -56q0 -33 -20.5 -54t-55.5 -21q-37 0 -56.5 21t-19.5 54z" />
    <glyph glyph-name="wgrave" unicode="&#x1e81;" horiz-adv-x="881" 
d="M425 389l-114 -389h-150l-142 560h125l96 -412l12 -73l16 73l122 412h98l119 -411l14 -76l13 75l105 412h123l-156 -560h-145l-109 390l-14 60zM465 612l-178 170l59 56l166 -181z" />
    <glyph glyph-name="yacute" unicode="&#xfd;" horiz-adv-x="601" 
d="M596 560l-330 -776h-126l99 225l-234 551h125l149 -360l23 -74l25 74l146 360h123zM276 598l-46 45l165 181l60 -56z" />
    <glyph glyph-name="ycircumflex" unicode="&#x177;" horiz-adv-x="601" 
d="M596 560l-330 -776h-126l99 225l-234 551h125l149 -360l23 -74l25 74l146 360h123zM403 595l-104 123l-108 -123l-54 47l138 151h50l137 -151z" />
    <glyph glyph-name="ydieresis" unicode="&#xff;" horiz-adv-x="601" 
d="M596 560l-330 -776h-126l99 225l-234 551h125l149 -360l23 -74l25 74l146 360h123zM114 686q0 34 20 56t57 22q35 0 55 -22t20 -56q0 -33 -20 -54t-55 -21q-37 0 -57 21t-20 54zM332 686q0 34 19.5 56t56.5 22q35 0 55.5 -22t20.5 -56q0 -33 -20.5 -54t-55.5 -21
q-37 0 -56.5 21t-19.5 54z" />
    <glyph glyph-name="ygrave" unicode="&#x1ef3;" horiz-adv-x="601" 
d="M596 560l-330 -776h-126l99 225l-234 551h125l149 -360l23 -74l25 74l146 360h123zM325 598l-178 170l59 56l166 -181z" />
    <glyph glyph-name="ij" unicode="&#x133;" horiz-adv-x="545" 
d="M61 723q0 35 20.5 57.5t58.5 22.5q37 0 58 -22.5t21 -57.5q0 -34 -21 -56t-58 -22q-38 0 -58.5 22t-20.5 56zM198 560v-560h-122v560h122zM330 723q0 35 20.5 57.5t58.5 22.5q37 0 58 -22.5t21 -57.5q0 -34 -21 -56t-58 -22q-38 0 -58.5 22t-20.5 56zM233 -216v110h16
q54 0 75.5 23t21.5 81v562h122v-550q0 -58 -9.5 -101t-33.5 -70.5t-66 -41t-105 -13.5h-21z" />
    <glyph glyph-name="ijacute" horiz-adv-x="545" 
d="M198 560v-560h-122v560h122zM113 612l-46 45l165 181l60 -56zM239 -216v110h16q54 0 75.5 23t21.5 81v562h122v-550q0 -58 -9.5 -101t-33.5 -70.5t-66 -41t-105 -13.5h-21zM383 612l-46 45l165 181l60 -56z" />
    <glyph glyph-name="zacute" unicode="&#x17a;" horiz-adv-x="566" 
d="M519 459l-354 -354h359v-105h-483v102l353 353h-347v105h472v-101zM264 612l-46 45l165 181l60 -56z" />
    <glyph glyph-name="zcaron" unicode="&#x17e;" horiz-adv-x="566" 
d="M519 459l-354 -354h359v-105h-483v102l353 353h-347v105h472v-101zM182 825l103 -124l108 124l55 -47l-139 -152h-50l-137 152z" />
    <glyph glyph-name="zdotaccent" unicode="&#x17c;" horiz-adv-x="566" 
d="M519 459l-354 -354h359v-105h-483v102l353 353h-347v105h472v-101zM207 723q0 35 20.5 57.5t59.5 22.5q37 0 57.5 -22.5t20.5 -57.5q0 -34 -20.5 -56t-57.5 -22q-39 0 -59.5 22t-20.5 56z" />
    <glyph glyph-name="thorn" unicode="&#xfe;" horiz-adv-x="682" 
d="M638 284q0 -70 -19.5 -124.5t-53 -91.5t-78.5 -56t-95 -19q-70 0 -119 33.5t-75 90.5v-333h-121v1012h120v-358q29 64 83 96.5t121 32.5q48 0 91 -17t75.5 -51.5t51.5 -88.5t19 -126zM355 93q79 0 119 51.5t40 136.5q0 88 -41.5 138.5t-119.5 50.5q-41 0 -72 -14.5
t-51.5 -40t-30.5 -60.5t-10 -75q0 -81 39.5 -134t126.5 -53z" />
    <glyph glyph-name="ordfeminine" unicode="&#xaa;" horiz-adv-x="448" 
d="M142 342q-54 0 -86 27.5t-32 72.5q0 30 12 50.5t32 33.5q19 13 48.5 22.5t86.5 18.5q51 8 69.5 18t18.5 29q0 18 -17.5 31.5t-53.5 13.5q-40 0 -68.5 -17.5t-41.5 -47.5l-84 44q31 48 81.5 74t113.5 26q80 0 121.5 -37.5t41.5 -109.5v-129q0 -22 9 -31t28 -9q9 0 16 1.5
t12 2.5v-74q-11 -3 -23.5 -5t-34.5 -2q-48 0 -73 24t-28 67q-17 -43 -55.5 -68.5t-92.5 -25.5zM189 413q44 0 73 34.5t29 101.5q-11 -7 -29.5 -12.5t-44.5 -10.5q-49 -10 -70 -23t-21 -41q0 -23 16 -36t47 -13z" />
    <glyph glyph-name="ordmasculine" unicode="&#xba;" horiz-adv-x="457" 
d="M228 345q-96 0 -148.5 56t-52.5 141q0 84 54 140t147 56q48 0 85.5 -15t63.5 -41.5t39.5 -62.5t13.5 -77q0 -42 -14 -78t-39.5 -62.5t-63.5 -41.5t-85 -15zM228 428q51 0 74.5 32t23.5 82q0 51 -24 83t-74 32q-49 0 -73.5 -32.5t-24.5 -82.5q0 -51 24 -82.5t74 -31.5z
" />
    <glyph glyph-name="ampersand" unicode="&#x26;" horiz-adv-x="723" 
d="M686 54l-68 -67l-86 83q-46 -38 -105.5 -60.5t-129.5 -22.5q-128 0 -193 54.5t-65 135.5t47.5 127.5t121.5 74.5q-50 54 -65 92t-15 78q0 82 60 137t154 55q44 0 81.5 -11.5t65 -34t43 -56.5t15.5 -79q0 -63 -48 -113.5t-145 -85.5l163 -155q29 46 44 99t17 101l109 -14
q-4 -67 -27.5 -134t-64.5 -122zM228 534q0 -32 19 -60t50 -59q76 25 108.5 54.5t32.5 72.5q0 40 -28.5 65t-78.5 25q-49 0 -76 -27.5t-27 -70.5zM146 202q0 -50 43 -81t119 -31q46 0 83 13.5t67 36.5l-194 184q-54 -20 -86 -48t-32 -74z" />
    <glyph glyph-name="acute" unicode="&#xb4;" horiz-adv-x="327" 
d="M103 602l-46 45l165 181l60 -56z" />
    <glyph glyph-name="breve" unicode="&#x2d8;" horiz-adv-x="343" 
d="M178 693q44 0 68 26t25 80l73 -16q-1 -68 -43 -115t-126 -47q-88 0 -131 47t-43 115l76 16q1 -55 28 -80.5t73 -25.5z" />
    <glyph glyph-name="caron" unicode="&#x2c7;" horiz-adv-x="343" 
d="M70 815l103 -124l108 124l55 -47l-139 -152h-50l-137 152z" />
    <glyph glyph-name="caronSlovak" horiz-adv-x="299" 
d="M213 741q6 -19 8.5 -39t2.5 -39q0 -49 -12 -92t-34 -86l-61 21q13 31 19.5 60t6.5 59q0 26 -5 48.5t-13 50.5z" />
    <glyph glyph-name="cedilla" unicode="&#xb8;" horiz-adv-x="343" 
d="M309 -139q0 -47 -35 -77t-99 -30q-37 0 -72 8.5t-60 22.5l30 62q19 -10 43.5 -18.5t54.5 -8.5q31 0 48 12.5t17 31.5q0 20 -16.5 30.5t-47.5 10.5q-20 0 -34 -2.5t-24 -5.5l-18 11l44 126l60 -14l-23 -66q8 1 12.5 1h10.5q54 0 81.5 -27t27.5 -67z" />
    <glyph glyph-name="circumflex" unicode="&#x2c6;" horiz-adv-x="343" 
d="M276 599l-104 123l-108 -123l-54 47l138 151h50l137 -151z" />
    <glyph glyph-name="commaaccent" unicode="&#x326;" horiz-adv-x="343" 
d="M254 -140q0 -57 -36.5 -99.5t-99.5 -49.5l-22 62q43 3 67 14t31 36q-5 -1 -10 -1.5t-9 -0.5q-33 0 -51 17t-18 46q0 31 20 50.5t49 19.5q35 0 57 -23.5t22 -70.5z" />
    <glyph glyph-name="dieresis" unicode="&#xa8;" horiz-adv-x="348" 
d="M-10 695q0 34 20 56t57 22q35 0 55 -22t20 -56q0 -33 -20 -54t-55 -21q-37 0 -57 21t-20 54zM208 695q0 34 19.5 56t56.5 22q35 0 55.5 -22t20.5 -56q0 -33 -20.5 -54t-55.5 -21q-37 0 -56.5 21t-19.5 54z" />
    <glyph glyph-name="dotaccent" unicode="&#x2d9;" horiz-adv-x="343" 
d="M77 723q0 35 20.5 57.5t59.5 22.5q37 0 57.5 -22.5t20.5 -57.5q0 -34 -20.5 -56t-57.5 -22q-39 0 -59.5 22t-20.5 56z" />
    <glyph glyph-name="dotbelow" horiz-adv-x="343" 
d="M92 -139q0 36 20.5 58.5t59.5 22.5q37 0 57.5 -22.5t20.5 -58.5q0 -34 -20.5 -56t-57.5 -22q-39 0 -59.5 22t-20.5 56z" />
    <glyph glyph-name="doublegrave" horiz-adv-x="343" 
d="M251 608l-89 219l82 28l73 -225zM117 608l-89 219l82 28l73 -225z" />
    <glyph glyph-name="grave" unicode="`" horiz-adv-x="343" 
d="M240 602l-178 170l59 56l166 -181z" />
    <glyph glyph-name="hungarumlaut" unicode="&#x2dd;" horiz-adv-x="343" 
d="M94 608l-66 22l73 225l82 -28zM248 608l-66 22l73 225l82 -28z" />
    <glyph glyph-name="invertedbreve" horiz-adv-x="343" 
d="M166 717q-44 0 -67.5 -26t-24.5 -80l-73 16q0 68 42.5 115t126.5 47q87 0 130.5 -47t43.5 -115l-76 -16q-1 55 -28.5 80.5t-73.5 25.5z" />
    <glyph glyph-name="macron" unicode="&#xaf;" horiz-adv-x="331" 
d="M21 640v72h289v-72h-289z" />
    <glyph glyph-name="ogonek" unicode="&#x2db;" horiz-adv-x="343" 
d="M197 -250q-54 0 -85.5 24.5t-31.5 68.5q0 49 31.5 88t86.5 74l59 -5q-48 -31 -73 -62.5t-25 -65.5q0 -23 16 -35t44 -12q10 0 19 1t19 3l-10 -72q-13 -4 -24.5 -5.5t-25.5 -1.5z" />
    <glyph glyph-name="ring" unicode="&#x2da;" horiz-adv-x="343" 
d="M172 599q-55 0 -91 36t-36 90t36 90.5t91 36.5q54 0 90.5 -36.5t36.5 -90.5t-36.5 -90t-90.5 -36zM172 656q30 0 48 18.5t18 50.5q0 33 -18 51.5t-49 18.5q-30 0 -47.5 -19t-17.5 -51t18.5 -50.5t47.5 -18.5z" />
    <glyph glyph-name="tilde" unicode="&#x2dc;" horiz-adv-x="351" 
d="M116 699q-15 0 -24 -12.5t-9 -39.5v-13.5t1 -12.5l-71 10q-1 5 -1 7.5v5.5q0 64 27.5 98.5t67.5 34.5q25 0 45.5 -12.5t38.5 -27t33.5 -27t31.5 -12.5q15 0 23.5 12.5t8.5 45.5v11.5t-1 9.5l71 -10q1 -4 1 -9v-8q0 -64 -27 -96.5t-67 -32.5q-25 0 -46 12t-38.5 27
t-33.5 27t-31 12z" />
    <glyph glyph-name="commaaccent.alt" horiz-adv-x="343" 
d="M238 674q0 -31 -20 -50.5t-50 -19.5q-34 0 -56 23.5t-22 70.5q0 57 37.5 99.5t102.5 49.5l22 -62q-46 -3 -70.5 -14t-31.5 -36q3 1 8.5 1.5t10.5 0.5q33 0 51 -17t18 -46z" />
    <glyph glyph-name="acute.cap" horiz-adv-x="330" 
d="M81 739l-39 54l208 156l50 -69z" />
    <glyph glyph-name="breve.cap" horiz-adv-x="343" 
d="M178 816q44 0 68 24t25 72l73 -16q-1 -64 -43 -108.5t-126 -44.5q-88 0 -131 44.5t-43 108.5l76 16q1 -49 28 -72.5t73 -23.5z" />
    <glyph glyph-name="caron.cap" horiz-adv-x="343" 
d="M199 744h-50l-160 149l52 48l133 -127l136 126l46 -47z" />
    <glyph glyph-name="circumflex.cap" horiz-adv-x="343" 
d="M147 931h50l159 -150l-52 -47l-133 126l-135 -126l-47 47z" />
    <glyph glyph-name="dieresis.cap" horiz-adv-x="348" 
d="M-5 816q0 32 18.5 52.5t53.5 20.5q34 0 53 -20.5t19 -52.5q0 -31 -19 -50.5t-53 -19.5q-35 0 -53.5 19.5t-18.5 50.5zM209 816q0 32 18.5 52.5t53.5 20.5q33 0 52 -20.5t19 -52.5q0 -31 -19 -50.5t-52 -19.5q-35 0 -53.5 19.5t-18.5 50.5z" />
    <glyph glyph-name="dotaccent.cap" horiz-adv-x="304" 
d="M78 825q0 33 19 54t56 21q34 0 53.5 -21t19.5 -54q0 -32 -19.5 -52.5t-53.5 -20.5q-37 0 -56 20.5t-19 52.5z" />
    <glyph glyph-name="doublegrave.cap" horiz-adv-x="350" 
d="M283 737l-118 189l75 38l97 -200zM136 731l-126 183l75 37l104 -190z" />
    <glyph glyph-name="grave.cap" horiz-adv-x="330" 
d="M264 739l-219 141l51 69l207 -156z" />
    <glyph glyph-name="hungarumlaut.cap" horiz-adv-x="348" 
d="M63 737l-54 27l97 200l75 -38zM210 731l-53 30l104 190l75 -37z" />
    <glyph glyph-name="invertedbreve.cap" horiz-adv-x="345" 
d="M166 839q-44 0 -67.5 -24.5t-24.5 -72.5l-73 16q1 64 42.5 108.5t125.5 44.5q88 0 131.5 -44t43.5 -109l-76 -16q-1 49 -28.5 73t-73.5 24z" />
    <glyph glyph-name="macron.cap" horiz-adv-x="343" 
d="M27 783v72h289v-72h-289z" />
    <glyph glyph-name="ring.cap" horiz-adv-x="343" 
d="M172 751q-52 0 -87 34t-35 85t34.5 85.5t87.5 34.5q51 0 86 -34.5t35 -85.5t-35 -85t-86 -34zM172 804q29 0 45.5 18t16.5 49q0 30 -17 47.5t-46 17.5q-28 0 -45 -18t-17 -47q0 -31 17.5 -49t45.5 -18z" />
    <glyph glyph-name="tilde.cap" horiz-adv-x="351" 
d="M111 845q-16 0 -25 -11.5t-9 -40.5v-15.5t1 -13.5l-71 10q-1 4 -1 7v6q0 66 27.5 99.5t67.5 33.5q25 0 46 -12.5t38.5 -27.5t33.5 -27.5t32 -12.5q14 0 22.5 11t8.5 41v14.5t-1 13.5l71 -9q1 -4 1 -7v-7q0 -66 -27 -99.5t-67 -33.5q-25 0 -45.5 12.5t-38 28t-33.5 28
t-31 12.5z" />
    <glyph glyph-name="period" unicode="." horiz-adv-x="283" 
d="M141 -10q-38 0 -62 24t-24 61t24 60.5t62 23.5q39 0 63 -23.5t24 -60.5t-24 -61t-63 -24z" />
    <glyph glyph-name="comma" unicode="," horiz-adv-x="290" 
d="M236 39q0 -78 -43.5 -144t-116.5 -95l-37 75q51 19 83.5 49t43.5 71q-6 -2 -13 -3t-14 -1q-40 0 -62 22.5t-22 58.5q0 38 24.5 62.5t60.5 24.5q43 0 69.5 -29.5t26.5 -90.5z" />
    <glyph glyph-name="colon" unicode=":" horiz-adv-x="283" 
d="M141 333q-38 0 -62 23.5t-24 60.5t24 61t62 24q39 0 63 -24t24 -61t-24 -60.5t-63 -23.5zM141 -10q-38 0 -62 24t-24 61t24 60.5t62 23.5q39 0 63 -23.5t24 -60.5t-24 -61t-63 -24z" />
    <glyph glyph-name="semicolon" unicode=";" horiz-adv-x="291" 
d="M142 333q-38 0 -62 23.5t-24 60.5t24 61t62 24q39 0 62.5 -24t23.5 -61t-23.5 -60.5t-62.5 -23.5zM237 39q0 -78 -43.5 -144t-116.5 -95l-37 75q51 19 83 49t43 71q-6 -2 -13 -3t-14 -1q-40 0 -61.5 22.5t-21.5 58.5q0 38 24.5 62.5t60.5 24.5q43 0 69.5 -29.5
t26.5 -90.5z" />
    <glyph glyph-name="ellipsis" unicode="&#x2026;" horiz-adv-x="736" 
d="M141 -10q-38 0 -62 24t-24 61t24 60.5t62 23.5q39 0 63 -23.5t24 -60.5t-24 -61t-63 -24zM368 -10q-38 0 -62 24t-24 61t24 60.5t62 23.5q39 0 62.5 -23.5t23.5 -60.5t-23.5 -61t-62.5 -24zM595 -10q-39 0 -62.5 24t-23.5 61t23.5 60.5t62.5 23.5q38 0 62 -23.5t24 -60.5
t-24 -61t-62 -24z" />
    <glyph glyph-name="exclam" unicode="!" horiz-adv-x="283" 
d="M121 233l-39 288q-5 39 -8.5 74t-3.5 57q0 47 20.5 67.5t50.5 20.5q29 0 49.5 -20.5t20.5 -67.5q0 -22 -3 -57t-8 -74l-38 -288h-41zM141 -10q-38 0 -62 24t-24 61t24 60.5t62 23.5q39 0 63 -23.5t24 -60.5t-24 -61t-63 -24z" />
    <glyph glyph-name="exclamdown" unicode="&#xa1;" horiz-adv-x="284" 
d="M131 570q38 0 62 -24t24 -61t-24 -60.5t-62 -23.5q-39 0 -63 23.5t-24 60.5t24 61t63 24zM151 327l39 -288q5 -40 8.5 -75t3.5 -57q0 -47 -20.5 -67.5t-50.5 -20.5q-29 0 -49.5 20.5t-20.5 67.5q0 22 3 57t8 75l38 288h41z" />
    <glyph glyph-name="exclamdown.cap" horiz-adv-x="284" 
d="M131 742q38 0 62 -24t24 -61t-24 -60.5t-62 -23.5q-39 0 -63 23.5t-24 60.5t24 61t63 24zM151 499l39 -288q5 -39 8.5 -74t3.5 -57q0 -47 -20.5 -68t-50.5 -21q-29 0 -49.5 21t-20.5 68q0 22 3 57t8 74l38 288h41z" />
    <glyph glyph-name="question" unicode="?" horiz-adv-x="558" 
d="M201 233q-1 6 -1.5 13t-0.5 12q0 53 31.5 83.5t69 55t69 53t31.5 76.5q0 49 -34.5 75t-85.5 26q-61 0 -94.5 -32.5t-43.5 -93.5l-122 35q24 87 89.5 145.5t174.5 58.5q58 0 101.5 -16t72.5 -42.5t43.5 -63t14.5 -76.5q0 -69 -34.5 -108t-75 -66.5t-75 -53.5t-34.5 -67
v-14h-96zM253 -10q-39 0 -63 24t-24 61t24 60.5t63 23.5q38 0 62 -23.5t24 -60.5t-24 -61t-62 -24z" />
    <glyph glyph-name="questiondown" unicode="&#xbf;" horiz-adv-x="558" 
d="M305 553q39 0 63 -24t24 -61t-24 -60.5t-63 -23.5q-38 -1 -62 22.5t-24 60.5q0 38 24 62t62 24zM357 310q1 -6 1.5 -13t0.5 -13q0 -53 -31.5 -83.5t-69 -55t-69 -53t-31.5 -76.5q0 -49 34.5 -75t85.5 -26q61 0 94.5 32.5t43.5 94.5l122 -35q-24 -88 -89.5 -146.5
t-174.5 -58.5q-58 0 -101.5 16t-72.5 42.5t-43.5 63t-14.5 76.5q0 69 34.5 108t75 66.5t75 53.5t34.5 67v14z" />
    <glyph glyph-name="questiondown.cap" horiz-adv-x="558" 
d="M305 740q39 0 63 -24t24 -61t-24 -60.5t-63 -23.5q-38 0 -62 23.5t-24 60.5t24 61t62 24zM357 497q1 -6 1.5 -13t0.5 -12q0 -53 -31.5 -83.5t-69 -55t-69 -53t-31.5 -76.5q0 -49 34.5 -75t85.5 -26q61 0 94.5 32.5t43.5 93.5l122 -35q-24 -87 -89.5 -145.5t-174.5 -58.5
q-58 0 -101.5 16t-72.5 42.5t-43.5 63t-14.5 76.5q0 69 34.5 108t75 66.5t75 53.5t34.5 67v14h96z" />
    <glyph glyph-name="interrobang" unicode="&#x203d;" horiz-adv-x="575" 
d="M306 245v-12h-58l-6 395q-45 -10 -73 -42.5t-41 -84.5l-112 35q22 75 78.5 130t137.5 69l-1 99h97l-3 -96q100 -10 152 -66t52 -130q0 -65 -35 -103.5t-76.5 -67t-76.5 -56t-35 -70.5zM314 630l-12 -289q13 23 33 41t37.5 36.5t30 41.5t12.5 57q1 50 -27 78.5t-74 34.5z
M274 -10q-39 0 -62.5 24t-23.5 61t23.5 60.5t62.5 23.5q38 0 62 -23.5t24 -60.5t-24 -61t-62 -24z" />
    <glyph glyph-name="interrobangdown" horiz-adv-x="575" 
d="M299 570q39 0 62.5 -24t23.5 -61t-23.5 -60.5t-62.5 -23.5q-38 0 -62 23.5t-24 60.5t24 61t62 24zM267 315v12h58l6 -396q45 10 73 42.5t41 85.5l112 -35q-22 -76 -78.5 -131t-137.5 -69l1 -99h-97l3 96q-100 10 -152 66t-52 131q0 65 35 103.5t76.5 67t76.5 56t35 70.5z
M259 -71l12 290q-13 -23 -33 -41t-37.5 -36.5t-30 -41.5t-12.5 -57q-1 -51 27 -79.5t74 -34.5z" />
    <glyph glyph-name="interrobangdown.cap" horiz-adv-x="575" 
d="M299 735q39 0 62.5 -24t23.5 -61t-23.5 -60.5t-62.5 -23.5q-38 0 -62 23.5t-24 60.5t24 61t62 24zM267 480v12h58l6 -395q45 10 73 42.5t41 84.5l112 -35q-22 -75 -78.5 -130t-137.5 -69l1 -99h-97l3 96q-100 10 -152 66t-52 130q0 65 35 103.5t76.5 67t76.5 56t35 70.5z
M259 95l12 289q-13 -23 -33 -41t-37.5 -36.5t-30 -41.5t-12.5 -57q-1 -50 27 -78.5t74 -34.5z" />
    <glyph glyph-name="quoteleft" unicode="&#x2018;" horiz-adv-x="290" 
d="M236 484q0 -38 -24.5 -62.5t-61.5 -24.5q-42 0 -68.5 29.5t-26.5 90.5q0 72 39 133t106 87l36 -83q-46 -12 -77 -35t-41 -61q7 3 15.5 4.5t18.5 1.5q40 0 62 -22.5t22 -57.5z" />
    <glyph glyph-name="quoteright" unicode="&#x2019;" horiz-adv-x="290" 
d="M139 569q-40 0 -62 22.5t-22 58.5q0 38 24.5 62.5t60.5 24.5q43 0 69.5 -29.5t26.5 -90.5q0 -73 -35.5 -133.5t-101.5 -86.5l-37 82q46 13 74.5 36t36.5 61q-7 -4 -16 -5.5t-18 -1.5z" />
    <glyph glyph-name="quotedblleft" unicode="&#x201c;" horiz-adv-x="511" 
d="M457 484q0 -38 -24.5 -62.5t-60.5 -24.5q-42 0 -69 29.5t-27 90.5q0 72 39.5 133t105.5 87l37 -83q-46 -12 -77.5 -35t-40.5 -61q7 3 15.5 4.5t18.5 1.5q40 0 61.5 -22.5t21.5 -57.5zM236 484q0 -38 -24.5 -62.5t-60.5 -24.5q-43 0 -69.5 29.5t-26.5 90.5q0 72 39 133
t106 87l37 -83q-47 -12 -78 -35t-40 -61q7 3 15.5 4.5t18.5 1.5q40 0 61.5 -22.5t21.5 -57.5z" />
    <glyph glyph-name="quotedblright" unicode="&#x201d;" horiz-adv-x="514" 
d="M236 617q0 -73 -39.5 -133.5t-105.5 -86.5l-37 82q46 13 77 36t41 61q-7 -4 -15.5 -5.5t-18.5 -1.5q-40 0 -61.5 22.5t-21.5 58.5q0 38 24.5 62.5t60.5 24.5q42 0 69 -29.5t27 -90.5zM278 479q46 13 77.5 36t40.5 61q-7 -4 -15.5 -5.5t-18.5 -1.5q-40 0 -61.5 22.5
t-21.5 58.5q0 38 24.5 62.5t60.5 24.5q43 0 69.5 -29.5t26.5 -90.5q0 -73 -39 -133.5t-106 -86.5z" />
    <glyph glyph-name="quotesinglbase" unicode="&#x201a;" horiz-adv-x="290" 
d="M236 41q0 -73 -39.5 -133.5t-105.5 -86.5l-37 82q46 13 77 36t41 61q-7 -3 -15.5 -5t-18.5 -2q-40 0 -61.5 23t-21.5 58q0 38 24.5 62.5t60.5 24.5q42 0 69 -29.5t27 -90.5z" />
    <glyph glyph-name="quotedblbase" unicode="&#x201e;" horiz-adv-x="514" 
d="M236 41q0 -73 -39.5 -133.5t-105.5 -86.5l-37 82q46 13 77 36t41 61q-7 -3 -15.5 -5t-18.5 -2q-40 0 -61.5 23t-21.5 58q0 38 24.5 62.5t60.5 24.5q42 0 69 -29.5t27 -90.5zM460 41q0 -73 -39 -133.5t-106 -86.5l-37 82q46 13 77.5 36t40.5 61q-7 -3 -15.5 -5t-18.5 -2
q-40 0 -61.5 23t-21.5 58q0 38 24.5 62.5t60.5 24.5q43 0 69.5 -29.5t26.5 -90.5z" />
    <glyph glyph-name="reversequoteleft" horiz-adv-x="290" 
d="M236 479l-36 -82q-67 26 -106 86.5t-39 133.5q0 61 26.5 90.5t68.5 29.5q37 0 61.5 -24.5t24.5 -62.5q0 -36 -22 -58.5t-62 -22.5q-10 0 -18.5 1.5t-15.5 5.5q10 -39 41 -61.5t77 -35.5z" />
    <glyph glyph-name="reversequotedblleft" horiz-adv-x="511" 
d="M457 479l-36 -82q-67 26 -106 86.5t-39 133.5q0 61 26.5 90.5t69.5 29.5q36 0 60.5 -24.5t24.5 -62.5q0 -36 -22 -58.5t-62 -22.5q-9 0 -17.5 1.5t-15.5 5.5q9 -39 40 -61.5t77 -35.5zM236 479l-36 -82q-67 26 -106 86.5t-39 133.5q0 61 26.5 90.5t68.5 29.5
q37 0 61.5 -24.5t24.5 -62.5q0 -36 -22 -58.5t-62 -22.5q-10 0 -18.5 1.5t-15.5 5.5q10 -39 41 -61.5t77 -35.5z" />
    <glyph glyph-name="guilsinglleft" unicode="&#x2039;" horiz-adv-x="301" 
d="M290 462l-160 -187l161 -188h-121l-158 184v8l161 183h117z" />
    <glyph glyph-name="guilsinglright" unicode="&#x203a;" horiz-adv-x="301" 
d="M290 271l-161 -184h-118l160 187l-161 188h121l159 -183v-8z" />
    <glyph glyph-name="guillemotleft" unicode="&#xab;" horiz-adv-x="496" 
d="M290 462l-160 -187l161 -188h-121l-158 184v8l161 183h117zM485 462l-160 -187l161 -188h-121l-158 184v8l161 183h117z" />
    <glyph glyph-name="guillemotright" unicode="&#xbb;" horiz-adv-x="496" 
d="M290 271l-161 -184h-118l160 187l-161 188h121l159 -183v-8zM485 271l-161 -184h-118l160 187l-161 188h121l159 -183v-8z" />
    <glyph glyph-name="guilsinglleft.cap" horiz-adv-x="301" 
d="M290 552l-160 -187l161 -188h-121l-158 184v8l161 183h117z" />
    <glyph glyph-name="guilsinglright.cap" horiz-adv-x="301" 
d="M290 361l-161 -184h-118l160 187l-161 188h121l159 -183v-8z" />
    <glyph glyph-name="guillemotleft.cap" horiz-adv-x="496" 
d="M290 552l-160 -187l161 -188h-121l-158 184v8l161 183h117zM485 552l-160 -187l161 -188h-121l-158 184v8l161 183h117z" />
    <glyph glyph-name="guillemotright.cap" horiz-adv-x="496" 
d="M290 361l-161 -184h-118l160 187l-161 188h121l159 -183v-8zM485 361l-161 -184h-118l160 187l-161 188h121l159 -183v-8z" />
    <glyph glyph-name="slash" unicode="/" horiz-adv-x="410" 
d="M-11 -184l350 960h97l-350 -960h-97z" />
    <glyph glyph-name="backslash" unicode="\" horiz-adv-x="410" 
d="M437 -184h-97l-351 960h98z" />
    <glyph glyph-name="bar" unicode="|" horiz-adv-x="213" 
d="M152 -184h-92v960h92v-960z" />
    <glyph glyph-name="doublebar" horiz-adv-x="427" 
d="M148 -184h-92v960h92v-960zM363 -184h-92v960h92v-960z" />
    <glyph glyph-name="brokenbar" unicode="&#xa6;" horiz-adv-x="213" 
d="M152 346h-92v430h92v-430zM152 -184h-92v430h92v-430z" />
    <glyph glyph-name="bullet" unicode="&#x2022;" horiz-adv-x="351" 
d="M175 190q-43 0 -74 30t-31 75q0 46 31 75.5t74 29.5t74.5 -29.5t31.5 -75.5q0 -45 -31.5 -75t-74.5 -30z" />
    <glyph glyph-name="slash.cap" horiz-adv-x="410" 
d="M88 -106h-97l330 882h97z" />
    <glyph glyph-name="backslash.cap" horiz-adv-x="410" 
d="M322 -106l-330 882h97l330 -882h-97z" />
    <glyph glyph-name="bar.cap" horiz-adv-x="213" 
d="M152 -106h-92v882h92v-882z" />
    <glyph glyph-name="doublebar.cap" horiz-adv-x="427" 
d="M148 -106h-92v882h92v-882zM363 -106h-92v882h92v-882z" />
    <glyph glyph-name="brokenbar.cap" horiz-adv-x="213" 
d="M152 381h-92v395h92v-395zM152 -106h-92v395h92v-395z" />
    <glyph glyph-name="bullet.cap" horiz-adv-x="351" 
d="M171 230q-43 0 -74 30t-31 75q0 46 31 75.5t74 29.5t74.5 -29.5t31.5 -75.5q0 -45 -31.5 -75t-74.5 -30z" />
    <glyph glyph-name="periodcentered" unicode="&#xb7;" horiz-adv-x="253" 
d="M126 209q-38 0 -62 24t-24 61t24 60.5t62 23.5q39 0 63 -23.5t24 -60.5t-24 -61t-63 -24z" />
    <glyph glyph-name="hyphen" unicode="-" horiz-adv-x="449" 
d="M60 254v94h328v-94h-328z" />
    <glyph glyph-name="uni00AD" unicode="&#xad;" horiz-adv-x="449" 
d="M60 254v94h328v-94h-328z" />
    <glyph glyph-name="onethirdemdash" horiz-adv-x="387" 
d="M60 254v94h266v-94h-266z" />
    <glyph glyph-name="endash" unicode="&#x2013;" horiz-adv-x="664" 
d="M60 254v94h543v-94h-543z" />
    <glyph glyph-name="threequarteremdash" horiz-adv-x="720" 
d="M60 254v94h600v-94h-600z" />
    <glyph glyph-name="emdash" unicode="&#x2014;" horiz-adv-x="919" 
d="M60 254v94h798v-94h-798z" />
    <glyph glyph-name="figuredash" unicode="&#x2012;" horiz-adv-x="720" 
d="M60 254v94h600v-94h-600z" />
    <glyph glyph-name="uni2015" unicode="&#x2015;" horiz-adv-x="919" 
d="M60 254v94h798v-94h-798z" />
    <glyph glyph-name="periodcentered.cap" horiz-adv-x="298" 
d="M149 282q-38 0 -62 24t-24 61t24 60.5t62 23.5q39 0 63 -23.5t24 -60.5t-24 -61t-63 -24z" />
    <glyph glyph-name="hyphen.cap" horiz-adv-x="449" 
d="M60 320v93h328v-93h-328z" />
    <glyph glyph-name="onethirdemdash.cap" horiz-adv-x="387" 
d="M60 320v93h266v-93h-266z" />
    <glyph glyph-name="endash.cap" horiz-adv-x="664" 
d="M60 320v93h543v-93h-543z" />
    <glyph glyph-name="threequarteremdash.cap" horiz-adv-x="720" 
d="M60 320v93h600v-93h-600z" />
    <glyph glyph-name="emdash.cap" horiz-adv-x="919" 
d="M60 320v93h798v-93h-798z" />
    <glyph glyph-name="figuredash.cap" horiz-adv-x="720" 
d="M60 320v93h600v-93h-600z" />
    <glyph glyph-name="uni2015.cap" horiz-adv-x="919" 
d="M60 320v93h798v-93h-798z" />
    <glyph glyph-name="parenleft" unicode="(" horiz-adv-x="392" 
d="M50 296q0 151 63 285.5t163 230.5l91 -96q-54 -38 -93.5 -87t-65 -103.5t-38 -113.5t-12.5 -116q0 -56 13 -114.5t38.5 -112.5t65.5 -103t94 -87l-93 -101q-100 96 -163 231.5t-63 286.5z" />
    <glyph glyph-name="parenright" unicode=")" horiz-adv-x="392" 
d="M343 296q0 -151 -63 -286.5t-164 -231.5l-92 101q54 38 94 87t65.5 103t38.5 112.5t13 114.5q0 57 -12 116t-37.5 113.5t-64.5 103.5t-93 87l90 96q101 -96 163 -230.5t62 -285.5z" />
    <glyph glyph-name="bracketleft" unicode="[" horiz-adv-x="391" 
d="M78 -200v990h273v-113h-172v-764h172v-113h-273z" />
    <glyph glyph-name="bracketright" unicode="]" horiz-adv-x="391" 
d="M313 -200h-273v113h172v764h-172v113h273v-990z" />
    <glyph glyph-name="braceleft" unicode="{" horiz-adv-x="417" 
d="M377 -196q-19 -1 -52.5 -2.5t-58.5 -1.5q-74 0 -125.5 34.5t-51.5 112.5q0 39 8.5 70t19 58.5t19 53.5t8.5 55q0 31 -16 48.5t-60 17.5h-37v90h37q44 0 60 18t16 48q0 29 -8.5 55.5t-18 54.5t-18 59t-8.5 69t14.5 66t39 45.5t57.5 26t70 8.5q25 0 55.5 -1.5t49.5 -2.5
v-112q-20 2 -40 3t-36 1q-53 0 -74 -19.5t-21 -57.5q0 -24 5.5 -47.5t11.5 -47t11.5 -47t5.5 -46.5q0 -40 -21 -75.5t-69 -42.5q48 -7 69 -41.5t21 -71.5q0 -26 -5 -49.5t-11.5 -46.5t-11.5 -46.5t-5 -49.5q0 -37 21 -57.5t74 -20.5q16 0 35 1t40 3v-112z" />
    <glyph glyph-name="braceright" unicode="}" horiz-adv-x="417" 
d="M40 -196v112q21 -2 40 -3t35 -1q53 0 74 20.5t21 57.5q0 26 -5 49.5t-11.5 46.5t-11.5 46.5t-5 49.5q0 37 21 71.5t69 41.5q-48 7 -69 42.5t-21 75.5q0 23 5.5 46.5t11.5 47t11.5 47t5.5 47.5q0 38 -21 57.5t-74 19.5q-16 0 -36 -1t-40 -3v112q19 1 49.5 2.5t55.5 1.5
q37 0 70 -8.5t57.5 -26t39 -45.5t14.5 -66t-8.5 -69t-18 -59t-18 -54.5t-8.5 -55.5q0 -30 16 -48t60 -18h37v-90h-37q-44 0 -60 -17.5t-16 -48.5q0 -29 8.5 -55t19 -53.5t19 -58.5t8.5 -70q0 -78 -51.5 -112.5t-125.5 -34.5q-25 0 -58.5 1.5t-52.5 2.5z" />
    <glyph glyph-name="anglebracketleft" unicode="&#x3008;" horiz-adv-x="369" 
d="M363 790l-248 -491l248 -499h-137l-207 498l209 492h135z" />
    <glyph glyph-name="anglebracketright" unicode="&#x3009;" horiz-adv-x="369" 
d="M350 293l-208 -493h-136l256 496l-253 494h137z" />
    <glyph glyph-name="parenleft.cap" horiz-adv-x="392" 
d="M56 325q0 132 59 248.5t154 202.5l100 -88q-100 -73 -152.5 -162.5t-52.5 -201.5q0 -108 49.5 -195.5t150.5 -156.5l-97 -84q-105 90 -158 199.5t-53 237.5z" />
    <glyph glyph-name="parenright.cap" horiz-adv-x="392" 
d="M336 339q0 -132 -58.5 -248.5t-153.5 -202.5l-100 88q99 73 151.5 163t52.5 202q0 107 -49.5 194.5t-150.5 156.5l98 84q104 -90 157 -199.5t53 -237.5z" />
    <glyph glyph-name="bracketleft.cap" horiz-adv-x="383" 
d="M70 -107v883h273v-113h-171v-656h171v-114h-273z" />
    <glyph glyph-name="bracketright.cap" horiz-adv-x="383" 
d="M313 -107h-273v114h171v656h-171v113h273v-883z" />
    <glyph glyph-name="braceleft.cap" horiz-adv-x="416" 
d="M95 632q0 39 14.5 66.5t39.5 45t59 25.5t73 8q5 0 17.5 -0.5t27.5 -1t29.5 -1.5t23.5 -1v-112q-20 1 -40.5 2t-43.5 1q-45 0 -66.5 -18t-21.5 -56q0 -24 5 -43.5t11 -37t11 -35t5 -37.5q0 -34 -19 -65t-74 -36q55 -6 74 -36.5t19 -60.5q0 -42 -15.5 -81t-15.5 -79
q0 -38 19.5 -57t67.5 -19q23 0 43.5 1t40.5 3v-112q-9 -1 -23.5 -1.5t-28.5 -1t-26.5 -1t-17.5 -0.5q-84 0 -136.5 32.5t-52.5 110.5q0 30 7.5 55t16.5 47.5t16.5 44.5t7.5 46q0 27 -14.5 45t-64.5 18h-30v91h30q50 0 64.5 18t14.5 45q0 24 -7.5 43.5t-16 39.5t-16 45
t-7.5 60z" />
    <glyph glyph-name="braceright.cap" horiz-adv-x="416" 
d="M321 36q0 -39 -14.5 -66.5t-39.5 -45t-59 -25.5t-73 -8q-5 0 -17.5 0.5t-27.5 1t-29.5 1.5t-23.5 1v112q20 -1 40.5 -2t43.5 -1q45 0 66.5 18t21.5 56q0 24 -5 43.5t-11 37t-11 35t-5 37.5q0 34 19 65t74 36q-55 6 -74 36.5t-19 60.5q0 42 15.5 81t15.5 79q0 38 -19.5 57
t-67.5 19q-23 0 -43.5 -1t-40.5 -3v112q9 1 23.5 1.5t28.5 1t26.5 1t17.5 0.5q84 0 136.5 -32.5t52.5 -110.5q0 -30 -7.5 -55t-16.5 -47.5t-16.5 -44.5t-7.5 -46q0 -27 14.5 -45t64.5 -18h30v-91h-30q-50 0 -64.5 -18t-14.5 -45q0 -24 7.5 -43.5t16 -39.5t16 -45t7.5 -60z
" />
    <glyph glyph-name="anglebracketleft.cap" horiz-adv-x="374" 
d="M358 776l-243 -430l243 -453h-137l-202 452l204 431h135z" />
    <glyph glyph-name="anglebracketright.cap" horiz-adv-x="374" 
d="M355 329l-204 -436h-135l242 436l-242 447h137z" />
    <glyph glyph-name="asterisk" unicode="*" horiz-adv-x="430" 
d="M134 340l-75 55l97 115l-146 37l29 88l140 -56l-10 151h93l-11 -151l140 56l29 -88l-146 -37l97 -115l-75 -55l-81 128z" />
    <glyph glyph-name="dagger" unicode="&#x2020;" horiz-adv-x="417" 
d="M262 -74h-107v521h-134v92h134v237h107v-237h134v-92h-134v-521z" />
    <glyph glyph-name="daggerdbl" unicode="&#x2021;" horiz-adv-x="417" 
d="M21 152v91h134v244h-134v92h134v197h107v-197h134v-92h-134v-244h134v-91h-134v-226h-107v226h-134z" />
    <glyph glyph-name="section" unicode="&#xa7;" horiz-adv-x="578" 
d="M304 -135q-96 0 -168 31.5t-115 77.5l85 78q37 -40 88 -65t117 -25q61 0 88.5 24.5t27.5 55.5q0 37 -36.5 55t-135.5 33q-129 19 -178 59.5t-49 105.5q0 49 35.5 83.5t90.5 53.5q-12 4 -22 9t-17 10q-34 21 -50 50.5t-16 68.5q0 74 59.5 122t163.5 48q84 0 149.5 -29
t117.5 -83l-84 -75q-37 43 -83 66t-106 23q-57 0 -85 -21.5t-28 -53.5q0 -16 5.5 -28.5t22 -22.5t46.5 -18.5t79 -15.5q131 -19 183.5 -59t52.5 -108q0 -49 -34 -83.5t-92 -52.5q10 -4 19.5 -8t18.5 -8q43 -22 62 -53.5t19 -71.5q0 -75 -62 -124t-169 -49zM296 205
q16 -2 30 -4.5t27 -5.5q50 18 74.5 42.5t24.5 60.5q0 43 -39 67.5t-133 37.5q-18 3 -34.5 6t-31.5 6q-47 -15 -71.5 -41t-24.5 -61q0 -44 40 -69.5t138 -38.5z" />
    <glyph glyph-name="paragraph" unicode="&#xb6;" horiz-adv-x="674" 
d="M331 0v240q-152 5 -227 67t-75 174q0 119 81.5 184t238.5 65h261v-730h-114v621h-80v-621h-85zM153 460q0 -69 46.5 -106.5t133.5 -41.5v309q-91 -4 -135.5 -44.5t-44.5 -116.5z" />
    <glyph glyph-name="asciicircum" unicode="^" horiz-adv-x="383" 
d="M142 730h85l140 -343h-95l-88 230l-75 -230h-94z" />
    <glyph glyph-name="asciitilde" unicode="~" horiz-adv-x="470" 
d="M439 466q6 -55 -1.5 -93t-23 -61t-36 -33t-40.5 -10q-32 0 -57 17t-44.5 37t-37 37t-36.5 17q-22 0 -32.5 -23t-3.5 -84h-85q-6 55 1.5 93t23.5 60.5t37.5 32.5t42.5 10q34 0 58.5 -17t44 -37t36 -37t34.5 -17q20 0 30.5 23.5t3.5 84.5h85z" />
    <glyph glyph-name="underscore" unicode="_" horiz-adv-x="513" 
d="M34 -125v62h444v-62h-444z" />
    <glyph glyph-name="lowline" horiz-adv-x="682" 
d="M25 -125v62h632v-62h-632z" />
    <glyph glyph-name="quotesingle" unicode="'" horiz-adv-x="177" 
d="M55 473l-18 257h103l-17 -257h-68z" />
    <glyph glyph-name="quotedbl" unicode="&#x22;" horiz-adv-x="340" 
d="M55 473l-18 257h103l-17 -257h-68zM217 473l-18 257h104l-18 -257h-68z" />
    <glyph glyph-name="tripleprime" horiz-adv-x="477" 
d="M35 488l43 242h100l-75 -242h-68zM178 488l43 242h101l-76 -242h-68zM322 488l42 242h101l-75 -242h-68z" />
    <glyph glyph-name="at" unicode="@" horiz-adv-x="1016" 
d="M455 27q-77 0 -126 54.5t-49 139.5q0 51 17 97.5t46.5 81t70 54.5t87.5 20q35 0 65 -12.5t50 -37.5q9 -11 17 -24.5t13 -28.5l14 93h72l-41 -260q-10 -67 12.5 -93t61.5 -26q43 0 73.5 38.5t30.5 124.5q0 72 -22.5 135.5t-66 110t-109 73.5t-151.5 27q-87 0 -155.5 -31
t-115 -82.5t-70.5 -119t-24 -139.5q0 -69 24.5 -130t73 -106t121 -71t168.5 -26q73 0 133.5 18t103.5 51l53 -83q-47 -31 -121.5 -57.5t-180.5 -26.5q-112 0 -201 32t-150 89t-93.5 137t-32.5 174q0 87 31 171t90 149.5t147.5 106t201.5 40.5t196.5 -36t137.5 -94t80 -131.5
t26 -147.5q0 -119 -56 -191.5t-149 -72.5q-55 0 -96.5 30.5t-42.5 89.5q-23 -46 -63 -78t-101 -32zM481 92q38 0 66.5 18t47.5 45.5t28.5 62t9.5 66.5q0 54 -30.5 91.5t-87.5 37.5q-36 0 -65 -16t-49 -41.5t-30.5 -59t-10.5 -68.5q0 -66 35.5 -101t85.5 -35z" />
    <glyph glyph-name="at.cap" horiz-adv-x="1016" 
d="M455 130q-77 0 -126 54.5t-49 139.5q0 51 17 97.5t46.5 81t70 54.5t87.5 20q35 0 65 -12.5t50 -37.5q9 -11 17 -24.5t13 -28.5l14 93h72l-41 -260q-10 -67 12.5 -93t61.5 -26q43 0 73.5 38.5t30.5 124.5q0 72 -22.5 135.5t-66 110t-109 73.5t-151.5 27q-87 0 -155.5 -31
t-115 -82.5t-70.5 -119t-24 -139.5q0 -69 24.5 -130t73 -106t121 -71t168.5 -26q73 0 133.5 18t103.5 51l53 -83q-47 -31 -121.5 -57.5t-180.5 -26.5q-112 0 -201 32t-150 89t-93.5 137t-32.5 174q0 87 31 171t90 149.5t147.5 106t201.5 40.5t196.5 -36t137.5 -94t80 -131.5
t26 -147.5q0 -119 -56 -191.5t-149 -72.5q-55 0 -96.5 30.5t-42.5 89.5q-23 -46 -63 -78t-101 -32zM481 195q38 0 66.5 18t47.5 45.5t28.5 62t9.5 66.5q0 54 -30.5 91.5t-87.5 37.5q-36 0 -65 -16t-49 -41.5t-30.5 -59t-10.5 -68.5q0 -66 35.5 -101t85.5 -35z" />
    <glyph glyph-name="copyright" unicode="&#xa9;" horiz-adv-x="851" 
d="M425 742q81 0 150.5 -28t120 -78t79 -119t28.5 -150t-28.5 -150t-79 -119t-120 -78t-150.5 -28t-150 28t-119.5 78t-79 119t-28.5 150t28.5 150t79 119t119.5 78t150 28zM427 80q63 0 115 20.5t88.5 58t56.5 90.5t20 118t-20 118t-57 90.5t-89 58t-116 20.5
q-63 0 -115.5 -20.5t-89 -58t-56.5 -90.5t-20 -118t20.5 -118t57 -90.5t89 -58t116.5 -20.5zM596 427l-69 -20q-10 43 -33.5 65.5t-63.5 22.5q-49 0 -76 -33.5t-27 -90.5q0 -54 27.5 -86.5t77.5 -32.5q42 0 65.5 22.5t31.5 66.5l70 -14q-13 -67 -56.5 -103t-111.5 -36
q-81 0 -129.5 50t-48.5 131q0 84 49.5 137t127.5 53q66 0 108 -36t58 -96z" />
    <glyph glyph-name="registered" unicode="&#xae;" horiz-adv-x="621" 
d="M310 741q54 0 102.5 -19t84 -53.5t56.5 -83t21 -107.5t-21 -107.5t-56.5 -82.5t-84 -53t-102.5 -19t-102.5 19t-84 53t-56.5 82.5t-21 107.5t21 107.5t56.5 83t84 53.5t102.5 19zM310 277q87 0 143 57t56 144t-56 144t-143 57q-86 0 -142 -57t-56 -144t56 -144t142 -57z
M371 352l-9 56q-4 25 -14.5 35t-38.5 10h-44v-101h-59v271h133q44 0 67.5 -21t23.5 -55q0 -27 -17 -45.5t-45 -25.5q26 -5 38 -20.5t17 -42.5l12 -61h-64zM324 571h-59v-81h60q23 0 36 11t13 30q0 20 -12.5 30t-37.5 10z" />
    <glyph glyph-name="registered.cap" horiz-adv-x="860" 
d="M430 742q83 0 152.5 -29t119 -79t77 -119.5t27.5 -148.5t-28 -147.5t-77.5 -118.5t-119 -79t-152.5 -29q-82 0 -151.5 29t-119 79t-77.5 118.5t-28 147.5t28 148.5t77.5 119.5t119 79t152.5 29zM431 81q65 0 116.5 21t87 58.5t54.5 90.5t19 116q0 64 -19 117t-54.5 90.5
t-87.5 58t-117 20.5t-116.5 -20.5t-87.5 -58t-55.5 -90.5t-19.5 -117t19 -117t55 -90.5t88.5 -58t117.5 -20.5zM594 197h-71l-15 69q-10 46 -25.5 56.5t-61.5 10.5h-54v-136h-68v360h159q64 0 97.5 -27t33.5 -71q0 -40 -26 -65.5t-69 -34.5q12 -1 22.5 -4t18.5 -7
q14 -8 22.5 -23t14.5 -40zM453 500h-86v-122h84q34 0 54 17t20 48q0 28 -18 42.5t-54 14.5z" />
    <glyph glyph-name="published" unicode="&#x2117;" horiz-adv-x="859" 
d="M430 742q83 0 152.5 -29t119 -79t77 -119.5t27.5 -148.5t-28 -147.5t-77.5 -118.5t-119 -79t-152.5 -29q-82 0 -151.5 29t-119 79t-77.5 118.5t-28 147.5t28 148.5t77.5 119.5t119 79t152.5 29zM431 81q65 0 116.5 20.5t87 58t54.5 90.5t19 117t-19 117t-54.5 90.5
t-87.5 58t-117 20.5t-116.5 -20.5t-87.5 -58t-55.5 -90.5t-19.5 -117t19 -117t55 -90.5t88.5 -58t117.5 -20.5zM448 312h-70v-115h-68v360h152q66 0 102 -32.5t36 -87.5t-38.5 -90t-113.5 -35zM460 500h-82v-142h74q43 0 63 20t20 55q0 33 -19 50t-56 17z" />
    <glyph glyph-name="trademark" unicode="&#x2122;" horiz-adv-x="674" 
d="M6 668v62h269v-62h-98v-248h-73v248h-98zM305 420v310h80l78 -218l12 -32l11 32l79 218h79v-310h-67v172l2 60l-19 -60l-62 -172h-47l-62 172l-19 59l2 -59v-172h-67z" />
    <glyph glyph-name="servicemark" unicode="&#x2120;" horiz-adv-x="693" 
d="M11 472l46 49q21 -22 48 -35t58 -13q28 0 42.5 9.5t14.5 28.5t-20.5 28t-63.5 16q-60 10 -86.5 31t-26.5 56q0 40 31 67t86 27q41 0 77.5 -15.5t60.5 -43.5l-45 -45q-13 16 -36 30.5t-59 14.5q-23 0 -39 -10t-16 -29q0 -17 15.5 -27.5t67.5 -19.5q58 -10 86 -29t28 -56
q0 -40 -31.5 -65.5t-86.5 -25.5q-49 0 -90 17.5t-61 39.5zM325 420v310h79l80 -221l10 -29l11 29l80 221h79v-310h-67v172l2 60l-19 -60l-62 -172h-48l-61 172l-19 59l2 -59v-172h-67z" />
    <glyph glyph-name="Euro" unicode="&#x20ac;" horiz-adv-x="785" 
d="M453 323l-19 -63h-213q19 -70 68.5 -114t136.5 -44q95 0 142 52t61 135l117 -22q-13 -61 -39 -112t-66 -87.5t-95 -57t-126 -20.5q-72 0 -128 21t-96 57.5t-65 86t-37 105.5h-91v63h85q-1 10 -1 16.5v14.5v16t1 20h-85v63h90q12 60 40 112.5t70 91t99 61t126 22.5
q124 0 202 -72t109 -195l-118 -32q-18 83 -65 135t-134 52q-84 0 -135 -49.5t-69 -125.5h264l-17 -63h-258q-1 -10 -1 -16.5v-13.5q0 -9 0.5 -17t1.5 -20h245z" />
    <glyph glyph-name="dollar" unicode="$" horiz-adv-x="667" 
d="M13 140l104 86q37 -49 79.5 -78.5t98.5 -39.5v224q-125 19 -188.5 62.5t-63.5 136.5q0 42 17 79.5t48.5 65.5t78.5 45.5t106 20.5v118h76v-120q84 -9 147.5 -46t115.5 -104l-107 -79q-30 43 -68 71.5t-91 39.5v-213q128 -22 194 -67.5t66 -140.5q0 -88 -69 -148t-188 -64
v-139h-76v142q-96 9 -165 47.5t-115 100.5zM158 528q0 -42 28.5 -65.5t108.5 -40.5v206q-69 0 -103 -30t-34 -70zM507 212q0 43 -33.5 66.5t-107.5 39.5v-215q70 0 105.5 31.5t35.5 77.5z" />
    <glyph glyph-name="cent" unicode="&#xa2;" horiz-adv-x="651" 
d="M300 -44v112q-62 6 -110 30t-79.5 62t-47.5 87.5t-16 106.5q0 54 17.5 103.5t49.5 88.5t79.5 65t106.5 33v122h79v-121q101 -9 158 -66.5t77 -142.5l-118 -23q-10 51 -39 86t-83 43v-370q58 8 87 44.5t42 82.5l111 -29q-9 -35 -27.5 -69t-47 -61.5t-69 -46.5t-91.5 -25
v-112h-79zM170 356q0 -69 31.5 -120t103.5 -63v368q-67 -12 -101 -64.5t-34 -120.5z" />
    <glyph glyph-name="sterling" unicode="&#xa3;" horiz-adv-x="676" 
d="M37 292v63h83q-16 32 -32 67t-16 83q0 50 19.5 93t55 74.5t85 49.5t108.5 18q131 0 202.5 -71.5t81.5 -190.5l-122 -23q-5 79 -43 128.5t-116 49.5q-67 0 -108 -39t-41 -103q0 -37 12 -70t23 -66h264v-63h-251v-10q0 -47 -17 -81.5t-44 -59.5q14 4 30.5 7t35.5 3
q34 0 63.5 -8.5t56 -18t52 -18t50.5 -8.5q33 0 54 22.5t28 73.5l100 -26q-7 -52 -25 -87t-41.5 -55.5t-51.5 -29t-54 -8.5q-38 0 -69 10t-57.5 21.5t-53 21.5t-55.5 10q-40 0 -82 -17.5t-82 -39.5l-49 92q75 41 98 80t23 85q0 11 -1.5 21t-4.5 20h-109z" />
    <glyph glyph-name="florin" unicode="&#x192;" horiz-adv-x="570" 
d="M152 -37l84 321h-149v71h167l52 195q24 91 62 140.5t123 50.5q23 0 42.5 -3.5t34.5 -6.5v-100q-15 3 -31 4t-31 1q-37 0 -55 -19t-30 -63l-52 -199h150v-71h-169l-83 -317q-24 -92 -62.5 -137.5t-125.5 -45.5q-23 0 -42.5 3t-34.5 7v100q14 -2 30 -4t32 -2
q37 0 56.5 15.5t31.5 59.5z" />
    <glyph glyph-name="yen" unicode="&#xa5;" horiz-adv-x="670" 
d="M570 181h-176v-181h-121v181h-175v64h175v62h-175v64h154l-241 359h133l170 -256l22 -34l22 34l170 256h131l-243 -359h154v-64h-176v-62h176v-64z" />
    <glyph glyph-name="uni20A1" unicode="&#x20a1;" horiz-adv-x="793" 
d="M61 38l61 81q-37 49 -54.5 112.5t-17.5 133.5q0 75 24 143.5t70.5 119.5t114.5 81.5t155 30.5q40 0 77 -8t70 -22l44 60l50 -35l-40 -54q14 -8 27.5 -18.5t26.5 -20.5l43 58l50 -35l-414 -557q13 -3 28.5 -4.5t31.5 -1.5q107 0 158 53t65 136l123 -23q-13 -60 -40 -111.5
t-70 -88.5t-103 -57.5t-137 -20.5q-36 0 -68.5 5t-60.5 15l-58 -79l-49 37l50 67q-15 10 -28.5 19.5t-25.5 19.5l-54 -72zM174 365q0 -37 6.5 -72.5t20.5 -66.5l289 388q-18 7 -38.5 10.5t-43.5 3.5q-59 0 -103 -21t-73 -57t-43.5 -84t-14.5 -101zM236 170q10 -13 23.5 -23
t28.5 -18l310 416q-13 12 -26 22.5t-27 19.5z" />
    <glyph glyph-name="uni20A2" unicode="&#x20a2;" horiz-adv-x="793" 
d="M519 355q-55 0 -82 -47.5t-27 -146.5v-62q99 1 150 48t71 127l123 -23q-15 -58 -42.5 -106t-70 -82.5t-100.5 -53.5t-133 -19q-95 0 -163 31.5t-111 83.5t-63.5 120t-20.5 140q0 75 24 143.5t70.5 119.5t114.5 81.5t155 30.5q66 0 121.5 -19.5t97.5 -52.5t71 -78.5
t43 -96.5l-123 -35q-9 34 -25.5 65t-42.5 54.5t-62.5 37t-85.5 13.5q-59 0 -103 -21t-73 -57t-43.5 -84t-14.5 -101q0 -43 9 -84.5t28 -75.5t49.5 -59.5t72.5 -37.5v312h76v-116q19 62 52.5 93.5t79.5 31.5q28 0 52 -8t43 -23l-29 -72q-23 15 -42 22t-46 7z" />
    <glyph glyph-name="franc" unicode="&#x20a3;" horiz-adv-x="667" 
d="M229 0h-122v165h-102v71h102v494h512v-110h-390v-170h337v-79h-337v-136h202v-68h-202v-167z" />
    <glyph glyph-name="lira" unicode="&#x20a4;" horiz-adv-x="676" 
d="M37 234v56h110q-4 18 -12 34.5t-17 33.5h-81v56h54q-8 19 -13.5 41.5t-5.5 49.5q0 50 19.5 93t55 74.5t85 49.5t108.5 18q131 0 202.5 -71.5t81.5 -190.5l-122 -23q-5 79 -43 128.5t-116 49.5q-67 0 -109 -39t-42 -103q0 -20 4 -39.5t10 -37.5h285v-56h-267
q5 -17 8.5 -34t4.5 -34h254v-56h-259q-7 -29 -20.5 -52t-32.5 -42q15 4 32 7.5t36 3.5q34 0 63.5 -8.5t56 -18t52 -18t50.5 -8.5q33 0 54 22.5t28 73.5l100 -26q-7 -52 -25 -87t-41.5 -55.5t-51.5 -29t-54 -8.5q-38 0 -69 10t-57.5 21.5t-53 21.5t-55.5 10q-40 0 -82 -17.5
t-82 -39.5l-49 92q68 37 92.5 72.5t27.5 75.5h-114z" />
    <glyph glyph-name="indianrupee" unicode="&#x20b9;" horiz-adv-x="618" 
d="M592 624h-112v-92h112v-79h-122q-15 -50 -62.5 -84.5t-117.5 -44.5q20 -2 36.5 -7t30.5 -14q28 -18 46.5 -43t34.5 -53l110 -207h-131l-81 155q-19 37 -35.5 62.5t-36.5 41t-48 22.5t-70 7h-109v71h170q73 0 111.5 23t48.5 74h-330v74h333v94h-333v106h555v-106z" />
    <glyph glyph-name="uni20A6" unicode="&#x20a6;" horiz-adv-x="712" 
d="M496 0l-137 276h-156v-276h-114v273h-84v63h84v65h-84v63h84v266h136l133 -269h151v269h114v-266h83v-63h-83v-65h83v-63h-83v-273h-127zM203 461h64l-64 137v-137zM203 334h127l-34 69h-93v-69zM421 334h88v69h-122zM450 276l59 -129v129h-59z" />
    <glyph glyph-name="peseta" unicode="&#x20a7;" horiz-adv-x="738" 
d="M354 233h-142v-233h-122v433h-85v70h85v227h274q143 0 217.5 -62.5t78.5 -164.5h74v-70h-79q-19 -100 -100 -150t-201 -50zM365 620h-153v-119h337q-10 63 -57 91t-127 28zM356 311q90 0 138 32t56 92h-338v-124h144z" />
    <glyph glyph-name="uni20A8" unicode="&#x20a8;" horiz-adv-x="1129" 
d="M307 288h-106v-288h-122v730h224q140 0 206.5 -54t66.5 -138q0 -81 -51 -133.5t-131 -68.5q44 -5 73 -17t47 -31.5t29 -47t19 -63.5l40 -177h-132l-29 153q-15 74 -43 104.5t-91 30.5zM288 624h-87v-261h86q82 0 127 36t45 97t-39 94.5t-132 33.5zM994 166q0 35 -34 52
t-121 33q-84 16 -135.5 48t-51.5 108q0 73 55.5 118t148.5 45q69 0 125.5 -25.5t101.5 -74.5l-63 -82q-32 34 -73.5 57t-92.5 23t-76 -18.5t-25 -48.5q0 -37 33 -51t111 -30q39 -8 75.5 -18t64.5 -27t44.5 -44t16.5 -70q0 -32 -12.5 -63t-38 -54.5t-66 -38t-94.5 -14.5
q-80 0 -142.5 28t-102.5 77l70 82q28 -33 72 -58t110 -25q50 0 75 19.5t25 51.5z" />
    <glyph glyph-name="uni20A9" unicode="&#x20a9;" horiz-adv-x="926" 
d="M591 0l-60 279h-144l-61 -279h-118l-67 277h-114v63h99l-17 69h-82v63h67l-63 258h126l58 -260h144l60 260h84l58 -260h146l62 260h126l-67 -258h71v-63h-87l-18 -69h105v-63h-121l-71 -277h-116zM428 470h64l-31 159zM244 337h84l17 75h-117zM416 412l-16 -75h119
l-16 75h-87zM590 337h86l18 75h-120zM257 279l29 -142l29 142h-58zM632 131l30 148h-59z" />
    <glyph glyph-name="uni20AA" unicode="&#x20aa;" horiz-adv-x="865" 
d="M79 0v730h481v-558h-73v494h-286v-666h-122zM786 730v-730h-480v558h73v-494h285v666h122z" />
    <glyph glyph-name="uni20AE" unicode="&#x20ae;" horiz-adv-x="660" 
d="M133 154l-19 52l155 70v63l-144 -64l-19 52l163 74v222h-234v107h590v-107h-234v-181l118 50l19 -52l-137 -61v-62l126 54l18 -52l-144 -64v-255h-122v214z" />
    <glyph glyph-name="uni20B1" unicode="&#x20b1;" horiz-adv-x="738" 
d="M734 371h-99q-34 -69 -107.5 -104t-174.5 -35h-141v-232h-122v371h-85v63h85v62h-85v63h85v171h261q130 0 204.5 -46t95.5 -125h83v-63h-78q1 -10 0 -28.5t-4 -33.5h82v-63zM358 620h-146v-66h319q-22 33 -66 49.5t-107 16.5zM559 462q0 10 -1 19t-3 17h-343v-67h344
q1 7 2 15t1 16zM356 309q70 0 114 16.5t65 50.5h-323v-67h144z" />
    <glyph glyph-name="uni0E3F" unicode="&#xe3f;" horiz-adv-x="745" 
d="M79 0v730h247v130h79v-130h11q130 0 188.5 -50t58.5 -134q0 -66 -39 -111t-111 -61q81 -11 128.5 -54t47.5 -122q0 -99 -70 -148.5t-201 -49.5h-13v-150h-79v150h-247zM201 627v-225h130v225h-130zM546 519q0 47 -32 76.5t-113 31.5v-225q78 2 111.5 34t33.5 83zM201 331
v-228h130v228h-130zM412 331h-11v-228h7q97 0 130 36t33 85q0 51 -36 79t-123 28z" />
    <glyph glyph-name="numbersign" unicode="#" horiz-adv-x="710" 
d="M82 26l54 174h-115v90h154l46 147h-147v91h164l54 174h103l-54 -174h143l53 174h104l-54 -174h114v-91h-153l-46 -147h145v-90h-163l-54 -174h-103l54 174h-142l-54 -174h-103zM256 289h164l46 149h-164z" />
    <glyph glyph-name="zero" unicode="0" horiz-adv-x="686" 
d="M636 370q0 -95 -22.5 -167t-61.5 -119t-93 -70.5t-116 -23.5q-63 0 -117 23t-93 70t-61.5 119t-22.5 168q0 95 23.5 165t63.5 115.5t93.5 67.5t113.5 22q61 0 115 -22.5t93 -68t62 -115.5t23 -164zM170 368q0 -141 48 -203.5t125 -62.5q76 0 124.5 60.5t48.5 205.5
q0 143 -49 202t-123 59q-75 0 -124.5 -60.5t-49.5 -200.5z" />
    <glyph glyph-name="one" unicode="1" horiz-adv-x="393" 
d="M315 730v-730h-118v581q-23 -57 -68.5 -91t-103.5 -34h-11v117h5q87 0 135.5 39.5t50.5 117.5h110z" />
    <glyph glyph-name="two" unicode="2" horiz-adv-x="598" 
d="M312 740q60 0 105 -17t75.5 -46t45.5 -68t15 -82q0 -55 -21.5 -101t-67 -93t-117.5 -100t-172 -122h391v-111h-523v106q124 88 201.5 148.5t120 105t57.5 80t15 73.5q0 56 -33 91t-94 35q-58 0 -99.5 -34.5t-59.5 -114.5l-117 39q34 101 105.5 156t172.5 55z" />
    <glyph glyph-name="three" unicode="3" horiz-adv-x="621" 
d="M23 134l94 66q31 -51 82 -77.5t114 -26.5q71 0 109 33t38 85q0 59 -46.5 85.5t-124.5 26.5h-91v90h81q70 0 114 28t44 82t-35.5 83t-98.5 29q-60 0 -100.5 -29.5t-67.5 -89.5l-101 58q45 74 114 118.5t160 44.5q53 0 97.5 -12.5t76.5 -36.5t50 -59.5t18 -81.5
q0 -69 -40 -112t-108 -59q80 -15 124 -58.5t44 -121.5q0 -45 -17 -83.5t-49 -66.5t-79 -44t-107 -16q-98 0 -174.5 38t-120.5 107z" />
    <glyph glyph-name="four" unicode="4" horiz-adv-x="627" 
d="M512 410v-161h105v-86h-105v-163l-118 -2v165h-377v80l339 487h135v-3l-334 -478h237v161h118z" />
    <glyph glyph-name="five" unicode="5" horiz-adv-x="611" 
d="M572 248q0 -58 -20 -105.5t-56 -81.5t-85.5 -52.5t-108.5 -18.5q-96 0 -165 40t-105 106l111 71q25 -50 66.5 -78t98.5 -28q68 0 108 41.5t40 113.5q0 69 -41.5 108t-107.5 39q-60 0 -95.5 -29t-54.5 -60l-108 19l47 397h438v-111h-345l-25 -221q31 43 77 67.5t107 24.5
q99 0 161.5 -64t62.5 -178z" />
    <glyph glyph-name="six" unicode="6" horiz-adv-x="652" 
d="M372 740q83 0 142 -25.5t101 -72.5l-82 -85q-32 40 -69 58t-95 18q-89 0 -146 -69.5t-57 -209.5q37 62 93.5 95t123.5 33q50 0 93 -15.5t74.5 -45t49.5 -72.5t18 -97q0 -53 -19 -100.5t-53.5 -83.5t-84.5 -57t-112 -21q-78 0 -134.5 28.5t-93.5 77t-54.5 113.5t-17.5 137
q0 96 25.5 170t69.5 123.5t103 75t125 25.5zM358 394q-62 0 -110.5 -32t-73.5 -97q16 -83 61 -124t114 -41q75 0 116.5 42t41.5 110q0 74 -44.5 108t-104.5 34z" />
    <glyph glyph-name="seven" unicode="7" horiz-adv-x="553" 
d="M110 0l303 620h-390v110h507v-103l-288 -627h-132z" />
    <glyph glyph-name="eight" unicode="8" horiz-adv-x="630" 
d="M600 200q0 -48 -20.5 -87t-57.5 -66.5t-90 -42t-117 -14.5q-135 0 -210 52t-75 148q0 69 45 121t121 72q-60 15 -99 55t-39 109q0 86 71 139.5t188 53.5q115 0 186 -52.5t71 -136.5q0 -66 -38 -108t-98 -59q73 -19 117.5 -67t44.5 -117zM317 417q66 0 106.5 29t40.5 80
t-38.5 83t-108.5 32t-109.5 -32.5t-39.5 -82.5q0 -52 41 -80.5t108 -28.5zM317 94q81 0 124 35.5t43 89.5q0 60 -47.5 91.5t-119.5 31.5t-120 -32.5t-48 -92.5q0 -53 42.5 -88t125.5 -35z" />
    <glyph glyph-name="nine" unicode="9" horiz-adv-x="653" 
d="M285 -10q-83 0 -143 25.5t-103 72.5l83 85q31 -39 69.5 -57.5t96.5 -18.5q90 0 144.5 69t54.5 206q-36 -60 -92 -91.5t-124 -31.5q-50 0 -93 15.5t-74 44.5t-49 72t-18 97q0 53 18.5 101t53 83.5t84.5 56.5t112 21q78 0 135 -28.5t93 -77t53.5 -113.5t17.5 -137
q0 -96 -25 -170t-68 -123.5t-101.5 -75t-124.5 -25.5zM147 478q0 -74 45 -108t105 -34q62 0 110.5 30.5t72.5 95.5q-14 84 -58.5 126.5t-116.5 42.5q-75 0 -116.5 -42.5t-41.5 -110.5z" />
    <glyph glyph-name="zero.OP" horiz-adv-x="688" 
d="M642 313q0 -73 -22 -133t-61.5 -101.5t-95 -64.5t-121.5 -23t-121 21.5t-94 62t-60.5 99.5t-21.5 133q0 72 23 131.5t63 100.5t96 63.5t122 22.5q64 0 118 -22.5t93 -63t60.5 -98.5t21.5 -128zM169 312q0 -98 48 -153t126 -55q79 0 127 54.5t48 153.5q0 96 -48 149
t-126 53q-77 0 -126 -54t-49 -148z" />
    <glyph glyph-name="one.OP" horiz-adv-x="375" 
d="M296 613v-613h-116v479q-22 -57 -65 -81t-88 -24h-11v113h8q32 0 60.5 3t49.5 15.5t33.5 38t13.5 69.5h115z" />
    <glyph glyph-name="two.OP" horiz-adv-x="594" 
d="M304 630q110 0 173.5 -57t63.5 -141q0 -79 -60 -143t-206 -133q-25 -13 -52 -26.5t-56 -26.5h392v-103h-520v106q59 29 108 55.5t88 48.5q109 62 150 107.5t41 93.5q0 60 -36 90t-92 30q-52 0 -93.5 -33t-60.5 -109l-110 39q34 102 107 152t163 50z" />
    <glyph glyph-name="three.OP" horiz-adv-x="630" 
d="M19 -46l100 69q32 -51 80 -80t116 -29q75 0 117 37.5t42 103.5q0 74 -59 103.5t-156 29.5h-74v89h79q89 0 136.5 32.5t47.5 94.5q0 63 -40 94.5t-100 31.5t-103 -30t-71 -90l-101 54q45 77 117.5 122t166.5 45q50 0 95 -12.5t78.5 -37.5t53 -63.5t19.5 -88.5
q0 -77 -49 -125t-123 -67q94 -16 144 -67.5t50 -136.5q0 -49 -19.5 -90t-54 -70.5t-83 -46t-107.5 -16.5q-99 0 -177 37t-125 107z" />
    <glyph glyph-name="four.OP" horiz-adv-x="642" 
d="M527 275v-183h107v-92h-107v-186h-118v186h-390v78l336 535h135v-3l-331 -518h250v183h118z" />
    <glyph glyph-name="five.OP" horiz-adv-x="624" 
d="M583 84q0 -66 -21.5 -118t-59 -88t-88.5 -55t-110 -19q-97 0 -167 43.5t-104 131.5l111 58q22 -61 65 -91.5t99 -30.5q70 0 114.5 45t44.5 129q0 83 -46 125.5t-111 42.5q-58 0 -95.5 -29t-56.5 -67l-108 17l47 435h445v-111h-351l-26 -254q30 43 76.5 70t109.5 27
q49 0 91.5 -16.5t73.5 -49t49 -81.5t18 -114z" />
    <glyph glyph-name="six.OP" horiz-adv-x="652" 
d="M372 740q83 0 142 -25.5t101 -72.5l-82 -85q-32 40 -69 58t-95 18q-89 0 -146 -69.5t-57 -209.5q37 62 93.5 95t123.5 33q50 0 93 -15.5t74.5 -45t49.5 -72.5t18 -97q0 -53 -19 -100.5t-53.5 -83.5t-84.5 -57t-112 -21q-78 0 -134.5 28.5t-93.5 77t-54.5 113.5t-17.5 137
q0 96 25.5 170t69.5 123.5t103 75t125 25.5zM358 394q-62 0 -110.5 -32t-73.5 -97q16 -83 61 -124t114 -41q75 0 116.5 42t41.5 110q0 74 -44.5 108t-104.5 34z" />
    <glyph glyph-name="seven.OP" horiz-adv-x="567" 
d="M113 -186l309 692h-399v107h518v-95l-302 -704h-126z" />
    <glyph glyph-name="eight.OP" horiz-adv-x="630" 
d="M600 200q0 -48 -20.5 -87t-57.5 -66.5t-90 -42t-117 -14.5q-135 0 -210 52t-75 148q0 69 45 121t121 72q-60 15 -99 55t-39 109q0 86 71 139.5t188 53.5q115 0 186 -52.5t71 -136.5q0 -66 -38 -108t-98 -59q73 -19 117.5 -67t44.5 -117zM317 417q66 0 106.5 29t40.5 80
t-38.5 83t-108.5 32t-109.5 -32.5t-39.5 -82.5q0 -52 41 -80.5t108 -28.5zM317 94q81 0 124 35.5t43 89.5q0 60 -47.5 91.5t-119.5 31.5t-120 -32.5t-48 -92.5q0 -53 42.5 -88t125.5 -35z" />
    <glyph glyph-name="nine.OP" horiz-adv-x="672" 
d="M622 233q0 -112 -25.5 -192.5t-69.5 -130.5t-103 -73.5t-125 -23.5q-85 0 -148 28t-107 71l74 87q34 -37 78.5 -58t107.5 -21q89 0 146 75t57 256q-32 -58 -88 -93t-133 -35q-52 0 -96.5 17.5t-76.5 49t-50.5 77t-18.5 100.5t19 104t54.5 84.5t87 56.5t114.5 21
q79 0 137 -31.5t94.5 -85t54 -127t17.5 -156.5zM155 361q0 -78 44.5 -115.5t119.5 -37.5q57 0 107.5 34.5t73.5 96.5q-16 96 -61.5 141.5t-115.5 45.5q-76 0 -122 -44.5t-46 -120.5z" />
    <glyph glyph-name="zero.LT" 
d="M584 370q0 -97 -21 -168.5t-57.5 -118.5t-86.5 -70t-109 -23q-60 0 -110 22.5t-86.5 69t-56.5 118.5t-20 170q0 97 21.5 167t58.5 115t87 66.5t106 21.5q58 0 108 -22t87 -67t58 -115t21 -166zM157 368q0 -145 42 -205.5t111 -60.5t111 58.5t42 207.5q0 147 -42 204
t-110 57t-111 -59t-43 -202z" />
    <glyph glyph-name="one.LT" 
d="M58 0v99h207v492q-22 -60 -70 -93.5t-115 -33.5h-11v109h5q94 0 145.5 39.5t53.5 117.5h114v-631h185v-99h-514z" />
    <glyph glyph-name="two.LT" 
d="M317 740q60 0 105 -17t75.5 -46t45.5 -67.5t15 -81.5q0 -56 -22.5 -103.5t-68.5 -95t-118 -100t-169 -118.5h391v-111h-523v107q121 85 198 145t120.5 105t59.5 81.5t16 74.5q0 60 -34 93t-93 33q-57 0 -99 -34.5t-60 -114.5l-116 39q34 101 105.5 156t171.5 55z" />
    <glyph glyph-name="three.LT" 
d="M26 133l94 66q32 -54 80.5 -78.5t111.5 -24.5q72 0 112 33t40 85q0 60 -46.5 86t-124.5 26h-91v90h80q71 0 114.5 27.5t43.5 80.5q0 54 -36.5 84t-99.5 30q-59 0 -100.5 -29t-66.5 -90l-100 58q42 75 112.5 119t160.5 44q53 0 98 -13t77.5 -37t50.5 -60t18 -81
q0 -69 -40 -111.5t-106 -59.5q80 -15 123 -58.5t43 -121.5q0 -45 -18 -83.5t-51 -66t-81.5 -43.5t-108.5 -16q-96 0 -169.5 35.5t-119.5 108.5z" />
    <glyph glyph-name="four.LT" 
d="M500 405v-156h101v-86h-101v-163h-119v163h-354v76l294 491h129v-3l-286 -478h217v156h119z" />
    <glyph glyph-name="five.LT" 
d="M575 247q0 -58 -20.5 -105.5t-56 -81t-85.5 -52t-108 -18.5q-97 0 -165.5 39.5t-104.5 105.5l110 71q25 -50 66.5 -77.5t98.5 -27.5q68 0 108.5 41.5t40.5 113.5q0 69 -40.5 108t-106.5 39q-58 0 -93.5 -28.5t-54.5 -58.5l-107 19l41 395h437v-111h-341l-23 -221
q30 42 74.5 67t106.5 25q99 0 161 -64.5t62 -178.5z" />
    <glyph glyph-name="six.LT" 
d="M350 740q76 0 131.5 -26t93.5 -73l-85 -82q-25 37 -56.5 55.5t-85.5 18.5q-81 0 -130 -67.5t-49 -209.5q32 53 80.5 81.5t108.5 28.5q46 0 86.5 -15.5t69.5 -44t46 -70.5t17 -94q0 -51 -17 -97.5t-49 -80.5t-78.5 -54t-105.5 -20q-72 0 -124 28t-85 76t-49 113t-16 139
q0 98 23 172.5t63 123.5t94.5 73.5t116.5 24.5zM330 377q-51 0 -92 -27.5t-64 -83.5q13 -84 52.5 -126.5t99.5 -42.5q67 0 105 39t38 104q0 70 -39.5 103.5t-99.5 33.5z" />
    <glyph glyph-name="seven.LT" 
d="M145 0l310 620h-416v110h537v-103l-300 -627h-131z" />
    <glyph glyph-name="eight.LT" 
d="M581 199q0 -96 -74 -152.5t-197 -56.5q-127 0 -199 55t-72 150q0 75 50.5 125.5t128.5 63.5q-63 12 -108 51.5t-45 113.5q0 86 67.5 138.5t179.5 52.5q110 0 177.5 -53t67.5 -137q0 -72 -44 -112t-106 -53q78 -13 126 -62t48 -124zM312 415q61 0 99.5 29.5t38.5 81.5
q0 50 -36.5 82.5t-101.5 32.5t-102 -32.5t-37 -83.5q0 -52 38.5 -81t100.5 -29zM312 94q75 0 115.5 35.5t40.5 90.5q0 60 -45 92.5t-111 32.5t-111.5 -33t-45.5 -93q0 -53 41 -89t116 -36z" />
    <glyph glyph-name="nine.LT" 
d="M279 -10q-83 0 -139.5 26t-94.5 73l85 82q25 -37 56.5 -55.5t85.5 -18.5q84 0 132.5 68t48.5 212q-33 -54 -82 -83t-109 -29q-46 0 -86.5 15t-69.5 44t-46 70.5t-17 94.5q0 51 17 97t49 80t79.5 54t107.5 20q70 0 121.5 -28t84.5 -75.5t49 -113t16 -139.5
q0 -98 -21.5 -172.5t-59.5 -123.5t-91 -73.5t-116 -24.5zM151 490q0 -70 39.5 -103.5t99.5 -33.5q51 0 93 29t64 87q-12 82 -50.5 123.5t-102.5 41.5q-66 0 -104.5 -39t-38.5 -105z" />
    <glyph glyph-name="zero.OT" 
d="M583 313q0 -74 -20 -134t-55.5 -101.5t-86.5 -64t-112 -22.5t-111.5 21t-86 61.5t-55 100.5t-19.5 136q0 75 20 133.5t56 99t86 61.5t110 21t111 -21.5t87 -61.5t56 -98.5t20 -130.5zM158 312q0 -109 41.5 -162.5t112.5 -53.5q69 0 109.5 53t40.5 163q0 107 -41.5 157.5
t-110.5 50.5t-110.5 -51t-41.5 -157z" />
    <glyph glyph-name="one.OT" 
d="M61 0v92h207v398q-21 -62 -70.5 -85t-116.5 -23h-12v105h9q45 0 80.5 3t59.5 15.5t37 38t14 69.5h121v-521h190v-92h-519z" />
    <glyph glyph-name="two.OT" 
d="M321 630q108 0 170.5 -57t62.5 -148q0 -93 -83 -165.5t-277 -156.5h379v-103h-521v106q115 53 190.5 94t119.5 76t61.5 67.5t17.5 69.5q0 57 -36 87.5t-91 30.5q-53 0 -96 -32t-63 -110l-110 39q36 101 112 151.5t164 50.5z" />
    <glyph glyph-name="three.OT" 
d="M27 -46l100 69q32 -51 80 -79.5t116 -28.5q75 0 117 36.5t42 102.5q0 38 -16.5 64t-43.5 41.5t-64 22t-77 6.5h-88v94h82q85 0 132.5 32t47.5 96q0 61 -39.5 90t-99.5 29t-103 -29.5t-71 -89.5l-101 54q45 77 117.5 122t166.5 45q50 0 95 -12t78.5 -36.5t53 -62
t19.5 -87.5q0 -72 -39.5 -121.5t-105.5 -71.5q81 -20 124 -72t43 -133q0 -49 -19 -90t-53.5 -71t-83.5 -47t-108 -17q-101 0 -178 37t-124 107z" />
    <glyph glyph-name="four.OT" 
d="M505 275v-188h92v-87h-92v-186h-118v186h-355v65l277 548h124v-3l-259 -523h213v188h118z" />
    <glyph glyph-name="five.OT" 
d="M572 84q0 -66 -20.5 -118t-57 -88t-86.5 -55t-108 -19q-97 0 -163 43.5t-100 131.5l110 58q22 -61 61.5 -91.5t95.5 -30.5q69 0 110.5 45t41.5 129q0 83 -43.5 125.5t-107.5 42.5q-58 0 -91 -29t-52 -67l-108 17l46 435h439v-111h-344l-25 -245q28 40 71.5 64t104.5 24
q49 0 90.5 -16.5t71.5 -49t47 -81.5t17 -114z" />
    <glyph glyph-name="six.OT" 
d="M347 741q81 0 134 -27.5t95 -81.5l-97 -76q-22 34 -51.5 54.5t-84.5 20.5q-80 0 -125 -64.5t-48 -201.5q31 57 79.5 88t114.5 31q98 0 154.5 -60.5t56.5 -171.5q0 -54 -16.5 -102t-48 -83.5t-79.5 -56t-110 -20.5q-74 0 -125 27t-82.5 74.5t-46 113t-14.5 140.5
q0 100 22.5 175t61.5 123.5t93 73t117 24.5zM326 400q-54 0 -92.5 -34t-58.5 -100q10 -84 47 -123.5t100 -39.5q67 0 102.5 39.5t35.5 109.5q0 72 -35 110t-99 38z" />
    <glyph glyph-name="seven.OT" 
d="M131 -186l325 692h-417v107h537v-95l-319 -704h-126z" />
    <glyph glyph-name="eight.OT" 
d="M581 202q0 -98 -74 -155t-197 -57q-127 0 -199 55.5t-72 152.5q0 70 43 118.5t112 67.5q-54 15 -91.5 54t-37.5 107q0 87 67.5 141t179.5 54q110 0 177.5 -54t67.5 -140q0 -66 -37 -106t-91 -56q69 -17 110.5 -65t41.5 -117zM312 415q61 0 99.5 29.5t38.5 81.5
q0 50 -36.5 82.5t-101.5 32.5t-102 -32.5t-37 -83.5q0 -52 38.5 -81t100.5 -29zM312 94q75 0 115.5 35.5t40.5 90.5q0 60 -45 92.5t-111 32.5t-111.5 -33t-45.5 -93q0 -53 41 -89t116 -36z" />
    <glyph glyph-name="nine.OT" 
d="M273 -195q-81 0 -135 27.5t-100 87.5l98 75q25 -37 56 -58t85 -21q83 0 128 73.5t45 244.5q-32 -51 -79 -78t-111 -27q-99 0 -157.5 61t-58.5 173q0 54 17.5 102.5t50 84t78.5 56t103 20.5q76 0 128.5 -29t85 -80.5t46.5 -123.5t14 -156q0 -112 -22.5 -193.5
t-61.5 -134.5t-93 -78.5t-117 -25.5zM159 363q0 -74 36 -112t102 -38q51 0 88 31t59 91q-11 92 -47.5 136t-99.5 44q-66 0 -102 -43t-36 -109z" />
    <glyph glyph-name="zero.num" horiz-adv-x="422" 
d="M388 515q0 -114 -52 -169t-130 -55t-130 54t-52 170q0 57 14.5 99t39 69t58 40t70.5 13q38 0 71.5 -13t58 -40t38.5 -69t14 -99zM118 514q0 -77 23.5 -107t64.5 -30q40 0 63.5 29t23.5 108t-24 108t-63 29q-40 0 -64 -30t-24 -107z" />
    <glyph glyph-name="one.num" horiz-adv-x="284" 
d="M218 730v-433h-93v339q-13 -40 -41 -63t-71 -23h-7v95h3q62 0 89.5 22.5t27.5 62.5h92z" />
    <glyph glyph-name="two.num" horiz-adv-x="379" 
d="M190 736q74 0 110.5 -38t36.5 -89q0 -44 -26.5 -80.5t-89.5 -81.5q-19 -14 -42 -30.5t-52 -33.5h225v-86h-322v85q52 31 91 59t63 48q42 37 54 60.5t12 45.5q0 28 -15.5 46t-46.5 18q-29 0 -51.5 -18.5t-33.5 -61.5l-83 38q23 61 70.5 90t99.5 29z" />
    <glyph glyph-name="three.num" horiz-adv-x="393" 
d="M13 377l73 52q19 -35 48.5 -45.5t58.5 -10.5q38 0 58 18t20 46q0 33 -24 46t-64 13h-69v45h59q45 0 63.5 16t18.5 44q0 29 -19.5 44t-50.5 15q-28 0 -50.5 -15t-36.5 -46l-75 36q25 51 69.5 76.5t98.5 25.5q60 0 104 -29t44 -84q0 -38 -23.5 -63.5t-60.5 -38.5
q46 -9 70.5 -35t24.5 -72q0 -53 -42 -88.5t-114 -35.5q-61 0 -109 21.5t-72 64.5z" />
    <glyph glyph-name="four.num" horiz-adv-x="378" 
d="M308 529v-93h59v-45h-59v-94h-89v94h-210v49l189 291h93v-3l-192 -292h120v93h89z" />
    <glyph glyph-name="five.num" horiz-adv-x="390" 
d="M355 449q0 -67 -45 -112.5t-116 -45.5q-60 0 -104 23t-66 60l90 50q10 -21 30 -35.5t50 -14.5q32 0 52 20.5t20 63.5q0 32 -18 53.5t-51 21.5q-31 0 -50.5 -19.5t-27.5 -44.5l-83 13l19 248h280v-83h-203l-9 -117q18 22 45.5 36t61.5 14q54 0 89.5 -34t35.5 -97z" />
    <glyph glyph-name="six.num" horiz-adv-x="409" 
d="M369 438q0 -29 -10.5 -56t-31 -47t-50.5 -32t-68 -12q-96 0 -140 60t-44 151q0 113 57 173.5t147 60.5q43 0 75.5 -10t58.5 -26l-44 -78q-16 13 -38 21.5t-50 8.5q-54 0 -88 -37t-34 -111v-13q16 36 50 58.5t77 22.5q57 0 95 -35.5t38 -98.5zM209 527q-30 0 -55.5 -23.5
t-32.5 -69.5q13 -31 36.5 -46t51.5 -15q32 0 54 21t22 58t-22 56t-54 19z" />
    <glyph glyph-name="seven.num" horiz-adv-x="346" 
d="M60 297l177 349h-224v84h313v-78l-169 -355h-97z" />
    <glyph glyph-name="eight.num" horiz-adv-x="399" 
d="M373 409q0 -54 -48.5 -86t-129.5 -32q-86 0 -131.5 31.5t-45.5 85.5t39 82t88 32q-18 2 -38 9t-36.5 18.5t-27 29.5t-10.5 43q0 51 44 82.5t119 31.5q74 0 118.5 -32t44.5 -81q0 -24 -10 -42t-26.5 -30.5t-36.5 -19.5t-39 -9q49 -4 87.5 -30.5t38.5 -82.5zM196 543
q36 0 58 15t22 43t-21.5 44t-58.5 16t-58.5 -15.5t-21.5 -43.5q0 -27 22 -43t58 -16zM196 369q39 0 64.5 18t25.5 49q0 34 -27 50t-63 16t-63 -16t-27 -50q0 -31 25 -49t65 -18z" />
    <glyph glyph-name="nine.num" horiz-adv-x="409" 
d="M368 522q0 -113 -48.5 -172t-138.5 -59q-57 0 -96.5 18.5t-61.5 40.5l64 68q16 -18 38.5 -30t53.5 -12q50 0 73.5 37.5t23.5 106.5q-13 -31 -42.5 -48t-66.5 -17q-57 0 -99 33t-42 96q0 62 44.5 107t116.5 45q87 0 134 -57.5t47 -156.5zM111 575q0 -36 21.5 -55t55.5 -19
q27 0 51 17t34 51q-8 44 -31 64.5t-54 20.5q-34 0 -55.5 -20.5t-21.5 -58.5z" />
    <glyph glyph-name="zero.den" horiz-adv-x="422" 
d="M393 218q0 -114 -52 -169t-130 -55t-130 54t-52 170q0 57 14.5 99t39 69t58 40t70.5 13q38 0 71.5 -13t58 -40t38.5 -69t14 -99zM123 217q0 -77 23.5 -107t64.5 -30q40 0 63.5 29t23.5 108t-24 108t-63 29q-40 0 -64 -30t-24 -107z" />
    <glyph glyph-name="one.den" horiz-adv-x="284" 
d="M222 433v-433h-93v339q-13 -40 -41 -63t-71 -23h-7v95h3q62 0 89.5 22.5t27.5 62.5h92z" />
    <glyph glyph-name="two.den" horiz-adv-x="379" 
d="M194 439q74 0 110.5 -38t36.5 -89q0 -44 -26.5 -80.5t-89.5 -81.5q-19 -14 -42 -30.5t-52 -33.5h225v-86h-322v85q52 31 91 59t63 48q42 37 54 60.5t12 45.5q0 28 -15.5 46t-46.5 18q-29 0 -51.5 -18.5t-33.5 -61.5l-83 38q23 61 70.5 90t99.5 29z" />
    <glyph glyph-name="three.den" horiz-adv-x="393" 
d="M17 80l73 52q19 -35 48.5 -45.5t58.5 -10.5q38 0 58 18t20 46q0 33 -24 46t-64 13h-69v45h59q45 0 63.5 16t18.5 44q0 29 -19.5 44t-50.5 15q-28 0 -50.5 -15t-36.5 -46l-75 36q25 51 69.5 76.5t98.5 25.5q60 0 104 -29t44 -84q0 -38 -23.5 -63.5t-60.5 -38.5
q46 -9 70.5 -35t24.5 -72q0 -53 -42 -88.5t-114 -35.5q-61 0 -109 21.5t-72 64.5z" />
    <glyph glyph-name="four.den" horiz-adv-x="378" 
d="M312 232v-93h59v-45h-59v-94h-89v94h-210v49l189 291h93v-3l-192 -292h120v93h89z" />
    <glyph glyph-name="five.den" horiz-adv-x="390" 
d="M359 152q0 -67 -45 -112.5t-116 -45.5q-60 0 -104 23t-66 60l90 50q10 -21 30 -35.5t50 -14.5q32 0 52 20.5t20 63.5q0 32 -18 53.5t-51 21.5q-31 0 -50.5 -19.5t-27.5 -44.5l-83 13l19 248h280v-83h-203l-9 -117q18 22 45.5 36t61.5 14q54 0 89.5 -34t35.5 -97z" />
    <glyph glyph-name="six.den" horiz-adv-x="409" 
d="M373 141q0 -29 -10.5 -56t-31 -47t-50.5 -32t-68 -12q-96 0 -140 60t-44 151q0 113 57 173.5t147 60.5q43 0 75.5 -10t58.5 -26l-44 -78q-16 13 -38 21.5t-50 8.5q-54 0 -88 -37t-34 -111v-13q16 36 50 58.5t77 22.5q57 0 95 -35.5t38 -98.5zM213 230q-30 0 -55.5 -23.5
t-32.5 -69.5q13 -31 36.5 -46t51.5 -15q32 0 54 21t22 58t-22 56t-54 19z" />
    <glyph glyph-name="seven.den" horiz-adv-x="346" 
d="M64 0l177 349h-224v84h313v-78l-169 -355h-97z" />
    <glyph glyph-name="eight.den" horiz-adv-x="399" 
d="M377 112q0 -54 -48.5 -86t-129.5 -32q-86 0 -131.5 31.5t-45.5 85.5t39 82t88 32q-18 2 -38 9t-36.5 18.5t-27 29.5t-10.5 43q0 51 44 82.5t119 31.5q74 0 118.5 -32t44.5 -81q0 -24 -10 -42t-26.5 -30.5t-36.5 -19.5t-39 -9q49 -4 87.5 -30.5t38.5 -82.5zM200 246
q36 0 58 15t22 43t-21.5 44t-58.5 16t-58.5 -15.5t-21.5 -43.5q0 -27 22 -43t58 -16zM200 72q39 0 64.5 18t25.5 49q0 34 -27 50t-63 16t-63 -16t-27 -50q0 -31 25 -49t65 -18z" />
    <glyph glyph-name="nine.den" horiz-adv-x="409" 
d="M372 225q0 -113 -48.5 -172t-138.5 -59q-57 0 -96.5 18.5t-61.5 40.5l64 68q16 -18 38.5 -30t53.5 -12q50 0 73.5 37.5t23.5 106.5q-13 -31 -42.5 -48t-66.5 -17q-57 0 -99 33t-42 96q0 62 44.5 107t116.5 45q87 0 134 -57.5t47 -156.5zM115 278q0 -36 21.5 -55t55.5 -19
q27 0 51 17t34 51q-8 44 -31 64.5t-54 20.5q-34 0 -55.5 -20.5t-21.5 -58.5z" />
    <glyph glyph-name="zero.sup" horiz-adv-x="422" 
d="M388 595q0 -114 -52 -169t-130 -55t-130 54t-52 170q0 57 14.5 99t39 69t58 40t70.5 13q38 0 71.5 -13t58 -40t38.5 -69t14 -99zM118 594q0 -77 23.5 -107t64.5 -30q40 0 63.5 29t23.5 108t-24 108t-63 29q-40 0 -64 -30t-24 -107z" />
    <glyph glyph-name="one.sup" horiz-adv-x="284" 
d="M218 810v-433h-93v339q-13 -40 -41 -63t-71 -23h-7v95h3q62 0 89.5 22.5t27.5 62.5h92z" />
    <glyph glyph-name="two.sup" horiz-adv-x="379" 
d="M190 816q74 0 110.5 -38t36.5 -89q0 -44 -26.5 -80.5t-89.5 -81.5q-19 -14 -42 -30.5t-52 -33.5h225v-86h-322v85q52 31 91 59t63 48q42 37 54 60.5t12 45.5q0 28 -15.5 46t-46.5 18q-29 0 -51.5 -18.5t-33.5 -61.5l-83 38q23 61 70.5 90t99.5 29z" />
    <glyph glyph-name="three.sup" horiz-adv-x="393" 
d="M13 457l73 52q19 -35 48.5 -45.5t58.5 -10.5q38 0 58 18t20 46q0 33 -24 46t-64 13h-69v45h59q45 0 63.5 16t18.5 44q0 29 -19.5 44t-50.5 15q-28 0 -50.5 -15t-36.5 -46l-75 36q25 51 69.5 76.5t98.5 25.5q60 0 104 -29t44 -84q0 -38 -23.5 -63.5t-60.5 -38.5
q46 -9 70.5 -35t24.5 -72q0 -53 -42 -88.5t-114 -35.5q-61 0 -109 21.5t-72 64.5z" />
    <glyph glyph-name="four.sup" horiz-adv-x="378" 
d="M308 609v-93h59v-45h-59v-94h-89v94h-210v49l189 291h93v-3l-192 -292h120v93h89z" />
    <glyph glyph-name="five.sup" horiz-adv-x="390" 
d="M355 529q0 -67 -45 -112.5t-116 -45.5q-60 0 -104 23t-66 60l90 50q10 -21 30 -35.5t50 -14.5q32 0 52 20.5t20 63.5q0 32 -18 53.5t-51 21.5q-31 0 -50.5 -19.5t-27.5 -44.5l-83 13l19 248h280v-83h-203l-9 -117q18 22 45.5 36t61.5 14q54 0 89.5 -34t35.5 -97z" />
    <glyph glyph-name="six.sup" horiz-adv-x="409" 
d="M369 518q0 -29 -10.5 -56t-31 -47t-50.5 -32t-68 -12q-96 0 -140 60t-44 151q0 113 57 173.5t147 60.5q43 0 75.5 -10t58.5 -26l-44 -78q-16 13 -38 21.5t-50 8.5q-54 0 -88 -37t-34 -111v-13q16 36 50 58.5t77 22.5q57 0 95 -35.5t38 -98.5zM209 607q-30 0 -55.5 -23.5
t-32.5 -69.5q13 -31 36.5 -46t51.5 -15q32 0 54 21t22 58t-22 56t-54 19z" />
    <glyph glyph-name="seven.sup" horiz-adv-x="346" 
d="M60 377l177 349h-224v84h313v-78l-169 -355h-97z" />
    <glyph glyph-name="eight.sup" horiz-adv-x="399" 
d="M373 489q0 -54 -48.5 -86t-129.5 -32q-86 0 -131.5 31.5t-45.5 85.5t39 82t88 32q-18 2 -38 9t-36.5 18.5t-27 29.5t-10.5 43q0 51 44 82.5t119 31.5q74 0 118.5 -32t44.5 -81q0 -24 -10 -42t-26.5 -30.5t-36.5 -19.5t-39 -9q49 -4 87.5 -30.5t38.5 -82.5zM196 623
q36 0 58 15t22 43t-21.5 44t-58.5 16t-58.5 -15.5t-21.5 -43.5q0 -27 22 -43t58 -16zM196 449q39 0 64.5 18t25.5 49q0 34 -27 50t-63 16t-63 -16t-27 -50q0 -31 25 -49t65 -18z" />
    <glyph glyph-name="nine.sup" horiz-adv-x="409" 
d="M368 602q0 -113 -48.5 -172t-138.5 -59q-57 0 -96.5 18.5t-61.5 40.5l64 68q16 -18 38.5 -30t53.5 -12q50 0 73.5 37.5t23.5 106.5q-13 -31 -42.5 -48t-66.5 -17q-57 0 -99 33t-42 96q0 62 44.5 107t116.5 45q87 0 134 -57.5t47 -156.5zM111 655q0 -36 21.5 -55t55.5 -19
q27 0 51 17t34 51q-8 44 -31 64.5t-54 20.5q-34 0 -55.5 -20.5t-21.5 -58.5z" />
    <glyph glyph-name="zero.sub" horiz-adv-x="422" 
d="M389 138q0 -114 -52 -169t-130 -55t-130 54t-52 170q0 57 14.5 99t39 69t58 40t70.5 13q38 0 71.5 -13t58 -40t38.5 -69t14 -99zM119 137q0 -77 23.5 -107t64.5 -30q40 0 63.5 29t23.5 108t-24 108t-63 29q-40 0 -64 -30t-24 -107z" />
    <glyph glyph-name="one.sub" horiz-adv-x="284" 
d="M218 353v-433h-93v339q-13 -40 -41 -63t-71 -23h-7v95h3q62 0 89.5 22.5t27.5 62.5h92z" />
    <glyph glyph-name="two.sub" horiz-adv-x="379" 
d="M190 359q74 0 110.5 -38t36.5 -89q0 -44 -26.5 -80.5t-89.5 -81.5q-19 -14 -42 -30.5t-52 -33.5h225v-86h-322v85q52 31 91 59t63 48q42 37 54 60.5t12 45.5q0 28 -15.5 46t-46.5 18q-29 0 -51.5 -18.5t-33.5 -61.5l-83 38q23 61 70.5 90t99.5 29z" />
    <glyph glyph-name="three.sub" horiz-adv-x="393" 
d="M13 0l73 52q19 -35 48.5 -45.5t58.5 -10.5q38 0 58 18t20 46q0 33 -24 46t-64 13h-69v45h59q45 0 63.5 16t18.5 44q0 29 -19.5 44t-50.5 15q-28 0 -50.5 -15t-36.5 -46l-75 36q25 51 69.5 76.5t98.5 25.5q60 0 104 -29t44 -84q0 -38 -23.5 -63.5t-60.5 -38.5
q46 -9 70.5 -35t24.5 -72q0 -53 -42 -88.5t-114 -35.5q-61 0 -109 21.5t-72 64.5z" />
    <glyph glyph-name="four.sub" horiz-adv-x="378" 
d="M308 152v-93h59v-45h-59v-94h-89v94h-210v49l189 291h93v-3l-192 -292h120v93h89z" />
    <glyph glyph-name="five.sub" horiz-adv-x="390" 
d="M355 72q0 -67 -45 -112.5t-116 -45.5q-60 0 -104 23t-66 60l90 50q10 -21 30 -35.5t50 -14.5q32 0 52 20.5t20 63.5q0 32 -18 53.5t-51 21.5q-31 0 -50.5 -19.5t-27.5 -44.5l-83 13l19 248h280v-83h-203l-9 -117q18 22 45.5 36t61.5 14q54 0 89.5 -34t35.5 -97z" />
    <glyph glyph-name="six.sub" horiz-adv-x="409" 
d="M369 61q0 -29 -10.5 -56t-31 -47t-50.5 -32t-68 -12q-96 0 -140 60t-44 151q0 113 57 173.5t147 60.5q43 0 75.5 -10t58.5 -26l-44 -78q-16 13 -38 21.5t-50 8.5q-54 0 -88 -37t-34 -111v-13q16 36 50 58.5t77 22.5q57 0 95 -35.5t38 -98.5zM209 150q-30 0 -55.5 -23.5
t-32.5 -69.5q13 -31 36.5 -46t51.5 -15q32 0 54 21t22 58t-22 56t-54 19z" />
    <glyph glyph-name="seven.sub" horiz-adv-x="346" 
d="M60 -80l177 349h-224v84h313v-78l-169 -355h-97z" />
    <glyph glyph-name="eight.sub" horiz-adv-x="399" 
d="M373 32q0 -54 -48.5 -86t-129.5 -32q-86 0 -131.5 31.5t-45.5 85.5t39 82t88 32q-18 2 -38 9t-36.5 18.5t-27 29.5t-10.5 43q0 51 44 82.5t119 31.5q74 0 118.5 -32t44.5 -81q0 -24 -10 -42t-26.5 -30.5t-36.5 -19.5t-39 -9q49 -4 87.5 -30.5t38.5 -82.5zM196 166
q36 0 58 15t22 43t-21.5 44t-58.5 16t-58.5 -15.5t-21.5 -43.5q0 -27 22 -43t58 -16zM196 -8q39 0 64.5 18t25.5 49q0 34 -27 50t-63 16t-63 -16t-27 -50q0 -31 25 -49t65 -18z" />
    <glyph glyph-name="nine.sub" horiz-adv-x="409" 
d="M368 145q0 -113 -48.5 -172t-138.5 -59q-57 0 -96.5 18.5t-61.5 40.5l64 68q16 -18 38.5 -30t53.5 -12q50 0 73.5 37.5t23.5 106.5q-13 -31 -42.5 -48t-66.5 -17q-57 0 -99 33t-42 96q0 62 44.5 107t116.5 45q87 0 134 -57.5t47 -156.5zM111 198q0 -36 21.5 -55t55.5 -19
q27 0 51 17t34 51q-8 44 -31 64.5t-54 20.5q-34 0 -55.5 -20.5t-21.5 -58.5z" />
    <glyph glyph-name="onehalf" unicode="&#xbd;" horiz-adv-x="853" 
d="M552 746l118 -66l-220 -278l-49 25zM242 -16l-118 65l220 279l49 -26zM218 730v-433h-93v339q-13 -40 -41 -63t-71 -23h-7v95h3q62 0 89.5 22.5t27.5 62.5h92zM668 439q74 0 110.5 -38t36.5 -89q0 -44 -26.5 -80.5t-89.5 -81.5q-19 -14 -42 -30.5t-52 -33.5h225v-86h-322
v85q52 31 91 59t63 48q42 37 54 60.5t12 45.5q0 28 -15.5 46t-46.5 18q-29 0 -51.5 -18.5t-33.5 -61.5l-83 38q23 61 70.5 90t99.5 29z" />
    <glyph glyph-name="uni2153" unicode="&#x2153;" horiz-adv-x="854" 
d="M490 80l73 52q19 -35 48.5 -45.5t58.5 -10.5q38 0 58 18t20 46q0 33 -24 46t-64 13h-69v45h59q45 0 63.5 16t18.5 44q0 29 -19.5 44t-50.5 15q-28 0 -50.5 -15t-36.5 -46l-75 36q25 51 69.5 76.5t98.5 25.5q60 0 104 -29t44 -84q0 -38 -23.5 -63.5t-60.5 -38.5
q46 -9 70.5 -35t24.5 -72q0 -53 -42 -88.5t-114 -35.5q-61 0 -109 21.5t-72 64.5zM552 746l118 -66l-220 -278l-49 25zM242 -16l-118 65l220 279l49 -26zM218 730v-433h-93v339q-13 -40 -41 -63t-71 -23h-7v95h3q62 0 89.5 22.5t27.5 62.5h92z" />
    <glyph glyph-name="uni2154" unicode="&#x2154;" horiz-adv-x="961" 
d="M190 736q74 0 110.5 -38t36.5 -89q0 -44 -26.5 -80.5t-89.5 -81.5q-19 -14 -42 -30.5t-52 -33.5h225v-86h-322v85q52 31 91 59t63 48q42 37 54 60.5t12 45.5q0 28 -15.5 46t-46.5 18q-29 0 -51.5 -18.5t-33.5 -61.5l-83 38q23 61 70.5 90t99.5 29zM585 80l73 52
q19 -35 48.5 -45.5t58.5 -10.5q38 0 58 18t20 46q0 33 -24 46t-64 13h-69v45h59q45 0 63.5 16t18.5 44q0 29 -19.5 44t-50.5 15q-28 0 -50.5 -15t-36.5 -46l-75 36q25 51 69.5 76.5t98.5 25.5q60 0 104 -29t44 -84q0 -38 -23.5 -63.5t-60.5 -38.5q46 -9 70.5 -35t24.5 -72
q0 -53 -42 -88.5t-114 -35.5q-61 0 -109 21.5t-72 64.5zM647 746l118 -66l-220 -278l-49 25zM337 -16l-118 65l220 279l49 -26z" />
    <glyph glyph-name="onequarter" unicode="&#xbc;" horiz-adv-x="828" 
d="M762 232v-93h59v-45h-59v-94h-89v94h-210v49l189 291h93v-3l-192 -292h120v93h89zM552 746l118 -66l-220 -278l-49 25zM242 -16l-118 65l220 279l49 -26zM218 730v-433h-93v339q-13 -40 -41 -63t-71 -23h-7v95h3q62 0 89.5 22.5t27.5 62.5h92z" />
    <glyph glyph-name="threequarters" unicode="&#xbe;" horiz-adv-x="893" 
d="M13 377l73 52q19 -35 48.5 -45.5t58.5 -10.5q38 0 58 18t20 46q0 33 -24 46t-64 13h-69v45h59q45 0 63.5 16t18.5 44q0 29 -19.5 44t-50.5 15q-28 0 -50.5 -15t-36.5 -46l-75 36q25 51 69.5 76.5t98.5 25.5q60 0 104 -29t44 -84q0 -38 -23.5 -63.5t-60.5 -38.5
q46 -9 70.5 -35t24.5 -72q0 -53 -42 -88.5t-114 -35.5q-61 0 -109 21.5t-72 64.5zM827 232v-93h59v-45h-59v-94h-89v94h-210v49l189 291h93v-3l-192 -292h120v93h89zM617 746l118 -66l-220 -278l-49 25zM307 -16l-118 65l220 279l49 -26z" />
    <glyph glyph-name="fraction" unicode="&#x2044;" horiz-adv-x="145" 
d="M227 746l118 -66l-220 -278l-49 25zM-84 -16l-117 65l220 279l49 -26z" />
    <glyph glyph-name="fraction.alt" horiz-adv-x="1012" 
d="M662 746l118 -66l-220 -278l-49 25zM352 -16l-118 65l220 279l49 -26z" />
    <glyph glyph-name="uni207A" unicode="&#x207a;" horiz-adv-x="254" 
d="M154 506h-54v87h-84v52h84v74h54v-74h83v-52h-83v-87z" />
    <glyph glyph-name="uni207B" unicode="&#x207b;" horiz-adv-x="264" 
d="M16 586v53h231v-53h-231z" />
    <glyph glyph-name="uni207C" unicode="&#x207c;" horiz-adv-x="264" 
d="M13 634v53h231v-53h-231zM13 514v53h231v-53h-231z" />
    <glyph glyph-name="uni207D" unicode="&#x207d;" horiz-adv-x="199" 
d="M72 592q0 -95 42.5 -161t103.5 -115l-62 -71q-31 27 -56 65t-43 82.5t-27.5 95.5t-9.5 104q0 52 9.5 102.5t27.5 95t43 82t56 64.5l62 -71q-61 -49 -103.5 -114.5t-42.5 -158.5z" />
    <glyph glyph-name="uni207E" unicode="&#x207e;" horiz-adv-x="199" 
d="M127 592q0 93 -42.5 158.5t-103.5 114.5l62 71q31 -27 56 -64.5t42.5 -82t27 -95t9.5 -102.5q0 -53 -9.5 -104t-27 -95.5t-42.5 -82.5t-56 -65l-62 71q61 49 103.5 115t42.5 161z" />
    <glyph glyph-name="uni208A" unicode="&#x208a;" horiz-adv-x="254" 
d="M150 49h-54v87h-84v52h84v74h54v-74h83v-52h-83v-87z" />
    <glyph glyph-name="uni208B" unicode="&#x208b;" horiz-adv-x="264" 
d="M12 129v53h231v-53h-231z" />
    <glyph glyph-name="uni208C" unicode="&#x208c;" horiz-adv-x="264" 
d="M9 177v53h231v-53h-231zM9 57v53h231v-53h-231z" />
    <glyph glyph-name="uni208D" unicode="&#x208d;" horiz-adv-x="199" 
d="M68 135q0 -95 42.5 -161t103.5 -115l-62 -71q-31 27 -56 65t-43 82.5t-27.5 95.5t-9.5 104q0 52 9.5 102.5t27.5 95t43 82t56 64.5l62 -71q-61 -49 -103.5 -114.5t-42.5 -158.5z" />
    <glyph glyph-name="uni208E" unicode="&#x208e;" horiz-adv-x="199" 
d="M123 135q0 93 -42.5 158.5t-103.5 114.5l62 71q31 -27 56 -64.5t42.5 -82t27 -95t9.5 -102.5q0 -53 -9.5 -104t-27 -95.5t-42.5 -82.5t-56 -65l-62 71q61 49 103.5 115t42.5 161z" />
    <glyph glyph-name="percent" unicode="%" horiz-adv-x="831" 
d="M653 743l100 -88l-282 -263l-41 36zM399 557q0 -47 -14 -82.5t-37.5 -58.5t-54 -34.5t-62.5 -11.5q-33 0 -64 11t-54 34t-37 58.5t-14 83.5q0 47 14.5 82t38 57t54 33t62.5 11t62 -10.5t53.5 -33t38 -57t14.5 -82.5zM155 557q0 -57 22.5 -82.5t53.5 -25.5t53 24.5
t22 83.5t-22.5 81.5t-52.5 22.5q-31 0 -53.5 -23.5t-22.5 -80.5zM769 178q0 -48 -14 -83.5t-37.5 -58t-54 -34t-62.5 -11.5q-33 0 -64 11t-54 34t-37 58.5t-14 83.5q0 47 14.5 82t38 57t54 33t62.5 11t62 -10.5t53.5 -33t38 -57t14.5 -82.5zM176 -19l-101 90l277 262l41 -35
zM525 177q0 -57 22.5 -82t53.5 -25t53 24t22 83t-22.5 81.5t-52.5 22.5q-31 0 -53.5 -23t-22.5 -81z" />
    <glyph glyph-name="perthousand" unicode="&#x2030;" horiz-adv-x="1224" 
d="M653 743l100 -88l-282 -263l-41 36zM399 557q0 -47 -14 -82.5t-37.5 -58.5t-54 -34.5t-62.5 -11.5q-33 0 -64 11t-54 34t-37 58.5t-14 83.5q0 47 14.5 82t38 57t54 33t62.5 11t62 -10.5t53.5 -33t38 -57t14.5 -82.5zM155 557q0 -57 22.5 -82.5t53.5 -25.5t53 24.5
t22 83.5t-22.5 81.5t-52.5 22.5q-31 0 -53.5 -23.5t-22.5 -80.5zM769 178q0 -48 -14 -83.5t-37.5 -58t-54 -34t-62.5 -11.5q-33 0 -64 11t-54 34t-37 58.5t-14 83.5q0 47 14.5 82t38 57t54 33t62.5 11t62 -10.5t53.5 -33t38 -57t14.5 -82.5zM1163 178q0 -48 -14 -83.5
t-37.5 -58t-54.5 -34t-63 -11.5q-33 0 -63.5 11t-54 34t-37.5 58.5t-14 83.5q0 47 14.5 82t38.5 57t54.5 33t61.5 11q32 0 62.5 -10.5t54 -33t38 -57t14.5 -82.5zM176 -19l-101 90l277 262l41 -35zM525 177q0 -57 22.5 -82t53.5 -25t53 24t22 83t-22.5 81.5t-52.5 22.5
q-31 0 -53.5 -23t-22.5 -81zM918 177q0 -57 22.5 -82t53.5 -25t53.5 24t22.5 83t-23 81.5t-53 22.5t-53 -23t-23 -81z" />
    <glyph glyph-name="uni2116" unicode="&#x2116;" horiz-adv-x="1097" 
d="M870 307q-94 0 -145 59.5t-51 154.5t51 155t145 60q93 0 144 -60t51 -155t-51 -154.5t-144 -59.5zM199 407v-407h-121v730h133l201 -414l72 -157l-2 184v387h120v-730h-127l-213 440l-65 142zM777 521q0 -55 22.5 -87.5t70.5 -32.5t70.5 32.5t22.5 87.5t-22.5 88.5
t-71.5 33.5q-48 0 -70 -33.5t-22 -88.5zM931 0h-122v238h122v-238z" />
    <glyph glyph-name="currency" unicode="&#xa4;" horiz-adv-x="577" 
d="M92 107l-63 60l88 94q-16 25 -24.5 55t-8.5 61q0 32 8.5 62t24.5 55l-88 92l67 61l85 -91q22 13 49 20.5t58 7.5t57 -7.5t48 -20.5l85 91l67 -61l-87 -92q16 -25 25 -55.5t9 -61.5q0 -32 -9 -62.5t-25 -55.5l87 -92l-63 -60l-87 92q-22 -13 -49 -20.5t-58 -7.5t-58.5 7.5
t-50.5 21.5zM288 256q57 0 83 34.5t26 86.5q0 55 -27.5 88.5t-81.5 33.5q-51 0 -80 -34.5t-29 -87.5q0 -56 27.5 -88.5t81.5 -32.5z" />
    <glyph glyph-name="estimated" unicode="&#x212e;" horiz-adv-x="706" 
d="M680 208q-35 -98 -113.5 -157t-206.5 -59q-82 0 -146.5 23.5t-108 66t-66.5 103t-23 132.5q0 74 25 136t70 106t108 68.5t138 24.5t137.5 -24.5t106 -69.5t67.5 -108.5t24 -140.5v-20h-539v-198q39 -31 91 -48t116 -17q112 0 180.5 51t105.5 144zM357 618
q-61 0 -113 -18.5t-91 -52.5v-222h408v220q-37 34 -89 53.5t-115 19.5z" />
    <glyph glyph-name="whitecircle" horiz-adv-x="880" 
d="M815 365q0 -81 -28 -150t-78 -119t-119 -78t-150 -28t-150 28t-119 78t-78 119t-28 150t28 150t78 119t119 78t150 28t150 -28t119 -78t78 -119t28 -150zM184 365q0 -54 17.5 -102.5t50 -84.5t80.5 -57t108 -21t108 21t80.5 57t50 84.5t17.5 102.5t-17.5 102.5t-50 84.5
t-80.5 57t-108 21t-108 -21t-80.5 -57t-50 -84.5t-17.5 -102.5z" />
    <glyph glyph-name="blackcircle" horiz-adv-x="880" 
d="M65 365q0 81 28 150t78 119t119 78t150 28t150 -28t119 -78t78 -119t28 -150t-28 -150t-78 -119t-119 -78t-150 -28t-150 28t-119 78t-78 119t-28 150z" />
    <glyph glyph-name="mediumwhitecircle" unicode="&#x26ac;" horiz-adv-x="637" 
d="M577 250q0 -58 -20.5 -106.5t-55 -82t-82 -52.5t-101.5 -19t-101.5 19t-82 52.5t-55 82t-20.5 106.5t20.5 106.5t55 82t82 52.5t101.5 19t101.5 -19t82 -52.5t55 -82t20.5 -106.5zM151 250q0 -75 46 -122t121 -47t121 47t46 122t-46 122.5t-121 47.5t-121 -47.5
t-46 -122.5z" />
    <glyph glyph-name="mediumblackcircle" horiz-adv-x="637" 
d="M318 510q54 0 101.5 -19t82 -52.5t55 -82t20.5 -106.5t-20.5 -106.5t-55 -82t-82 -52.5t-101.5 -19t-101.5 19t-82 52.5t-55 82t-20.5 106.5t20.5 106.5t55 82t82 52.5t101.5 19z" />
    <glyph glyph-name="blacksquare" horiz-adv-x="904" 
d="M89 0v730h726v-730h-726z" />
    <glyph glyph-name="whitesquare" horiz-adv-x="904" 
d="M89 0v730h726v-730h-726zM206 618v-506h492v506h-492z" />
    <glyph glyph-name="squaremultiply" horiz-adv-x="904" 
d="M89 0v730h726v-730h-726zM199 626v-522h506v522h-506zM247 206l151 159l-151 160l57 53l148 -156l148 156l57 -53l-151 -160l151 -159l-57 -53l-148 156l-148 -156z" />
    <glyph glyph-name="blacksmallsquare" horiz-adv-x="666" 
d="M83 0v500h500v-500h-500z" />
    <glyph glyph-name="whitesmallsquare" unicode="&#x25ab;" horiz-adv-x="666" 
d="M583 0h-500v500h500v-500zM182 407v-314h302v314h-302z" />
    <glyph glyph-name="ballotboxwithx" horiz-adv-x="666" 
d="M583 0h-500v500h500v-500zM167 422v-344h332v344h-332zM207 159l87 91l-87 91l41 39l85 -89l85 89l41 -39l-87 -91l87 -91l-41 -39l-85 89l-85 -89z" />
    <glyph glyph-name="triagup" unicode="&#x25b2;" horiz-adv-x="990" 
d="M923 0h-857l429 742z" />
    <glyph glyph-name="triagdn" unicode="&#x25bc;" horiz-adv-x="1010" 
d="M76 730h857l-428 -742z" />
    <glyph glyph-name="triaglf" unicode="&#x25c4;" horiz-adv-x="925" 
d="M808 800v-857l-742 429z" />
    <glyph glyph-name="triagrt" unicode="&#x25ba;" horiz-adv-x="925" 
d="M116 -57v857l742 -428z" />
    <glyph glyph-name="uni25E4" unicode="&#x25e4;" horiz-adv-x="920" 
d="M868 -54l-828 222l606 606z" />
    <glyph glyph-name="uni25E5" unicode="&#x25e5;" horiz-adv-x="920" 
d="M883 163l-828 -221l223 828z" />
    <glyph glyph-name="uni25E2" unicode="&#x25e2;" horiz-adv-x="920" 
d="M884 533l-606 -606l-222 828z" />
    <glyph glyph-name="uni25E3" unicode="&#x25e3;" horiz-adv-x="920" 
d="M643 -73l-606 606l828 222z" />
    <glyph glyph-name="bullseye" unicode="&#x25ce;" horiz-adv-x="950" 
d="M100 365q0 81 28 150t78 119t119 78t150 28t150 -28t119 -78t78 -119t28 -150t-28 -150t-78 -119t-119 -78t-150 -28t-150 28t-119 78t-78 119t-28 150zM171 365q0 -68 22.5 -124.5t63 -97t96.5 -63t122 -22.5t122.5 22.5t96.5 63t62.5 97t22.5 124.5t-22.5 124.5
t-62.5 97t-96.5 63t-122.5 22.5t-122 -22.5t-96.5 -63t-63 -97t-22.5 -124.5zM690 365q0 -99 -59 -157.5t-156 -58.5t-156 58.5t-59 157.5t59 157.5t156 58.5t156 -58.5t59 -157.5zM619 365q0 66 -40 107t-104 41q-63 0 -103.5 -41t-40.5 -107q0 -68 40.5 -108t103.5 -40
q64 0 104 40t40 108zM418 365q0 24 16 41t41 17t41.5 -17t16.5 -41t-16.5 -40.5t-41.5 -16.5t-41 16.5t-16 40.5z" />
    <glyph glyph-name="uni2605" unicode="&#x2605;" horiz-adv-x="923" 
d="M458 220l-186 -135l72 219l-186 135l229 -1l72 218l71 -218l230 -1l-187 -134l72 -218z" />
    <glyph glyph-name="uni263C" unicode="&#x263c;" horiz-adv-x="965" 
d="M438 729h88l-19 -152h-50zM262 658l75 47l61 -141l-41 -28zM627 705l75 -47l-95 -122l-41 28zM145 511l45 76l120 -95l-24 -43zM774 587l45 -76l-141 -62l-24 43zM308 365q0 35 14 67t37.5 55.5t55.5 37.5t67 14t67 -14t55.5 -37.5t37.5 -55.5t14 -67t-14 -67
t-37.5 -55.5t-55.5 -37.5t-67 -14t-67 14t-55.5 37.5t-37.5 55.5t-14 67zM118 321v88l152 -19v-50zM846 409v-88l-152 19v50zM190 143l-45 76l141 62l24 -43zM819 219l-45 -76l-120 95l24 43zM337 25l-75 47l95 122l41 -28zM702 72l-75 -47l-61 141l41 28zM526 1h-88l19 152
h50z" />
    <glyph glyph-name="uni263E" unicode="&#x263e;" horiz-adv-x="817" 
d="M549 616q-49 0 -93 -20t-76 -54t-51 -80t-19 -97t19 -97t51 -80t76 -54t93 -20q18 0 36 3.5t35 8.5q-38 -27 -83.5 -42t-94.5 -15q-61 0 -115 23.5t-94 63.5t-63.5 94t-23.5 115t23.5 115t63.5 94t94 63.5t115 23.5q49 0 94.5 -15t83.5 -42q-17 4 -35 8t-36 4z" />
    <glyph glyph-name="uni267B" unicode="&#x267b;" horiz-adv-x="968" 
d="M412 728l1 2h182q34 1 52.5 -8.5t32.5 -34.5l26 -46l40 23l-56 -157l-162 30l39 21l-70 118q-7 13 -17 22t-20 15q-11 6 -24.5 10.5t-23.5 4.5zM221 560l59 103q14 25 39 38.5t53 13.5t54.5 -12t42.5 -34l-108 -189zM788 494l59 -103q7 -11 10 -23.5t3 -25.5
q0 -41 -29.5 -77t-74.5 -41l-109 189zM209 111h-2l-90 158q-17 30 -18 50.5t14 45.5l27 46l-40 23l164 29l55 -156l-38 23l-68 -118q-7 -13 -10.5 -26.5t-3.5 -25.5q0 -13 3 -26.5t7 -22.5zM844 244l1 -2l-92 -157q-17 -30 -35 -41t-46 -10h-53v-46l-107 127l107 126l-1 -44
h137q15 0 28.5 3.5t23.5 9.5q10 7 21 16t16 18zM454 35h-119q-46 0 -77 36t-31 85q0 12 2.5 23t6.5 18h218v-162z" />
    <glyph glyph-name="uni267C" unicode="&#x267c;" horiz-adv-x="981" 
d="M116 365q0 81 28 150t78 119t119 78t150 28t150 -28t119 -78t78 -119t28 -150t-28 -150t-78 -119t-119 -78t-150 -28t-150 28t-119 78t-78 119t-28 150zM435 648q16 -3 35 -12t29 -29l54 -89l-30 -17l122 -23l43 121l-30 -18l-20 35q-11 19 -24.5 26.5t-39.5 6.5h-139v-1
zM289 519l107 -61l81 145q-13 16 -32.5 25t-40.5 9t-40 -10t-30 -29zM720 468l-107 -62l83 -145q37 7 58 33.5t21 57.5q0 10 -2.5 19t-7.5 18zM280 174q-4 7 -6 16t-2 19q0 11 3 22t8 21l52 91l29 -18l-42 119l-125 -22l31 -18l-21 -34q-5 -9 -8 -17.5t-3 -15.5
q0 -10 3.5 -19.5t10.5 -21.5l68 -122h2zM762 277q-13 -18 -29 -27t-38 -9h-104v33l-81 -97l81 -96v34h41q22 -1 35.5 8t26.5 32l69 120zM467 116v125h-167q-3 -6 -4.5 -14t-1.5 -18q0 -37 23.5 -65t58.5 -28h91z" />
    <glyph glyph-name="uni267D" unicode="&#x267d;" horiz-adv-x="979" 
d="M864 365q0 -81 -28 -150t-78 -119t-119 -78t-150 -28t-150 28t-119 78t-78 119t-28 150t28 150t78 119t119 78t150 28t150 -28t119 -78t78 -119t28 -150zM199 365q0 -62 19.5 -117t56.5 -95.5t91.5 -64.5t122.5 -24q69 0 123 24t91.5 64.5t57 95.5t19.5 117t-19.5 117.5
t-57 96t-91.5 64t-123 23.5q-68 0 -122.5 -23.5t-91.5 -64t-56.5 -96t-19.5 -117.5zM439 592v1h112q16 0 29 -4t24 -23l17 -29l24 15l-35 -97l-100 18l24 14l-41 70q-14 24 -34 29.5zM411 438l-86 50l36 65q4 7 9.5 12.5t12.5 9.5q25 14 55.5 4.5t39.5 -25.5zM675 447
l38 -66q3 -5 5.5 -12.5t2.5 -14.5q0 -31 -23.5 -52.5t-41.5 -21.5l-68 117zM316 213h-1l-56 96q-9 15 -11 28t9 32l17 29l-25 14l101 17l34 -96l-24 15l-42 -73q-12 -22 -7 -42zM708 295l1 -1l-57 -96q-8 -13 -18.5 -22.5t-33.5 -9.5h-31v-29l-66 79l66 78v-28h82
q27 0 42 14.5zM464 166h-74q-8 0 -15.5 1.5t-14.5 5.5q-27 15 -33.5 46t2.5 47h135v-100z" />
    <glyph glyph-name="house" unicode="&#x2302;" horiz-adv-x="903" 
d="M788 0h-674v427l337 323l337 -323v-427z" />
    <glyph glyph-name="spade" unicode="&#x2660;" horiz-adv-x="957" 
d="M613 0h-259q10 19 26 50t31 69t26 82t11 89q-9 -26 -24 -50.5t-36 -43.5t-48.5 -30.5t-61.5 -11.5q-35 0 -66 12.5t-54.5 34t-37 50.5t-13.5 61q0 43 13.5 80.5t42 74.5t73 78t106.5 90l140 112h1l140 -112q62 -49 105.5 -90t70.5 -78t39.5 -74.5t12.5 -80.5
q0 -64 -46.5 -110.5t-110.5 -46.5q-37 0 -66.5 11.5t-51.5 30t-38 43t-25 50.5q0 -45 12 -89t28 -82t33 -69t27 -50z" />
    <glyph glyph-name="club" unicode="&#x2663;" horiz-adv-x="951" 
d="M610 0h-259q9 17 22.5 43t27.5 58t25.5 69.5t16.5 77.5q-21 -51 -65.5 -84.5t-102.5 -33.5q-37 0 -69 14t-56 38t-38 56t-14 69t14 69t38 56t56 38t69 14q11 0 22 -2t21 -5q-9 20 -14.5 42.5t-5.5 44.5q0 36 14 68.5t37.5 56t55.5 37.5t68 14t68.5 -14t56 -37.5t37.5 -56
t14 -68.5q0 -23 -5 -46t-14 -42q10 4 22 6t24 2q37 0 69 -14t55.5 -38t37.5 -56t14 -69t-14 -69t-38 -56t-56 -38t-69 -14q-57 0 -99.5 32.5t-62.5 83.5q5 -39 17.5 -76.5t27.5 -69t29 -57.5t23 -43z" />
    <glyph glyph-name="heart" unicode="&#x2665;" horiz-adv-x="957" 
d="M108 550q0 38 14 73t38.5 60.5t58 41t71.5 15.5q77 0 127.5 -47t58.5 -115q8 68 58 115t127 47q38 0 72.5 -15.5t60.5 -41t41 -60.5t15 -73q0 -86 -53.5 -179.5t-178.5 -230.5l-142 -157l-141 157q-124 138 -175.5 231t-51.5 179z" />
    <glyph glyph-name="diamond" unicode="&#x2666;" horiz-adv-x="959" 
d="M152 390l327 401l327 -401l-327 -400z" />
    <glyph glyph-name="plus" unicode="+" horiz-adv-x="487" 
d="M40 274v82h160v160h88v-160h159v-82h-159v-165h-88v165h-160z" />
    <glyph glyph-name="minus" unicode="&#x2212;" horiz-adv-x="487" 
d="M40 264v86h407v-86h-407z" />
    <glyph glyph-name="plusminus" unicode="&#xb1;" horiz-adv-x="487" 
d="M40 344v82h160v159h88v-159h159v-82h-159v-165h-88v165h-160zM40 16v85h407v-85h-407z" />
    <glyph glyph-name="multiply" unicode="&#xd7;" horiz-adv-x="479" 
d="M52 446l59 57l130 -132l128 131l57 -57l-127 -129l128 -127l-58 -57l-130 129l-128 -130l-59 56l129 130z" />
    <glyph glyph-name="divide" unicode="&#xf7;" horiz-adv-x="487" 
d="M244 422q-32 0 -50.5 18.5t-18.5 49.5t18.5 50.5t50.5 19.5q31 0 50 -19.5t19 -50.5t-19 -49.5t-50 -18.5zM40 264v86h407v-86h-407zM244 53q-32 0 -50.5 18.5t-18.5 49.5t18.5 51t50.5 20q31 0 50 -20t19 -51t-19 -49.5t-50 -18.5z" />
    <glyph glyph-name="equal" unicode="=" horiz-adv-x="487" 
d="M40 350v86h407v-86h-407zM40 148v86h407v-86h-407z" />
    <glyph glyph-name="notequal" unicode="&#x2260;" horiz-adv-x="487" 
d="M40 148v86h134l60 116h-194v86h234l72 145l75 -34l-56 -111h82v-86h-130l-60 -116h190v-86h-230l-74 -150l-74 37l57 113h-86z" />
    <glyph glyph-name="approxequal" unicode="&#x2248;" horiz-adv-x="490" 
d="M450 389q-25 -28 -49.5 -39.5t-46.5 -11.5q-26 0 -52 9t-52 19.5t-53.5 19.5t-56.5 9q-20 0 -47 -10t-53 -35v84q25 25 52.5 34.5t47.5 9.5q30 0 57.5 -9t53.5 -19.5t51.5 -19.5t51.5 -9q21 0 46 11.5t50 39.5v-83zM450 179q-26 -28 -50.5 -40.5t-45.5 -12.5q-26 0 -52 9
t-52 20t-53.5 20t-56.5 9q-20 0 -47.5 -9.5t-52.5 -34.5v84q25 24 51.5 33.5t48.5 9.5q30 0 57 -9t52.5 -20t51.5 -20t53 -9q22 0 46.5 13t49.5 40v-83z" />
    <glyph glyph-name="less" unicode="&#x3c;" horiz-adv-x="487" 
d="M44 271v43l383 212v-93l-261 -140l261 -140v-94z" />
    <glyph glyph-name="greater" unicode="&#x3e;" horiz-adv-x="487" 
d="M61 527l382 -212v-43l-382 -212v94l261 139l-261 140v94z" />
    <glyph glyph-name="lessequal" unicode="&#x2264;" horiz-adv-x="487" 
d="M57 393v42l383 212v-93l-262 -140l262 -140v-94zM40 28v85h407v-85h-407z" />
    <glyph glyph-name="greaterequal" unicode="&#x2265;" horiz-adv-x="487" 
d="M429 435v-41l-382 -213v94l261 139l-261 140v94zM40 28v85h407v-85h-407z" />
    <glyph glyph-name="plus.cap" horiz-adv-x="495" 
d="M43 339v82h160v160h89v-160h160v-82h-160v-165h-89v165h-160z" />
    <glyph glyph-name="minus.cap" horiz-adv-x="495" 
d="M43 329v86h409v-86h-409z" />
    <glyph glyph-name="multiply.cap" horiz-adv-x="486" 
d="M57 252l128 128l-130 130l60 57l130 -132l128 132l58 -58l-128 -129l128 -127l-59 -59l-129 130l-128 -130z" />
    <glyph glyph-name="divide.cap" horiz-adv-x="495" 
d="M248 488q-33 0 -51.5 19t-18.5 49q0 31 18.5 51t51.5 20q31 0 50 -20t19 -51q0 -30 -19 -49t-50 -19zM43 329v86h409v-86h-409zM248 116q-33 0 -51.5 19t-18.5 49q0 31 18.5 51t51.5 20q31 0 50 -20t19 -51q0 -30 -19 -49t-50 -19z" />
    <glyph glyph-name="equal.cap" horiz-adv-x="495" 
d="M43 418v86h409v-86h-409zM43 210v86h409v-86h-409z" />
    <glyph glyph-name="less.cap" horiz-adv-x="491" 
d="M46 342v46l382 209v-99l-249 -133l249 -132v-100z" />
    <glyph glyph-name="greater.cap" horiz-adv-x="491" 
d="M63 597l382 -209v-46l-382 -209v100l249 132l-249 133v99z" />
    <glyph glyph-name="logicalnot" unicode="&#xac;" horiz-adv-x="468" 
d="M420 411v-245h-94v160h-284v85h378z" />
    <glyph glyph-name="equivalence" unicode="&#x2261;" horiz-adv-x="495" 
d="M43 425v85h409v-85h-409zM43 241v85h409v-85h-409zM43 57v86h409v-86h-409z" />
    <glyph glyph-name="minute" unicode="&#x2032;" horiz-adv-x="191" 
d="M35 488l43 242h100l-75 -242h-68z" />
    <glyph glyph-name="second" unicode="&#x2033;" horiz-adv-x="334" 
d="M35 488l43 242h100l-75 -242h-68zM178 488l43 242h101l-76 -242h-68z" />
    <glyph glyph-name="underscoredbl" unicode="&#x2017;" horiz-adv-x="513" 
d="M34 -122v59h444v-59h-444zM34 -239v59h444v-59h-444z" />
    <glyph glyph-name="exclamdbl" unicode="&#x203c;" horiz-adv-x="491" 
d="M359 233l-39 288q-5 39 -8.5 74t-3.5 57q0 47 20.5 67.5t50.5 20.5q29 0 49.5 -20.5t20.5 -67.5q0 -22 -3 -57t-8 -74l-38 -288h-41zM379 -10q-38 0 -62 24t-24 61t24 60.5t62 23.5q39 0 63 -23.5t24 -60.5t-24 -61t-63 -24zM121 233l-39 288q-5 39 -8.5 74t-3.5 57
q0 47 20.5 67.5t50.5 20.5q29 0 49.5 -20.5t20.5 -67.5q0 -22 -3 -57t-8 -74l-38 -288h-41zM141 -10q-38 0 -62 24t-24 61t24 60.5t62 23.5q39 0 63 -23.5t24 -60.5t-24 -61t-63 -24z" />
    <glyph glyph-name="infinity" unicode="&#x221e;" horiz-adv-x="790" 
d="M395 442q12 19 28 41.5t37.5 42t49.5 32.5t64 13q42 0 74.5 -16t55 -43t34 -63.5t11.5 -77.5t-11.5 -77.5t-34 -63.5t-55 -43t-74.5 -16q-36 0 -64 13.5t-49.5 33t-37.5 42t-28 39.5q-11 -17 -27 -39.5t-37.5 -42t-49.5 -33t-64 -13.5q-42 0 -75 16t-55 43t-34 63.5
t-12 77.5t12 77.5t34 63.5t55 43t75 16q36 0 64 -13t49.5 -32.5t37.5 -42t27 -41.5zM355 371q-25 55 -58 86t-70 31q-30 0 -54.5 -28t-24.5 -89q0 -60 24.5 -88.5t54.5 -28.5q37 0 70 31.5t58 85.5zM435 371q25 -54 58 -85.5t70 -31.5q30 0 54.5 28.5t24.5 88.5
q0 61 -24.5 89t-54.5 28q-37 0 -70 -31t-58 -86z" />
    <glyph glyph-name="partialdiff" unicode="&#x2202;" horiz-adv-x="644" 
d="M331 637q-46 0 -82 -29.5t-57 -78.5l-105 52q19 43 47.5 74t61.5 51t69.5 29t71.5 9q67 0 116 -24.5t80.5 -67t46.5 -101.5t15 -128q0 -100 -22 -181t-62.5 -136.5t-98 -85.5t-128.5 -30q-54 0 -99.5 18t-77.5 49t-49.5 74t-17.5 93q0 52 17.5 94.5t49 73t75 47
t94.5 16.5q60 0 112.5 -28.5t89.5 -82.5q1 16 2 33.5t1 35.5q0 115 -40.5 169.5t-109.5 54.5zM152 238q0 -62 38.5 -100.5t100.5 -38.5q66 0 109.5 43t62.5 118q-28 63 -74.5 92t-94.5 29q-68 0 -105 -38.5t-37 -104.5z" />
    <glyph glyph-name="pi" unicode="&#x3c0;" horiz-adv-x="667" 
d="M10 456v104h628v-104h-76v-302q0 -39 15.5 -50t37.5 -11q11 0 20 1.5t16 5.5v-97q-12 -6 -34.5 -9.5t-43.5 -3.5q-57 0 -94.5 31.5t-37.5 114.5v320h-231v-456h-121v456h-79z" />
    <glyph glyph-name="mu" unicode="&#x3bc;" horiz-adv-x="676" 
d="M278 -11q-28 0 -50.5 6t-39.5 17l4 -228h-121v776h121v-316q0 -72 29 -114t102 -42q69 0 113 58t44 173v241h121v-560h-120v137q-32 -73 -82 -110.5t-121 -37.5z" />
    <glyph glyph-name="integral" unicode="&#x222b;" horiz-adv-x="339" 
d="M289 629q-34 0 -48 -15.5t-14 -52.5v-603q0 -104 -43.5 -139t-128.5 -35h-38v101h33q34 0 48 15.5t14 52.5v603q0 104 43.5 139t128.5 35h38v-101h-33z" />
    <glyph glyph-name="radical" unicode="&#x221a;" horiz-adv-x="677" 
d="M663 730l-273 -730h-130l-127 266h-115v92h192l64 -139l47 -113l38 116l185 508h119z" />
    <glyph glyph-name="increment" unicode="&#x2206;" horiz-adv-x="779" 
d="M13 0l323 730h105l325 -730h-753zM196 114h386l-194 455z" />
    <glyph glyph-name="ohm" unicode="&#x2126;" horiz-adv-x="782" 
d="M391 629q-56 0 -99.5 -20t-73 -53.5t-45 -77.5t-15.5 -91q0 -42 11 -82.5t35 -74.5t61.5 -59.5t90.5 -37.5v-133h-313v116h175q-46 19 -80 50t-56 68.5t-33 81.5t-11 90q0 66 24 127t69.5 106.5t111.5 73t148 27.5q83 0 149 -27.5t111 -73t69 -106.5t24 -127
q0 -46 -11.5 -90t-34.5 -82t-57 -68.5t-80 -49.5h178v-116h-313v133q52 12 90 38t61.5 59.5t35 74t11.5 82.5q0 47 -15.5 91t-45 77.5t-73 53.5t-99.5 20z" />
    <glyph glyph-name="product" unicode="&#x220f;" horiz-adv-x="751" 
d="M79 -216v946h593v-946h-122v831h-349v-831h-122z" />
    <glyph glyph-name="summation" unicode="&#x2211;" horiz-adv-x="665" 
d="M64 -216v115l300 372l-290 343v116h537v-111h-418l284 -331v-27l-288 -362h423v-115h-548z" />
    <glyph glyph-name="lozenge" unicode="&#x25ca;" horiz-adv-x="521" 
d="M17 365l223 365h40l223 -365l-223 -365h-40zM127 367l134 -220l134 217l-136 220z" />
    <glyph glyph-name="degree" unicode="&#xb0;" horiz-adv-x="341" 
d="M170 446q-76 0 -113 43.5t-37 101.5q0 29 9 55.5t27.5 46.5t47 32t66.5 12q75 0 113 -44t38 -102q0 -57 -38 -101t-113 -44zM171 514q37 0 55 23t18 54q0 32 -18.5 54.5t-54.5 22.5q-37 0 -56 -23t-19 -54t18.5 -54t56.5 -23z" />
    </font>
</defs>
</svg>
